*
*
G04 PADS VX.2.8 Build Number: 19810023 generated Gerber (RS-274-X) file*
G04 PC Version=2.1*
*
%IN "ECE4460_PG_VersionB.pcb"*%
*
%MOIN*%
*
%FSLAX35Y35*%
*
*
*
*
G04 PC Standard Apertures*
*
*
G04 Thermal Relief Aperture macro.*
%AMTER*
1,1,$1,0,0*
1,0,$1-$2,0,0*
21,0,$3,$4,0,0,45*
21,0,$3,$4,0,0,135*
%
*
*
G04 Annular Aperture macro.*
%AMANN*
1,1,$1,0,0*
1,0,$2,0,0*
%
*
*
G04 Odd Aperture macro.*
%AMODD*
1,1,$1,0,0*
1,0,$1-0.005,0,0*
%
*
*
G04 PC Custom Aperture Macros*
*
*
*
*
*
*
G04 PC Aperture Table*
*
%ADD010C,0.001*%
%ADD011C,0.01*%
%ADD014C,0.006*%
%ADD015R,0.086X0.016*%
%ADD016R,0.03X0.025*%
%ADD017R,0.038X0.03*%
%ADD019R,0.06X0.06*%
%ADD020C,0.06*%
%ADD021R,0.07X0.06*%
%ADD022O,0.15X0.03*%
%ADD023R,0.2X0.15*%
%ADD027R,0.025X0.03*%
%ADD032R,0.03X0.038*%
%ADD080C,0.04*%
%ADD083R,0.06X0.05*%
%ADD084R,0.025X0.02*%
%ADD086R,0.02X0.025*%
%ADD087C,0.01641*%
%ADD088C,0.01641*%
%ADD089C,0.0008*%
*
*
*
*
G04 PC Circuitry*
G04 Layer Name ECE4460_PG_VersionB.pcb - circuitry*
%LPD*%
*
G54D10*
G01X280553Y2631137D02*
X280355Y2631729D01*
X279763Y2631926*
X279171Y2631729*
X278974Y2631137*
X279171Y2630545*
X279763Y2630347*
X280355Y2630545*
X280553Y2631137*
X278239Y2637403D02*
X274761D01*
Y2637292*
X274921*
X274933Y2637291*
X275354Y2637185*
X275370Y2637178*
X275686Y2636968*
X275708Y2636926*
Y2634189*
X275658Y2634139*
X273132*
X273082Y2634189*
Y2636716*
X273087Y2636738*
X273297Y2637159*
X273332Y2637186*
X273859Y2637291*
X273868Y2637292*
X274029*
Y2637403*
X270550*
Y2637292*
X270711*
X270723Y2637291*
X271144Y2637185*
X271159Y2637178*
X271475Y2636968*
X271497Y2636926*
Y2631137*
X271492Y2631114*
X271282Y2630693*
X271247Y2630667*
X270720Y2630561*
X270720D02*
X270711D01*
X270550*
Y2630450*
X274029*
Y2630561*
X273868*
X273856Y2630562*
X273435Y2630667*
X273412Y2630680*
X273201Y2630891*
X273192Y2630904*
X273087Y2631114*
X273082Y2631137*
Y2633768*
X273132Y2633818*
X275658*
X275708Y2633768*
Y2631137*
X275703Y2631114*
X275492Y2630693*
X275457Y2630667*
X274931Y2630561*
X274931D02*
X274921D01*
X274761*
Y2630450*
X278239*
Y2630561*
X278079*
X278067Y2630562*
X277646Y2630667*
X277623Y2630680*
X277412Y2630891*
X277403Y2630904*
X277297Y2631114*
X277292Y2631137*
Y2636716*
X277297Y2636738*
X277508Y2637159*
X277543Y2637186*
X278069Y2637291*
X278079Y2637292*
X278239*
Y2637403*
X269713Y2637508D02*
X269592D01*
X269496Y2637125*
X269463Y2637089*
X269147Y2636984*
X269132Y2636982*
X268921*
X268899Y2636987*
X268482Y2637195*
X267753Y2637403*
X266921Y2637508*
X265987Y2637404*
X265051Y2636988*
X264325Y2636469*
X263701Y2635638*
X263286Y2634703*
X263182Y2633768*
X263286Y2632833*
X263596Y2632005*
X264218Y2631279*
X264944Y2630761*
X265879Y2630449*
X266920Y2630345*
X268374Y2630553*
X268890Y2630965*
X268893Y2630968*
X269503Y2631374*
Y2631841*
X269065Y2631315*
X269049Y2631303*
X268417Y2630987*
X268413Y2630985*
X267887Y2630775*
X267877Y2630772*
X267245Y2630666*
X267230*
X266493Y2630772*
X266474Y2630778*
X265948Y2631094*
X265938Y2631101*
X265517Y2631523*
X265507Y2631538*
X265191Y2632275*
X265187Y2632289*
X264977Y2633973*
X264976Y2633979*
X264977Y2633984*
X265082Y2634932*
X265083Y2634938*
X265294Y2635781*
X265299Y2635794*
X265615Y2636320*
X265627Y2636334*
X266153Y2636755*
X266158Y2636759*
X266685Y2637074*
X266702Y2637081*
X267334Y2637186*
X267349*
X268086Y2637081*
X268107Y2637073*
X268738Y2636652*
X268749Y2636643*
X269275Y2636011*
X269284Y2635997*
X269587Y2635187*
X269713*
Y2637508*
X262232Y2632561D02*
X262114D01*
X261810Y2631751*
X261799Y2631733*
X261272Y2631207*
X261262Y2631199*
X260525Y2630778*
X260506Y2630771*
X259664Y2630666*
X259658*
X259132*
X259119Y2630667*
X258698Y2630773*
X258666Y2630799*
X258455Y2631220*
X258450Y2631242*
Y2633768*
X258500Y2633818*
X258921*
X258937Y2633816*
X259253Y2633711*
X259265Y2633705*
X259580Y2633494*
X259594Y2633480*
X259805Y2633165*
X259812Y2633147*
X260015Y2632134*
X260134*
Y2635718*
X260017*
X259918Y2635025*
X259911Y2635006*
X259596Y2634480*
X259588Y2634470*
X259272Y2634154*
X259245Y2634140*
X258613Y2634035*
X258605Y2634034*
X258500*
X258450Y2634084*
Y2637032*
X258500Y2637082*
X259974*
X259986Y2637080*
X260407Y2636975*
X260417Y2636971*
X260838Y2636761*
X260851Y2636751*
X261167Y2636435*
X261176Y2636422*
X261387Y2636001*
X261390Y2635995*
X261589Y2635397*
X261713*
Y2637403*
X255918*
Y2637292*
X256079*
X256089Y2637291*
X256615Y2637186*
X256647Y2637165*
X256857Y2636849*
X256866Y2636821*
Y2631137*
X256861Y2631114*
X256650Y2630693*
X256615Y2630667*
X256089Y2630561*
X256089D02*
X256079D01*
X255918*
Y2630450*
X261930*
X262232Y2632561*
X255187Y2637403D02*
X248971D01*
Y2635608*
X249096*
X249295Y2636205*
X249299Y2636215*
X249615Y2636742*
X249636Y2636761*
X250057Y2636971*
X250071Y2636976*
X250702Y2637081*
X250711Y2637082*
X251237*
X251287Y2637032*
Y2631137*
X251282Y2631114*
X251071Y2630693*
X251036Y2630667*
X250510Y2630561*
X250510D02*
X250500D01*
X250339*
Y2630450*
X253818*
Y2630561*
X253658*
X253646Y2630562*
X253225Y2630667*
X253201Y2630680*
X252991Y2630891*
X252982Y2630904*
X252876Y2631114*
X252871Y2631137*
Y2637032*
X252921Y2637082*
X253868*
X253891Y2637076*
X254101Y2636971*
X254107Y2636968*
X254738Y2636547*
X254759Y2636517*
X254863Y2636100*
X255060Y2635608*
X255187*
Y2637403*
X245818Y2630577D02*
X245324Y2630775D01*
X245301Y2630793*
X245301D02*
X245090Y2631109D01*
X245087Y2631114*
X244771Y2631746*
X244770Y2631748*
X242257Y2637508*
X242217*
X239809Y2631959*
X239493Y2631222*
X239483Y2631207*
X239167Y2630891*
X239159Y2630885*
X238844Y2630674*
X238832Y2630668*
X238550Y2630574*
Y2630450*
X240766*
Y2630561*
X240395*
X240372Y2630566*
X240162Y2630671*
X240149Y2630680*
X239938Y2630891*
X239929Y2630904*
X239824Y2631114*
X239818Y2631137*
X239822Y2631155*
X240033Y2631682*
Y2631683*
X240349Y2632420*
X240395Y2632450*
X242816*
X242861Y2632422*
X243282Y2631580*
X243284Y2631574*
X243390Y2631258*
X243392Y2631242*
Y2630926*
X243387Y2630904*
X243282Y2630693*
X243259Y2630671*
X243049Y2630566*
X243026Y2630561*
X242655*
Y2630450*
X245818*
Y2630577*
X242605Y2632771D02*
X240605D01*
X240555Y2632821*
X240559Y2632841*
X241612Y2635262*
X241704Y2635260*
X242652Y2632839*
X242605Y2632771*
X238029Y2633297D02*
X234761D01*
Y2633187*
X234921*
X234933Y2633185*
X235354Y2633080*
X235377Y2633067*
X235588Y2632856*
X235597Y2632843*
X235703Y2632633*
X235708Y2632611*
Y2630821*
X235676Y2630775*
X235150Y2630564*
X235132Y2630561*
X234711*
X234702*
X234071Y2630666*
X234060Y2630669*
X233534Y2630880*
X233514Y2630895*
X233093Y2631421*
X233087Y2631430*
X232771Y2632062*
X232766Y2632078*
X232661Y2632920*
X232556Y2633868*
X232555Y2633874*
X232556Y2633880*
X232766Y2635564*
X232770Y2635578*
X233086Y2636314*
X233093Y2636326*
X233514Y2636852*
X233527Y2636864*
X234053Y2637180*
X234071Y2637186*
X234702Y2637291*
X234718Y2637292*
X235454Y2637186*
X235472Y2637180*
X236209Y2636759*
X236225Y2636745*
X236751Y2636008*
X236755Y2636001*
X237162Y2635187*
X237292*
Y2637508*
X237168*
X237074Y2637226*
X237062Y2637207*
X236956Y2637101*
X236937Y2637089*
X236621Y2636984*
X236605Y2636982*
X236500*
X236478Y2636987*
X236061Y2637195*
X235646Y2637299*
X235642Y2637300*
X235331Y2637404*
X234500Y2637508*
X233669Y2637404*
X233045Y2637196*
X233045D02*
X232420Y2636883D01*
X231799Y2636469*
X231385Y2635849*
X231073Y2635223*
X230865Y2634599*
X230761Y2633873*
X230865Y2633042*
X231073Y2632315*
X231382Y2631799*
X231901Y2631281*
X232940Y2630553*
X233665Y2630450*
X234501Y2630345*
X235964Y2630449*
X237292Y2630858*
Y2632716*
X237301Y2632744*
X237301D02*
X237511Y2633059D01*
X237530Y2633076*
X237741Y2633182*
X237763Y2633187*
X238029*
Y2633297*
X227291Y2630820D02*
X227189Y2631331D01*
X226988Y2631734*
X226690Y2631933*
X226291Y2632032*
X225996Y2631934*
X225697Y2631734*
X225599Y2631539*
X225500Y2631242*
X225699Y2630646*
X226083Y2630454*
X226379Y2630553*
X226395Y2630555*
X226605*
X226655Y2630505*
Y2629874*
X226650Y2629851*
X226439Y2629430*
X226430Y2629417*
X226114Y2629101*
X226109Y2629097*
X225708Y2628796*
Y2628686*
X226366Y2628968*
X226880Y2629482*
X227188Y2630099*
X227291Y2630820*
X224555Y2633874D02*
X224450Y2635024D01*
X224242Y2635962*
X223933Y2636581*
X223416Y2637097*
X222903Y2637405*
X222290Y2637507*
X221781Y2637405*
X221268Y2637097*
X220752Y2636581*
X220442Y2635963*
X220234Y2634919*
X220129Y2633874*
X220338Y2632202*
X220546Y2631684*
X220753Y2631268*
X220753D02*
X221062Y2630857D01*
X221469Y2630551*
X222296Y2630345*
X222801*
X223103Y2630546*
X223829Y2631065*
X224033Y2631473*
X224242Y2631994*
X224451Y2632935*
X224555Y2633874*
X223076Y2636084D02*
Y2631663D01*
X223075Y2631653*
X222970Y2631127*
X222963Y2631109*
X222752Y2630793*
X222738Y2630779*
X222422Y2630569*
X222383Y2630562*
X221962Y2630667*
X221929Y2630693*
X221824Y2630904*
X221821Y2630911*
X221716Y2631226*
X221713Y2631242*
Y2631552*
X221609Y2631967*
X221608Y2631979*
Y2636084*
X221609Y2636096*
X221715Y2636517*
X221716Y2636521*
X221926Y2637153*
X221958Y2637184*
X222274Y2637290*
X222312Y2637287*
X222733Y2637076*
X222752Y2637059*
X222963Y2636744*
X222970Y2636724*
X223076Y2636092*
Y2636084*
X219292Y2637499D02*
X218092Y2637299D01*
X216947Y2636883*
X216114Y2636154*
X215385Y2635321*
X214970Y2634283*
X214866Y2633138*
X214970Y2632410*
X215178Y2631681*
X215487Y2631064*
X215999Y2630654*
X216514Y2630448*
X217132Y2630345*
X217750Y2630448*
X218265Y2630654*
X218673Y2630960*
X218981Y2631475*
X219188Y2631992*
X219292Y2632716*
X219189Y2633540*
X218778Y2634155*
X218269Y2634563*
X217553Y2634665*
X216827Y2634562*
X216516Y2634458*
X216450Y2634505*
X216452Y2634519*
X216662Y2635256*
X216663Y2635258*
X216874Y2635889*
X216882Y2635905*
X217303Y2636431*
X217311Y2636439*
X217837Y2636860*
X217846Y2636866*
X218478Y2637182*
X218482Y2637184*
X219292Y2637487*
Y2637499*
X217918Y2632611D02*
Y2631242D01*
X217910Y2631214*
X217701Y2630901*
X217597Y2630693*
X217568Y2630668*
X217253Y2630563*
X217237Y2630561*
X217026*
X216982Y2630588*
X216878Y2630796*
X216669Y2631109*
X216664Y2631118*
X216454Y2631645*
X216450Y2631660*
X216345Y2633133*
Y2633137*
Y2634084*
X216376Y2634131*
X216902Y2634341*
X216937Y2634342*
X217253Y2634237*
X217265Y2634231*
X217580Y2634021*
X217600Y2633995*
X217705Y2633679*
X217707Y2633673*
X217917Y2632620*
X217918Y2632611*
X214029Y2632982D02*
X213447D01*
X213397Y2633032*
Y2637508*
X212841*
X209603Y2633015*
Y2632029*
X211974*
X212024Y2631979*
Y2630450*
X213397*
Y2631979*
X213447Y2632029*
X214029*
Y2632982*
X212024Y2635874D02*
Y2633032D01*
X211974Y2632982*
X209868*
X209818Y2633032*
X209828Y2633061*
X211934Y2635903*
X212024Y2635874*
X208766Y2632982D02*
X208184D01*
X208134Y2633032*
Y2637508*
X207578*
X204339Y2633015*
Y2632029*
X206711*
X206761Y2631979*
Y2630450*
X208134*
Y2631979*
X208184Y2632029*
X208766*
Y2632982*
X206761Y2635874D02*
Y2633032D01*
X206711Y2632982*
X204605*
X204555Y2633032*
X204565Y2633061*
X206670Y2635903*
X206761Y2635874*
X203495Y2632561D02*
X203377D01*
X203073Y2631751*
X203062Y2631733*
X202535Y2631207*
X202525Y2631199*
X201788Y2630778*
X201769Y2630771*
X200927Y2630666*
X200921*
X200395*
X200383Y2630667*
X199962Y2630773*
X199929Y2630799*
X199718Y2631220*
X199713Y2631242*
Y2633768*
X199763Y2633818*
X200184*
X200200Y2633816*
X200516Y2633711*
X200528Y2633705*
X200844Y2633494*
X200857Y2633480*
X201068Y2633165*
X201075Y2633147*
X201278Y2632134*
X201397*
Y2635718*
X201280*
X201181Y2635025*
X201174Y2635006*
X200859Y2634480*
X200851Y2634470*
X200535Y2634154*
X200508Y2634140*
X199877Y2634035*
X199868Y2634034*
X199763*
X199713Y2634084*
Y2637032*
X199763Y2637082*
X201237*
X201249Y2637080*
X201670Y2636975*
X201680Y2636971*
X202101Y2636761*
X202114Y2636751*
X202430Y2636435*
X202439Y2636422*
X202650Y2636001*
X202653Y2635995*
X202852Y2635397*
X202976*
Y2637403*
X197182*
Y2637292*
X197342*
X197352Y2637291*
X197878Y2637186*
X197910Y2637165*
X198121Y2636849*
X198129Y2636821*
Y2631137*
X198124Y2631114*
X197913Y2630693*
X197878Y2630667*
X197352Y2630561*
X197352D02*
X197342D01*
X197182*
Y2630450*
X203193*
X203495Y2632561*
X196345Y2637508D02*
X196223D01*
X196127Y2637125*
X196095Y2637089*
X195779Y2636984*
X195763Y2636982*
X195553*
X195530Y2636987*
X195113Y2637195*
X194385Y2637403*
X193552Y2637508*
X192618Y2637404*
X191683Y2636988*
X190956Y2636469*
X190333Y2635638*
X189917Y2634703*
X189813Y2633768*
X189917Y2632833*
X190228Y2632005*
X190850Y2631279*
X191576Y2630761*
X192511Y2630449*
X193552Y2630345*
X195006Y2630553*
X195521Y2630965*
X195525Y2630968*
X196134Y2631374*
Y2631841*
X195696Y2631315*
X195680Y2631303*
X195049Y2630987*
X195045Y2630985*
X194519Y2630775*
X194508Y2630772*
X193877Y2630666*
X193861*
X193125Y2630772*
X193106Y2630778*
X192580Y2631094*
X192570Y2631101*
X192149Y2631523*
X192138Y2631538*
X191822Y2632275*
X191819Y2632289*
X191608Y2633973*
Y2633979*
Y2633984*
X191713Y2634932*
X191715Y2634938*
X191925Y2635781*
X191931Y2635794*
X192247Y2636320*
X192258Y2636334*
X192785Y2636755*
X192790Y2636759*
X193316Y2637074*
X193334Y2637081*
X193965Y2637186*
X193981*
X194718Y2637081*
X194738Y2637073*
X195370Y2636652*
X195381Y2636643*
X195907Y2636011*
X195915Y2635997*
X196219Y2635187*
X196345*
Y2637508*
X188863Y2632561D02*
X188745D01*
X188442Y2631751*
X188430Y2631733*
X187904Y2631207*
X187893Y2631199*
X187156Y2630778*
X187138Y2630771*
X186296Y2630666*
X186289*
X185763*
X185751Y2630667*
X185330Y2630773*
X185297Y2630799*
X185087Y2631220*
X185082Y2631242*
Y2633768*
X185132Y2633818*
X185553*
X185568Y2633816*
X185884Y2633711*
X185896Y2633705*
X186212Y2633494*
X186226Y2633480*
X186436Y2633165*
X186444Y2633147*
X186646Y2632134*
X186766*
Y2635718*
X186649*
X186549Y2635025*
X186549D02*
X186543Y2635006D01*
X186227Y2634480*
X186220Y2634470*
X185904Y2634154*
X185877Y2634140*
X185245Y2634035*
X185237Y2634034*
X185132*
X185082Y2634084*
Y2637032*
X185132Y2637082*
X186605*
X186617Y2637080*
X187038Y2636975*
X187049Y2636971*
X187470Y2636761*
X187483Y2636751*
X187799Y2636435*
X187808Y2636422*
X188018Y2636001*
X188021Y2635995*
X188220Y2635397*
X188345*
Y2637403*
X182550*
Y2637292*
X182711*
X182720Y2637291*
X183247Y2637186*
X183278Y2637165*
X183489Y2636849*
X183497Y2636821*
Y2631137*
X183492Y2631114*
X183282Y2630693*
X183247Y2630667*
X182720Y2630561*
X182720D02*
X182711D01*
X182550*
Y2630450*
X188562*
X188863Y2632561*
X179291Y2630820D02*
X179189Y2631331D01*
X178988Y2631734*
X178690Y2631933*
X178291Y2632032*
X177996Y2631934*
X177697Y2631734*
X177599Y2631539*
X177500Y2631242*
X177699Y2630646*
X178083Y2630454*
X178379Y2630553*
X178395Y2630555*
X178605*
X178655Y2630505*
Y2629874*
X178650Y2629851*
X178439Y2629430*
X178430Y2629417*
X178114Y2629101*
X178109Y2629097*
X177708Y2628796*
Y2628686*
X178366Y2628968*
X178880Y2629482*
X179188Y2630099*
X179291Y2630820*
X176555Y2637499D02*
X175355Y2637299D01*
X174210Y2636883*
X173378Y2636154*
X172649Y2635321*
X172233Y2634283*
X172129Y2633138*
X172233Y2632410*
X172442Y2631681*
X172750Y2631064*
X173262Y2630654*
X173777Y2630448*
X174395Y2630345*
X175013Y2630448*
X175528Y2630654*
X175936Y2630960*
X176245Y2631475*
X176451Y2631992*
X176555Y2632716*
X176452Y2633540*
X176042Y2634155*
X175532Y2634563*
X174816Y2634665*
X174090Y2634562*
X173779Y2634458*
X173713Y2634505*
X173715Y2634519*
X173926Y2635256*
Y2635258*
X174137Y2635889*
X174145Y2635905*
X174566Y2636431*
X174574Y2636439*
X175100Y2636860*
X175109Y2636866*
X175741Y2637182*
X175746Y2637184*
X176555Y2637487*
Y2637499*
X175182Y2632611D02*
Y2631242D01*
X175173Y2631214*
X174964Y2630901*
X174861Y2630693*
X174832Y2630668*
X174516Y2630563*
X174500Y2630561*
X174289*
X174245Y2630588*
X174141Y2630796*
X173932Y2631109*
X173927Y2631118*
X173717Y2631645*
X173713Y2631660*
X173608Y2633133*
Y2633137*
Y2634084*
X173639Y2634131*
X174166Y2634341*
X174200Y2634342*
X174516Y2634237*
X174528Y2634231*
X174844Y2634021*
X174863Y2633995*
X174968Y2633679*
X174970Y2633673*
X175181Y2632620*
X175182Y2632611*
X171818Y2628771D02*
X166445D01*
Y2628134*
X171818*
Y2628771*
X165924Y2637508D02*
X165802D01*
X165706Y2637125*
X165674Y2637089*
X165358Y2636984*
X165342Y2636982*
X165132*
X165109Y2636987*
X164692Y2637195*
X163964Y2637403*
X163131Y2637508*
X162197Y2637404*
X161262Y2636988*
X160535Y2636469*
X159912Y2635638*
X159496Y2634703*
X159392Y2633768*
X159496Y2632833*
X159807Y2632005*
X160429Y2631279*
X161155Y2630761*
X162089Y2630449*
X163131Y2630345*
X164585Y2630553*
X165100Y2630965*
X165104Y2630968*
X165713Y2631374*
Y2631841*
X165275Y2631315*
X165259Y2631303*
X164628Y2630987*
X164624Y2630985*
X164098Y2630775*
X164087Y2630772*
X163456Y2630666*
X163440*
X162703Y2630772*
X162685Y2630778*
X162158Y2631094*
X162149Y2631101*
X161728Y2631523*
X161717Y2631538*
X161401Y2632275*
X161398Y2632289*
X161187Y2633973*
Y2633979*
Y2633984*
X161292Y2634932*
X161294Y2634938*
X161504Y2635781*
X161510Y2635794*
X161826Y2636320*
X161837Y2636334*
X162364Y2636755*
X162369Y2636759*
X162895Y2637074*
X162913Y2637081*
X163544Y2637186*
X163560*
X164297Y2637081*
X164317Y2637073*
X164949Y2636652*
X164959Y2636643*
X165486Y2636011*
X165494Y2635997*
X165798Y2635187*
X165924*
Y2637508*
X158449Y2632402D02*
X158347Y2633016D01*
X158039Y2633631*
X157416Y2634150*
X157000Y2634463*
X155320Y2635303*
X155307Y2635312*
X154780Y2635838*
X154767Y2635862*
X154662Y2636283*
X154661Y2636295*
X154663Y2636311*
X154768Y2636626*
X154774Y2636638*
X154985Y2636954*
X154999Y2636968*
X155314Y2637178*
X155332Y2637186*
X155859Y2637291*
X155877*
X156508Y2637186*
X156528Y2637178*
X157159Y2636757*
X157170Y2636748*
X157696Y2636116*
X157706Y2636096*
X157907Y2635292*
X158029*
Y2637508*
X157904*
X157813Y2637234*
Y2637137*
X157786Y2637092*
X157575Y2636987*
X157553Y2636982*
X157342*
X157314Y2636990*
X157004Y2637197*
X156383Y2637404*
X155762Y2637507*
X154940Y2637405*
X154221Y2636891*
X153809Y2636273*
X153604Y2635557*
X153809Y2634738*
X154115Y2634330*
X154530Y2634019*
X154531Y2634018*
X155053Y2633600*
X155891Y2633182*
X155894Y2633180*
X156419Y2632865*
X156838Y2632655*
X156851Y2632646*
X157272Y2632225*
X157286Y2632199*
X157391Y2631673*
X157392Y2631663*
X157391Y2631651*
X157285Y2631230*
X157278Y2631214*
X157068Y2630899*
X157049Y2630882*
X156628Y2630671*
X156615Y2630667*
X156089Y2630561*
X156089D02*
X156072D01*
X155335Y2630666*
X155313Y2630675*
X154576Y2631201*
X154567Y2631210*
X154041Y2631842*
X154031Y2631859*
X153726Y2632876*
X153603*
Y2630345*
X153732*
X153929Y2630738*
X153958Y2630763*
X154274Y2630868*
X154302Y2630870*
X154723Y2630764*
X154730Y2630762*
X155462Y2630448*
X156080Y2630345*
X157009Y2630448*
X157833Y2630963*
X158243Y2631578*
X158449Y2632402*
X152660Y2635558D02*
X152558Y2636274D01*
X152047Y2636886*
X151221Y2637299*
X150601Y2637403*
X146971*
Y2637292*
X147342*
X147364Y2637287*
X147575Y2637182*
X147588Y2637172*
X147799Y2636962*
X147808Y2636949*
X147913Y2636738*
X147918Y2636716*
Y2631137*
X147913Y2631114*
X147808Y2630904*
X147799Y2630891*
X147588Y2630680*
X147575Y2630671*
X147364Y2630566*
X147342Y2630561*
X146971*
Y2630450*
X150345*
Y2630561*
X149974*
X149951Y2630566*
X149741Y2630671*
X149728Y2630680*
X149517Y2630891*
X149508Y2630904*
X149403Y2631114*
X149397Y2631137*
Y2633663*
X149447Y2633713*
X150496*
X151119Y2633817*
X151739Y2634024*
X152251Y2634433*
X152558Y2634944*
X152660Y2635558*
X151076Y2635551D02*
X150971Y2634814D01*
X150966Y2634799*
X150755Y2634378*
X150741Y2634360*
X150319Y2634044*
X150298Y2634035*
X149666Y2633930*
X149658Y2633929*
X149447*
X149397Y2633979*
Y2637137*
X149447Y2637187*
X149658*
X149666Y2637186*
X150298Y2637081*
X150319Y2637072*
X150741Y2636756*
X150755Y2636738*
X150966Y2636317*
X150971Y2636302*
X151076Y2635565*
Y2635551*
X146450Y2637403D02*
X142971D01*
Y2637292*
X143132*
X143144Y2637291*
X143565Y2637185*
X143580Y2637178*
X143896Y2636968*
X143918Y2636926*
Y2634189*
X143868Y2634139*
X141342*
X141292Y2634189*
Y2636716*
X141297Y2636738*
X141508Y2637159*
X141543Y2637186*
X142069Y2637291*
X142079Y2637292*
X142239*
Y2637403*
X138761*
Y2637292*
X138921*
X138933Y2637291*
X139354Y2637185*
X139370Y2637178*
X139686Y2636968*
X139708Y2636926*
Y2631137*
X139703Y2631114*
X139492Y2630693*
X139457Y2630667*
X138931Y2630561*
X138931D02*
X138921D01*
X138761*
Y2630450*
X142239*
Y2630561*
X142079*
X142067Y2630562*
X141646Y2630667*
X141623Y2630680*
X141412Y2630891*
X141403Y2630904*
X141297Y2631114*
X141292Y2631137*
Y2633768*
X141342Y2633818*
X143868*
X143918Y2633768*
Y2631137*
X143913Y2631114*
X143703Y2630693*
X143668Y2630667*
X143141Y2630561*
X143141D02*
X143132D01*
X142971*
Y2630450*
X146450*
Y2630561*
X146289*
X146277Y2630562*
X145856Y2630667*
X145833Y2630680*
X145623Y2630891*
X145613Y2630904*
X145508Y2631114*
X145503Y2631137*
Y2636716*
X145508Y2636738*
X145718Y2637159*
X145753Y2637186*
X146280Y2637291*
X146289Y2637292*
X146450*
Y2637403*
X138800Y2630450D02*
Y2630561D01*
Y2637292D02*
Y2637403D01*
X138900Y2630450D02*
Y2630561D01*
Y2637292D02*
Y2637403D01*
X139000Y2630450D02*
Y2630575D01*
Y2637274D02*
Y2637403D01*
X139100Y2630450D02*
Y2630595D01*
Y2637249D02*
Y2637403D01*
X139200Y2630450D02*
Y2630615D01*
Y2637224D02*
Y2637403D01*
X139300Y2630450D02*
Y2630635D01*
Y2637199D02*
Y2637403D01*
X139400Y2630450D02*
Y2630655D01*
Y2637158D02*
Y2637403D01*
X139500Y2630450D02*
Y2630709D01*
Y2637092D02*
Y2637403D01*
X139600Y2630450D02*
Y2630909D01*
Y2637025D02*
Y2637403D01*
X139700Y2630450D02*
Y2631109D01*
Y2636953D02*
Y2637403D01*
X139800Y2630450D02*
Y2637403D01*
X139900Y2630450D02*
Y2637403D01*
X140000Y2630450D02*
Y2637403D01*
X140100Y2630450D02*
Y2637403D01*
X140200Y2630450D02*
Y2637403D01*
X140300Y2630450D02*
Y2637403D01*
X140400Y2630450D02*
Y2637403D01*
X140500Y2630450D02*
Y2637403D01*
X140600Y2630450D02*
Y2637403D01*
X140700Y2630450D02*
Y2637403D01*
X140800Y2630450D02*
Y2637403D01*
X140900Y2630450D02*
Y2637403D01*
X141000Y2630450D02*
Y2637403D01*
X141100Y2630450D02*
Y2637403D01*
X141200Y2630450D02*
Y2637403D01*
X141300Y2630450D02*
Y2631109D01*
Y2633795D02*
Y2634163D01*
Y2636743D02*
Y2637403D01*
X141400Y2630450D02*
Y2630909D01*
Y2633818D02*
Y2634139D01*
Y2636943D02*
Y2637403D01*
X141500Y2630450D02*
Y2630803D01*
Y2633818D02*
Y2634139D01*
Y2637143D02*
Y2637403D01*
X141600Y2630450D02*
Y2630703D01*
Y2633818D02*
Y2634139D01*
Y2637197D02*
Y2637403D01*
X141700Y2630450D02*
Y2630654D01*
Y2633818D02*
Y2634139D01*
Y2637217D02*
Y2637403D01*
X141800Y2630450D02*
Y2630629D01*
Y2633818D02*
Y2634139D01*
Y2637237D02*
Y2637403D01*
X141900Y2630450D02*
Y2630604D01*
Y2633818D02*
Y2634139D01*
Y2637257D02*
Y2637403D01*
X142000Y2630450D02*
Y2630579D01*
Y2633818D02*
Y2634139D01*
Y2637277D02*
Y2637403D01*
X142100Y2630450D02*
Y2630561D01*
Y2633818D02*
Y2634139D01*
Y2637292D02*
Y2637403D01*
X142200Y2630450D02*
Y2630561D01*
Y2633818D02*
Y2634139D01*
Y2637292D02*
Y2637403D01*
X142300Y2633818D02*
Y2634139D01*
X142400Y2633818D02*
Y2634139D01*
X142500Y2633818D02*
Y2634139D01*
X142600Y2633818D02*
Y2634139D01*
X142700Y2633818D02*
Y2634139D01*
X142800Y2633818D02*
Y2634139D01*
X142900Y2633818D02*
Y2634139D01*
X143000Y2630450D02*
Y2630561D01*
Y2633818D02*
Y2634139D01*
Y2637292D02*
Y2637403D01*
X143100Y2630450D02*
Y2630561D01*
Y2633818D02*
Y2634139D01*
Y2637292D02*
Y2637403D01*
X143200Y2630450D02*
Y2630573D01*
Y2633818D02*
Y2634139D01*
Y2637277D02*
Y2637403D01*
X143300Y2630450D02*
Y2630593D01*
Y2633818D02*
Y2634139D01*
Y2637252D02*
Y2637403D01*
X143400Y2630450D02*
Y2630613D01*
Y2633818D02*
Y2634139D01*
Y2637227D02*
Y2637403D01*
X143500Y2630450D02*
Y2630633D01*
Y2633818D02*
Y2634139D01*
Y2637202D02*
Y2637403D01*
X143600Y2630450D02*
Y2630653D01*
Y2633818D02*
Y2634139D01*
Y2637165D02*
Y2637403D01*
X143700Y2630450D02*
Y2630689D01*
Y2633818D02*
Y2634139D01*
Y2637099D02*
Y2637403D01*
X143800Y2630450D02*
Y2630888D01*
Y2633818D02*
Y2634139D01*
Y2637032D02*
Y2637403D01*
X143900Y2630450D02*
Y2631088D01*
Y2633807D02*
Y2634151D01*
Y2636965D02*
Y2637403D01*
X144000Y2630450D02*
Y2637403D01*
X144100Y2630450D02*
Y2637403D01*
X144200Y2630450D02*
Y2637403D01*
X144300Y2630450D02*
Y2637403D01*
X144400Y2630450D02*
Y2637403D01*
X144500Y2630450D02*
Y2637403D01*
X144600Y2630450D02*
Y2637403D01*
X144700Y2630450D02*
Y2637403D01*
X144800Y2630450D02*
Y2637403D01*
X144900Y2630450D02*
Y2637403D01*
X145000Y2630450D02*
Y2637403D01*
X145100Y2630450D02*
Y2637403D01*
X145200Y2630450D02*
Y2637403D01*
X145300Y2630450D02*
Y2637403D01*
X145400Y2630450D02*
Y2637403D01*
X145500Y2630450D02*
Y2637403D01*
X145600Y2630450D02*
Y2630930D01*
Y2636922D02*
Y2637403D01*
X145700Y2630450D02*
Y2630814D01*
Y2637122D02*
Y2637403D01*
X145800Y2630450D02*
Y2630714D01*
Y2637195D02*
Y2637403D01*
X145900Y2630450D02*
Y2630656D01*
Y2637215D02*
Y2637403D01*
X146000Y2630450D02*
Y2630631D01*
Y2637235D02*
Y2637403D01*
X146100Y2630450D02*
Y2630606D01*
Y2637255D02*
Y2637403D01*
X146200Y2630450D02*
Y2630581D01*
Y2637275D02*
Y2637403D01*
X146300Y2630450D02*
Y2630561D01*
Y2637292D02*
Y2637403D01*
X146400Y2630450D02*
Y2630561D01*
Y2637292D02*
Y2637403D01*
X147000Y2630450D02*
Y2630561D01*
Y2637292D02*
Y2637403D01*
X147100Y2630450D02*
Y2630561D01*
Y2637292D02*
Y2637403D01*
X147200Y2630450D02*
Y2630561D01*
Y2637292D02*
Y2637403D01*
X147300Y2630450D02*
Y2630561D01*
Y2637292D02*
Y2637403D01*
X147400Y2630450D02*
Y2630584D01*
Y2637269D02*
Y2637403D01*
X147500Y2630450D02*
Y2630634D01*
Y2637219D02*
Y2637403D01*
X147600Y2630450D02*
Y2630692D01*
Y2637160D02*
Y2637403D01*
X147700Y2630450D02*
Y2630792D01*
Y2637060D02*
Y2637403D01*
X147800Y2630450D02*
Y2630893D01*
Y2636960D02*
Y2637403D01*
X147900Y2630450D02*
Y2631088D01*
Y2636764D02*
Y2637403D01*
X148000Y2630450D02*
Y2637403D01*
X148100Y2630450D02*
Y2637403D01*
X148200Y2630450D02*
Y2637403D01*
X148300Y2630450D02*
Y2637403D01*
X148400Y2630450D02*
Y2637403D01*
X148500Y2630450D02*
Y2637403D01*
X148600Y2630450D02*
Y2637403D01*
X148700Y2630450D02*
Y2637403D01*
X148800Y2630450D02*
Y2637403D01*
X148900Y2630450D02*
Y2637403D01*
X149000Y2630450D02*
Y2637403D01*
X149100Y2630450D02*
Y2637403D01*
X149200Y2630450D02*
Y2637403D01*
X149300Y2630450D02*
Y2637403D01*
X149400Y2630450D02*
Y2631121D01*
Y2633679D02*
Y2633963D01*
Y2637153D02*
Y2637403D01*
X149500Y2630450D02*
Y2630920D01*
Y2633713D02*
Y2633929D01*
Y2637187D02*
Y2637403D01*
X149600Y2630450D02*
Y2630808D01*
Y2633713D02*
Y2633929D01*
Y2637187D02*
Y2637403D01*
X149700Y2630450D02*
Y2630708D01*
Y2633713D02*
Y2633935D01*
Y2637181D02*
Y2637403D01*
X149800Y2630450D02*
Y2630641D01*
Y2633713D02*
Y2633952D01*
Y2637164D02*
Y2637403D01*
X149900Y2630450D02*
Y2630591D01*
Y2633713D02*
Y2633969D01*
Y2637147D02*
Y2637403D01*
X150000Y2630450D02*
Y2630561D01*
Y2633713D02*
Y2633985D01*
Y2637131D02*
Y2637403D01*
X150100Y2630450D02*
Y2630561D01*
Y2633713D02*
Y2634002D01*
Y2637114D02*
Y2637403D01*
X150200Y2630450D02*
Y2630561D01*
Y2633713D02*
Y2634019D01*
Y2637097D02*
Y2637403D01*
X150300Y2630450D02*
Y2630561D01*
Y2633713D02*
Y2634035D01*
Y2637080D02*
Y2637403D01*
X150400Y2633713D02*
Y2634105D01*
Y2637011D02*
Y2637403D01*
X150500Y2633714D02*
Y2634180D01*
Y2636936D02*
Y2637403D01*
X150600Y2633731D02*
Y2634255D01*
Y2636861D02*
Y2637403D01*
X150700Y2633747D02*
Y2634330D01*
Y2636786D02*
Y2637386D01*
X150800Y2633764D02*
Y2634467D01*
Y2636649D02*
Y2637369D01*
X150900Y2633781D02*
Y2634667D01*
Y2636449D02*
Y2637353D01*
X151000Y2633797D02*
Y2635020D01*
Y2636096D02*
Y2637336D01*
X151100Y2633814D02*
Y2637319D01*
X151200Y2633844D02*
Y2637303D01*
X151300Y2633877D02*
Y2637260D01*
X151400Y2633911D02*
Y2637210D01*
X151500Y2633944D02*
Y2637160D01*
X151600Y2633977D02*
Y2637110D01*
X151700Y2634011D02*
Y2637060D01*
X151800Y2634072D02*
Y2637010D01*
X151900Y2634152D02*
Y2636960D01*
X152000Y2634232D02*
Y2636910D01*
X152100Y2634312D02*
Y2636823D01*
X152200Y2634392D02*
Y2636703D01*
X152300Y2634515D02*
Y2636583D01*
X152400Y2634681D02*
Y2636463D01*
X152500Y2634848D02*
Y2636343D01*
X152600Y2635199D02*
Y2635978D01*
X153700Y2630345D02*
Y2632876D01*
Y2635175D02*
Y2635892D01*
X153800Y2630480D02*
Y2632629D01*
Y2634775D02*
Y2636242D01*
X153900Y2630680D02*
Y2632296D01*
Y2634617D02*
Y2636410D01*
X154000Y2630777D02*
Y2631963D01*
Y2634483D02*
Y2636560D01*
X154100Y2630811D02*
Y2631770D01*
Y2634350D02*
Y2636710D01*
X154200Y2630844D02*
Y2631650D01*
Y2634266D02*
Y2636860D01*
X154300Y2630870D02*
Y2631530D01*
Y2634191D02*
Y2636948D01*
X154400Y2630845D02*
Y2631410D01*
Y2634116D02*
Y2637019D01*
X154500Y2630820D02*
Y2631290D01*
Y2634041D02*
Y2637090D01*
X154600Y2630795D02*
Y2631184D01*
Y2633963D02*
Y2637162D01*
X154700Y2630770D02*
Y2631113D01*
Y2633883D02*
Y2636131D01*
Y2636421D02*
Y2637233D01*
X154800Y2630732D02*
Y2631042D01*
Y2633803D02*
Y2635819D01*
Y2636677D02*
Y2637305D01*
X154900Y2630689D02*
Y2630970D01*
Y2633723D02*
Y2635719D01*
Y2636827D02*
Y2637376D01*
X155000Y2630646D02*
Y2630899D01*
Y2633643D02*
Y2635619D01*
Y2636969D02*
Y2637412D01*
X155100Y2630603D02*
Y2630827D01*
Y2633577D02*
Y2635519D01*
Y2637036D02*
Y2637425D01*
X155200Y2630560D02*
Y2630756D01*
Y2633527D02*
Y2635419D01*
Y2637102D02*
Y2637437D01*
X155300Y2630518D02*
Y2630684D01*
Y2633477D02*
Y2635319D01*
Y2637169D02*
Y2637450D01*
X155400Y2630475D02*
Y2630657D01*
Y2633427D02*
Y2635263D01*
Y2637199D02*
Y2637462D01*
X155500Y2630442D02*
Y2630643D01*
Y2633377D02*
Y2635213D01*
Y2637219D02*
Y2637475D01*
X155600Y2630425D02*
Y2630628D01*
Y2633327D02*
Y2635163D01*
Y2637239D02*
Y2637487D01*
X155700Y2630409D02*
Y2630614D01*
Y2633277D02*
Y2635113D01*
Y2637259D02*
Y2637500D01*
X155800Y2630392D02*
Y2630600D01*
Y2633227D02*
Y2635063D01*
Y2637279D02*
Y2637501D01*
X155900Y2630375D02*
Y2630586D01*
Y2633176D02*
Y2635013D01*
Y2637288D02*
Y2637484D01*
X156000Y2630359D02*
Y2630571D01*
Y2633116D02*
Y2634963D01*
Y2637271D02*
Y2637468D01*
X156100Y2630347D02*
Y2630564D01*
Y2633056D02*
Y2634913D01*
Y2637254D02*
Y2637451D01*
X156200Y2630358D02*
Y2630584D01*
Y2632996D02*
Y2634863D01*
Y2637238D02*
Y2637434D01*
X156300Y2630370D02*
Y2630604D01*
Y2632936D02*
Y2634813D01*
Y2637221D02*
Y2637418D01*
X156400Y2630381D02*
Y2630624D01*
Y2632876D02*
Y2634763D01*
Y2637204D02*
Y2637398D01*
X156500Y2630392D02*
Y2630644D01*
Y2632824D02*
Y2634713D01*
Y2637188D02*
Y2637365D01*
X156600Y2630403D02*
Y2630664D01*
Y2632774D02*
Y2634663D01*
Y2637130D02*
Y2637332D01*
X156700Y2630414D02*
Y2630707D01*
Y2632724D02*
Y2634613D01*
Y2637064D02*
Y2637298D01*
X156800Y2630425D02*
Y2630757D01*
Y2632674D02*
Y2634563D01*
Y2636997D02*
Y2637265D01*
X156900Y2630436D02*
Y2630807D01*
Y2632597D02*
Y2634513D01*
Y2636930D02*
Y2637232D01*
X157000Y2630447D02*
Y2630857D01*
Y2632497D02*
Y2634462D01*
Y2636864D02*
Y2637198D01*
X157100Y2630505D02*
Y2630947D01*
Y2632397D02*
Y2634387D01*
Y2636797D02*
Y2637133D01*
X157200Y2630568D02*
Y2631097D01*
Y2632297D02*
Y2634312D01*
Y2636712D02*
Y2637066D01*
X157300Y2630630D02*
Y2631289D01*
Y2632129D02*
Y2634237D01*
Y2636592D02*
Y2637000D01*
X157400Y2630693D02*
Y2634162D01*
Y2636472D02*
Y2636982D01*
X157500Y2630755D02*
Y2634081D01*
Y2636352D02*
Y2636982D01*
X157600Y2630818D02*
Y2633997D01*
Y2636232D02*
Y2636999D01*
X157700Y2630880D02*
Y2633914D01*
Y2636111D02*
Y2637049D01*
X157800Y2630943D02*
Y2633831D01*
Y2635722D02*
Y2637103D01*
X157900Y2631064D02*
Y2633747D01*
Y2635322D02*
Y2637495D01*
X158000Y2631214D02*
Y2633664D01*
Y2635292D02*
Y2637508D01*
X158100Y2631364D02*
Y2633509D01*
X158200Y2631514D02*
Y2633309D01*
X158300Y2631806D02*
Y2633109D01*
X158400Y2632206D02*
Y2632696D01*
X159400Y2633700D02*
Y2633837D01*
X159500Y2632823D02*
Y2634711D01*
X159600Y2632556D02*
Y2634936D01*
X159700Y2632290D02*
Y2635161D01*
X159800Y2632023D02*
Y2635386D01*
X159900Y2631896D02*
Y2635611D01*
X160000Y2631779D02*
Y2635755D01*
X160100Y2631663D02*
Y2635889D01*
X160200Y2631546D02*
Y2636022D01*
X160300Y2631429D02*
Y2636155D01*
X160400Y2631313D02*
Y2636289D01*
X160500Y2631228D02*
Y2636422D01*
X160600Y2631157D02*
Y2636515D01*
X160700Y2631086D02*
Y2636587D01*
X160800Y2631014D02*
Y2636658D01*
X160900Y2630943D02*
Y2636730D01*
X161000Y2630871D02*
Y2636801D01*
X161100Y2630800D02*
Y2636872D01*
X161200Y2630746D02*
Y2633871D01*
Y2634100D02*
Y2636944D01*
X161300Y2630712D02*
Y2633071D01*
Y2634964D02*
Y2637005D01*
X161400Y2630679D02*
Y2632279D01*
Y2635364D02*
Y2637049D01*
X161500Y2630646D02*
Y2632045D01*
Y2635764D02*
Y2637094D01*
X161600Y2630612D02*
Y2631812D01*
Y2635945D02*
Y2637138D01*
X161700Y2630579D02*
Y2631578D01*
Y2636111D02*
Y2637183D01*
X161800Y2630546D02*
Y2631450D01*
Y2636278D02*
Y2637227D01*
X161900Y2630512D02*
Y2631350D01*
Y2636384D02*
Y2637272D01*
X162000Y2630479D02*
Y2631250D01*
Y2636464D02*
Y2637316D01*
X162100Y2630448D02*
Y2631150D01*
Y2636544D02*
Y2637360D01*
X162200Y2630438D02*
Y2631069D01*
Y2636624D02*
Y2637404D01*
X162300Y2630428D02*
Y2631009D01*
Y2636704D02*
Y2637415D01*
X162400Y2630418D02*
Y2630949D01*
Y2636777D02*
Y2637426D01*
X162500Y2630408D02*
Y2630889D01*
Y2636837D02*
Y2637437D01*
X162600Y2630398D02*
Y2630829D01*
Y2636897D02*
Y2637449D01*
X162700Y2630388D02*
Y2630772D01*
Y2636957D02*
Y2637460D01*
X162800Y2630378D02*
Y2630758D01*
Y2637017D02*
Y2637471D01*
X162900Y2630368D02*
Y2630743D01*
Y2637077D02*
Y2637482D01*
X163000Y2630358D02*
Y2630729D01*
Y2637095D02*
Y2637493D01*
X163100Y2630348D02*
Y2630715D01*
Y2637112D02*
Y2637504D01*
X163200Y2630355D02*
Y2630701D01*
Y2637129D02*
Y2637499D01*
X163300Y2630369D02*
Y2630686D01*
Y2637145D02*
Y2637486D01*
X163400Y2630384D02*
Y2630672D01*
Y2637162D02*
Y2637474D01*
X163500Y2630398D02*
Y2630674D01*
Y2637179D02*
Y2637461D01*
X163600Y2630412D02*
Y2630691D01*
Y2637181D02*
Y2637449D01*
X163700Y2630426D02*
Y2630707D01*
Y2637166D02*
Y2637436D01*
X163800Y2630441D02*
Y2630724D01*
Y2637152D02*
Y2637424D01*
X163900Y2630455D02*
Y2630741D01*
Y2637138D02*
Y2637411D01*
X164000Y2630469D02*
Y2630757D01*
Y2637123D02*
Y2637393D01*
X164100Y2630484D02*
Y2630776D01*
Y2637109D02*
Y2637365D01*
X164200Y2630498D02*
Y2630816D01*
Y2637095D02*
Y2637336D01*
X164300Y2630512D02*
Y2630856D01*
Y2637080D02*
Y2637307D01*
X164400Y2630526D02*
Y2630896D01*
Y2637018D02*
Y2637279D01*
X164500Y2630541D02*
Y2630936D01*
Y2636951D02*
Y2637250D01*
X164600Y2630565D02*
Y2630976D01*
Y2636885D02*
Y2637222D01*
X164700Y2630645D02*
Y2631023D01*
Y2636818D02*
Y2637191D01*
X164800Y2630725D02*
Y2631073D01*
Y2636751D02*
Y2637141D01*
X164900Y2630805D02*
Y2631123D01*
Y2636685D02*
Y2637091D01*
X165000Y2630885D02*
Y2631173D01*
Y2636594D02*
Y2637041D01*
X165100Y2630965D02*
Y2631223D01*
Y2636474D02*
Y2636991D01*
X165200Y2631032D02*
Y2631273D01*
Y2636354D02*
Y2636982D01*
X165300Y2631099D02*
Y2631345D01*
Y2636234D02*
Y2636982D01*
X165400Y2631165D02*
Y2631465D01*
Y2636114D02*
Y2636998D01*
X165500Y2631232D02*
Y2631585D01*
Y2635981D02*
Y2637032D01*
X165600Y2631299D02*
Y2631705D01*
Y2635714D02*
Y2637065D01*
X165700Y2631365D02*
Y2631825D01*
Y2635448D02*
Y2637110D01*
X165800Y2635187D02*
Y2637499D01*
X165900Y2635187D02*
Y2637508D01*
X166500Y2628134D02*
Y2628771D01*
X166600Y2628134D02*
Y2628771D01*
X166700Y2628134D02*
Y2628771D01*
X166800Y2628134D02*
Y2628771D01*
X166900Y2628134D02*
Y2628771D01*
X167000Y2628134D02*
Y2628771D01*
X167100Y2628134D02*
Y2628771D01*
X167200Y2628134D02*
Y2628771D01*
X167300Y2628134D02*
Y2628771D01*
X167400Y2628134D02*
Y2628771D01*
X167500Y2628134D02*
Y2628771D01*
X167600Y2628134D02*
Y2628771D01*
X167700Y2628134D02*
Y2628771D01*
X167800Y2628134D02*
Y2628771D01*
X167900Y2628134D02*
Y2628771D01*
X168000Y2628134D02*
Y2628771D01*
X168100Y2628134D02*
Y2628771D01*
X168200Y2628134D02*
Y2628771D01*
X168300Y2628134D02*
Y2628771D01*
X168400Y2628134D02*
Y2628771D01*
X168500Y2628134D02*
Y2628771D01*
X168600Y2628134D02*
Y2628771D01*
X168700Y2628134D02*
Y2628771D01*
X168800Y2628134D02*
Y2628771D01*
X168900Y2628134D02*
Y2628771D01*
X169000Y2628134D02*
Y2628771D01*
X169100Y2628134D02*
Y2628771D01*
X169200Y2628134D02*
Y2628771D01*
X169300Y2628134D02*
Y2628771D01*
X169400Y2628134D02*
Y2628771D01*
X169500Y2628134D02*
Y2628771D01*
X169600Y2628134D02*
Y2628771D01*
X169700Y2628134D02*
Y2628771D01*
X169800Y2628134D02*
Y2628771D01*
X169900Y2628134D02*
Y2628771D01*
X170000Y2628134D02*
Y2628771D01*
X170100Y2628134D02*
Y2628771D01*
X170200Y2628134D02*
Y2628771D01*
X170300Y2628134D02*
Y2628771D01*
X170400Y2628134D02*
Y2628771D01*
X170500Y2628134D02*
Y2628771D01*
X170600Y2628134D02*
Y2628771D01*
X170700Y2628134D02*
Y2628771D01*
X170800Y2628134D02*
Y2628771D01*
X170900Y2628134D02*
Y2628771D01*
X171000Y2628134D02*
Y2628771D01*
X171100Y2628134D02*
Y2628771D01*
X171200Y2628134D02*
Y2628771D01*
X171300Y2628134D02*
Y2628771D01*
X171400Y2628134D02*
Y2628771D01*
X171500Y2628134D02*
Y2628771D01*
X171600Y2628134D02*
Y2628771D01*
X171700Y2628134D02*
Y2628771D01*
X171800Y2628134D02*
Y2628771D01*
X172200Y2632643D02*
Y2633916D01*
X172300Y2632177D02*
Y2634450D01*
X172400Y2631827D02*
Y2634700D01*
X172500Y2631564D02*
Y2634950D01*
X172600Y2631364D02*
Y2635200D01*
X172700Y2631164D02*
Y2635380D01*
X172800Y2631024D02*
Y2635494D01*
X172900Y2630944D02*
Y2635608D01*
X173000Y2630864D02*
Y2635723D01*
X173100Y2630784D02*
Y2635837D01*
X173200Y2630704D02*
Y2635951D01*
X173300Y2630639D02*
Y2636065D01*
X173400Y2630599D02*
Y2636174D01*
X173500Y2630559D02*
Y2636261D01*
X173600Y2630519D02*
Y2636349D01*
X173700Y2630479D02*
Y2631846D01*
Y2634155D02*
Y2636436D01*
X173800Y2630445D02*
Y2631436D01*
Y2634195D02*
Y2634465D01*
Y2634816D02*
Y2636524D01*
X173900Y2630428D02*
Y2631186D01*
Y2634235D02*
Y2634498D01*
Y2635166D02*
Y2636611D01*
X174000Y2630411D02*
Y2631007D01*
Y2634275D02*
Y2634532D01*
Y2635479D02*
Y2636699D01*
X174100Y2630395D02*
Y2630857D01*
Y2634315D02*
Y2634563D01*
Y2635779D02*
Y2636786D01*
X174200Y2630378D02*
Y2630678D01*
Y2634342D02*
Y2634577D01*
Y2635973D02*
Y2636874D01*
X174300Y2630361D02*
Y2630561D01*
Y2634309D02*
Y2634592D01*
Y2636098D02*
Y2636915D01*
X174400Y2630346D02*
Y2630561D01*
Y2634276D02*
Y2634606D01*
Y2636223D02*
Y2636952D01*
X174500Y2630363D02*
Y2630561D01*
Y2634242D02*
Y2634620D01*
Y2636348D02*
Y2636988D01*
X174600Y2630380D02*
Y2630591D01*
Y2634183D02*
Y2634634D01*
Y2636460D02*
Y2637024D01*
X174700Y2630396D02*
Y2630624D01*
Y2634116D02*
Y2634649D01*
Y2636540D02*
Y2637061D01*
X174800Y2630413D02*
Y2630658D01*
Y2634050D02*
Y2634663D01*
Y2636620D02*
Y2637097D01*
X174900Y2630430D02*
Y2630772D01*
Y2633884D02*
Y2634653D01*
Y2636700D02*
Y2637133D01*
X175000Y2630446D02*
Y2630955D01*
Y2633523D02*
Y2634639D01*
Y2636780D02*
Y2637170D01*
X175100Y2630483D02*
Y2631105D01*
Y2633023D02*
Y2634625D01*
Y2636860D02*
Y2637206D01*
X175200Y2630523D02*
Y2634610D01*
Y2636911D02*
Y2637242D01*
X175300Y2630563D02*
Y2634596D01*
Y2636961D02*
Y2637279D01*
X175400Y2630603D02*
Y2634582D01*
Y2637011D02*
Y2637306D01*
X175500Y2630643D02*
Y2634568D01*
Y2637061D02*
Y2637323D01*
X175600Y2630709D02*
Y2634509D01*
Y2637111D02*
Y2637340D01*
X175700Y2630784D02*
Y2634429D01*
Y2637161D02*
Y2637356D01*
X175800Y2630859D02*
Y2634349D01*
Y2637204D02*
Y2637373D01*
X175900Y2630934D02*
Y2634269D01*
Y2637242D02*
Y2637390D01*
X176000Y2631067D02*
Y2634189D01*
Y2637279D02*
Y2637406D01*
X176100Y2631234D02*
Y2634068D01*
Y2637317D02*
Y2637423D01*
X176200Y2631401D02*
Y2633918D01*
Y2637354D02*
Y2637440D01*
X176300Y2631614D02*
Y2633768D01*
Y2637392D02*
Y2637456D01*
X176400Y2631864D02*
Y2633618D01*
Y2637429D02*
Y2637473D01*
X176500Y2632333D02*
Y2633155D01*
Y2637467D02*
Y2637490D01*
X177600Y2630942D02*
Y2631541D01*
X177700Y2630645D02*
Y2631736D01*
X177800Y2628726D02*
Y2628865D01*
Y2630595D02*
Y2631803D01*
X177900Y2628769D02*
Y2628940D01*
Y2630545D02*
Y2631870D01*
X178000Y2628812D02*
Y2629015D01*
Y2630495D02*
Y2631935D01*
X178100Y2628854D02*
Y2629090D01*
Y2630460D02*
Y2631968D01*
X178200Y2628897D02*
Y2629187D01*
Y2630493D02*
Y2632002D01*
X178300Y2628940D02*
Y2629287D01*
Y2630526D02*
Y2632030D01*
X178400Y2629002D02*
Y2629387D01*
Y2630555D02*
Y2632005D01*
X178500Y2629102D02*
Y2629551D01*
Y2630555D02*
Y2631980D01*
X178600Y2629202D02*
Y2629751D01*
Y2630555D02*
Y2631955D01*
X178700Y2629302D02*
Y2631926D01*
X178800Y2629402D02*
Y2631859D01*
X178900Y2629522D02*
Y2631793D01*
X179000Y2629722D02*
Y2631709D01*
X179100Y2629922D02*
Y2631509D01*
X179200Y2630180D02*
Y2631277D01*
X182600Y2630450D02*
Y2630561D01*
Y2637292D02*
Y2637403D01*
X182700Y2630450D02*
Y2630561D01*
Y2637292D02*
Y2637403D01*
X182800Y2630450D02*
Y2630577D01*
Y2637275D02*
Y2637403D01*
X182900Y2630450D02*
Y2630597D01*
Y2637255D02*
Y2637403D01*
X183000Y2630450D02*
Y2630617D01*
Y2637235D02*
Y2637403D01*
X183100Y2630450D02*
Y2630637D01*
Y2637215D02*
Y2637403D01*
X183200Y2630450D02*
Y2630657D01*
Y2637195D02*
Y2637403D01*
X183300Y2630450D02*
Y2630730D01*
Y2637132D02*
Y2637403D01*
X183400Y2630450D02*
Y2630930D01*
Y2636982D02*
Y2637403D01*
X183500Y2630450D02*
Y2637403D01*
X183600Y2630450D02*
Y2637403D01*
X183700Y2630450D02*
Y2637403D01*
X183800Y2630450D02*
Y2637403D01*
X183900Y2630450D02*
Y2637403D01*
X184000Y2630450D02*
Y2637403D01*
X184100Y2630450D02*
Y2637403D01*
X184200Y2630450D02*
Y2637403D01*
X184300Y2630450D02*
Y2637403D01*
X184400Y2630450D02*
Y2637403D01*
X184500Y2630450D02*
Y2637403D01*
X184600Y2630450D02*
Y2637403D01*
X184700Y2630450D02*
Y2637403D01*
X184800Y2630450D02*
Y2637403D01*
X184900Y2630450D02*
Y2637403D01*
X185000Y2630450D02*
Y2637403D01*
X185100Y2630450D02*
Y2631193D01*
Y2633807D02*
Y2634045D01*
Y2637070D02*
Y2637403D01*
X185200Y2630450D02*
Y2630993D01*
Y2633818D02*
Y2634034D01*
Y2637082D02*
Y2637403D01*
X185300Y2630450D02*
Y2630794D01*
Y2633818D02*
Y2634044D01*
Y2637082D02*
Y2637403D01*
X185400Y2630450D02*
Y2630755D01*
Y2633818D02*
Y2634061D01*
Y2637082D02*
Y2637403D01*
X185500Y2630450D02*
Y2630730D01*
Y2633818D02*
Y2634077D01*
Y2637082D02*
Y2637403D01*
X185600Y2630450D02*
Y2630705D01*
Y2633805D02*
Y2634094D01*
Y2637082D02*
Y2637403D01*
X185700Y2630450D02*
Y2630680D01*
Y2633772D02*
Y2634111D01*
Y2637082D02*
Y2637403D01*
X185800Y2630450D02*
Y2630666D01*
Y2633739D02*
Y2634127D01*
Y2637082D02*
Y2637403D01*
X185900Y2630450D02*
Y2630666D01*
Y2633702D02*
Y2634151D01*
Y2637082D02*
Y2637403D01*
X186000Y2630450D02*
Y2630666D01*
Y2633636D02*
Y2634250D01*
Y2637082D02*
Y2637403D01*
X186100Y2630450D02*
Y2630666D01*
Y2633569D02*
Y2634350D01*
Y2637082D02*
Y2637403D01*
X186200Y2630450D02*
Y2630666D01*
Y2633502D02*
Y2634450D01*
Y2637082D02*
Y2637403D01*
X186300Y2630450D02*
Y2630667D01*
Y2633369D02*
Y2634601D01*
Y2637082D02*
Y2637403D01*
X186400Y2630450D02*
Y2630679D01*
Y2633219D02*
Y2634768D01*
Y2637082D02*
Y2637403D01*
X186500Y2630450D02*
Y2630692D01*
Y2632865D02*
Y2634934D01*
Y2637082D02*
Y2637403D01*
X186600Y2630450D02*
Y2630704D01*
Y2632365D02*
Y2635378D01*
Y2637082D02*
Y2637403D01*
X186700Y2630450D02*
Y2630717D01*
Y2632134D02*
Y2635718D01*
Y2637059D02*
Y2637403D01*
X186800Y2630450D02*
Y2630729D01*
Y2637034D02*
Y2637403D01*
X186900Y2630450D02*
Y2630742D01*
Y2637009D02*
Y2637403D01*
X187000Y2630450D02*
Y2630754D01*
Y2636984D02*
Y2637403D01*
X187100Y2630450D02*
Y2630767D01*
Y2636945D02*
Y2637403D01*
X187200Y2630450D02*
Y2630803D01*
Y2636895D02*
Y2637403D01*
X187300Y2630450D02*
Y2630860D01*
Y2636845D02*
Y2637403D01*
X187400Y2630450D02*
Y2630917D01*
Y2636795D02*
Y2637403D01*
X187500Y2630450D02*
Y2630974D01*
Y2636734D02*
Y2637403D01*
X187600Y2630450D02*
Y2631031D01*
Y2636634D02*
Y2637403D01*
X187700Y2630450D02*
Y2631088D01*
Y2636534D02*
Y2637403D01*
X187800Y2630450D02*
Y2631145D01*
Y2636434D02*
Y2637403D01*
X187900Y2630450D02*
Y2631203D01*
Y2636238D02*
Y2637403D01*
X188000Y2630450D02*
Y2631303D01*
Y2636038D02*
Y2637403D01*
X188100Y2630450D02*
Y2631403D01*
Y2635758D02*
Y2637403D01*
X188200Y2630450D02*
Y2631503D01*
Y2635458D02*
Y2637403D01*
X188300Y2630450D02*
Y2631603D01*
Y2635397D02*
Y2637403D01*
X188400Y2630450D02*
Y2631703D01*
X188500Y2630450D02*
Y2631907D01*
X188600Y2630717D02*
Y2632173D01*
X188700Y2631417D02*
Y2632440D01*
X188800Y2632117D02*
Y2632561D01*
X189900Y2632990D02*
Y2634547D01*
X190000Y2632613D02*
Y2634889D01*
X190100Y2632346D02*
Y2635114D01*
X190200Y2632079D02*
Y2635339D01*
X190300Y2631921D02*
Y2635564D01*
X190400Y2631804D02*
Y2635727D01*
X190500Y2631687D02*
Y2635861D01*
X190600Y2631571D02*
Y2635994D01*
X190700Y2631454D02*
Y2636127D01*
X190800Y2631337D02*
Y2636261D01*
X190900Y2631243D02*
Y2636394D01*
X191000Y2631172D02*
Y2636500D01*
X191100Y2631101D02*
Y2636572D01*
X191200Y2631029D02*
Y2636643D01*
X191300Y2630958D02*
Y2636714D01*
X191400Y2630886D02*
Y2636786D01*
X191500Y2630815D02*
Y2636857D01*
X191600Y2630753D02*
Y2636929D01*
X191700Y2630719D02*
Y2633239D01*
Y2634811D02*
Y2636996D01*
X191800Y2630686D02*
Y2632439D01*
Y2635280D02*
Y2637040D01*
X191900Y2630653D02*
Y2632094D01*
Y2635680D02*
Y2637084D01*
X192000Y2630619D02*
Y2631861D01*
Y2635909D02*
Y2637129D01*
X192100Y2630586D02*
Y2631627D01*
Y2636076D02*
Y2637173D01*
X192200Y2630553D02*
Y2631471D01*
Y2636243D02*
Y2637218D01*
X192300Y2630519D02*
Y2631371D01*
Y2636367D02*
Y2637262D01*
X192400Y2630486D02*
Y2631271D01*
Y2636447D02*
Y2637307D01*
X192500Y2630453D02*
Y2631171D01*
Y2636527D02*
Y2637351D01*
X192600Y2630440D02*
Y2631082D01*
Y2636607D02*
Y2637396D01*
X192700Y2630430D02*
Y2631022D01*
Y2636687D02*
Y2637413D01*
X192800Y2630420D02*
Y2630962D01*
Y2636765D02*
Y2637424D01*
X192900Y2630410D02*
Y2630902D01*
Y2636825D02*
Y2637435D01*
X193000Y2630400D02*
Y2630842D01*
Y2636885D02*
Y2637446D01*
X193100Y2630390D02*
Y2630782D01*
Y2636945D02*
Y2637457D01*
X193200Y2630380D02*
Y2630761D01*
Y2637005D02*
Y2637468D01*
X193300Y2630370D02*
Y2630746D01*
Y2637065D02*
Y2637480D01*
X193400Y2630360D02*
Y2630732D01*
Y2637092D02*
Y2637491D01*
X193500Y2630350D02*
Y2630718D01*
Y2637109D02*
Y2637502D01*
X193600Y2630352D02*
Y2630704D01*
Y2637125D02*
Y2637502D01*
X193700Y2630366D02*
Y2630689D01*
Y2637142D02*
Y2637489D01*
X193800Y2630381D02*
Y2630675D01*
Y2637159D02*
Y2637477D01*
X193900Y2630395D02*
Y2630670D01*
Y2637175D02*
Y2637464D01*
X194000Y2630409D02*
Y2630687D01*
Y2637184D02*
Y2637452D01*
X194100Y2630423D02*
Y2630704D01*
Y2637169D02*
Y2637439D01*
X194200Y2630438D02*
Y2630720D01*
Y2637155D02*
Y2637427D01*
X194300Y2630452D02*
Y2630737D01*
Y2637141D02*
Y2637414D01*
X194400Y2630466D02*
Y2630754D01*
Y2637126D02*
Y2637399D01*
X194500Y2630481D02*
Y2630770D01*
Y2637112D02*
Y2637371D01*
X194600Y2630495D02*
Y2630807D01*
Y2637098D02*
Y2637342D01*
X194700Y2630509D02*
Y2630847D01*
Y2637084D02*
Y2637313D01*
X194800Y2630523D02*
Y2630887D01*
Y2637032D02*
Y2637285D01*
X194900Y2630538D02*
Y2630927D01*
Y2636965D02*
Y2637256D01*
X195000Y2630552D02*
Y2630967D01*
Y2636899D02*
Y2637228D01*
X195100Y2630628D02*
Y2631013D01*
Y2636832D02*
Y2637199D01*
X195200Y2630708D02*
Y2631063D01*
Y2636765D02*
Y2637152D01*
X195300Y2630788D02*
Y2631113D01*
Y2636699D02*
Y2637102D01*
X195400Y2630868D02*
Y2631163D01*
Y2636619D02*
Y2637052D01*
X195500Y2630948D02*
Y2631213D01*
Y2636499D02*
Y2637002D01*
X195600Y2631018D02*
Y2631263D01*
Y2636379D02*
Y2636982D01*
X195700Y2631085D02*
Y2631320D01*
Y2636259D02*
Y2636982D01*
X195800Y2631151D02*
Y2631440D01*
Y2636139D02*
Y2636991D01*
X195900Y2631218D02*
Y2631560D01*
Y2636019D02*
Y2637024D01*
X196000Y2631285D02*
Y2631680D01*
Y2635770D02*
Y2637058D01*
X196100Y2631351D02*
Y2631800D01*
Y2635504D02*
Y2637091D01*
X196200Y2635237D02*
Y2637415D01*
X196300Y2635187D02*
Y2637508D01*
X197200Y2630450D02*
Y2630561D01*
Y2637292D02*
Y2637403D01*
X197300Y2630450D02*
Y2630561D01*
Y2637292D02*
Y2637403D01*
X197400Y2630450D02*
Y2630571D01*
Y2637282D02*
Y2637403D01*
X197500Y2630450D02*
Y2630591D01*
Y2637262D02*
Y2637403D01*
X197600Y2630450D02*
Y2630611D01*
Y2637242D02*
Y2637403D01*
X197700Y2630450D02*
Y2630631D01*
Y2637222D02*
Y2637403D01*
X197800Y2630450D02*
Y2630651D01*
Y2637202D02*
Y2637403D01*
X197900Y2630450D02*
Y2630677D01*
Y2637176D02*
Y2637403D01*
X198000Y2630450D02*
Y2630867D01*
Y2637030D02*
Y2637403D01*
X198100Y2630450D02*
Y2631067D01*
Y2636880D02*
Y2637403D01*
X198200Y2630450D02*
Y2637403D01*
X198300Y2630450D02*
Y2637403D01*
X198400Y2630450D02*
Y2637403D01*
X198500Y2630450D02*
Y2637403D01*
X198600Y2630450D02*
Y2637403D01*
X198700Y2630450D02*
Y2637403D01*
X198800Y2630450D02*
Y2637403D01*
X198900Y2630450D02*
Y2637403D01*
X199000Y2630450D02*
Y2637403D01*
X199100Y2630450D02*
Y2637403D01*
X199200Y2630450D02*
Y2637403D01*
X199300Y2630450D02*
Y2637403D01*
X199400Y2630450D02*
Y2637403D01*
X199500Y2630450D02*
Y2637403D01*
X199600Y2630450D02*
Y2637403D01*
X199700Y2630450D02*
Y2637403D01*
X199800Y2630450D02*
Y2631057D01*
Y2633818D02*
Y2634034D01*
Y2637082D02*
Y2637403D01*
X199900Y2630450D02*
Y2630857D01*
Y2633818D02*
Y2634039D01*
Y2637082D02*
Y2637403D01*
X200000Y2630450D02*
Y2630763D01*
Y2633818D02*
Y2634055D01*
Y2637082D02*
Y2637403D01*
X200100Y2630450D02*
Y2630738D01*
Y2633818D02*
Y2634072D01*
Y2637082D02*
Y2637403D01*
X200200Y2630450D02*
Y2630713D01*
Y2633816D02*
Y2634089D01*
Y2637082D02*
Y2637403D01*
X200300Y2630450D02*
Y2630688D01*
Y2633783D02*
Y2634105D01*
Y2637082D02*
Y2637403D01*
X200400Y2630450D02*
Y2630666D01*
Y2633749D02*
Y2634122D01*
Y2637082D02*
Y2637403D01*
X200500Y2630450D02*
Y2630666D01*
Y2633716D02*
Y2634139D01*
Y2637082D02*
Y2637403D01*
X200600Y2630450D02*
Y2630666D01*
Y2633657D02*
Y2634219D01*
Y2637082D02*
Y2637403D01*
X200700Y2630450D02*
Y2630666D01*
Y2633590D02*
Y2634319D01*
Y2637082D02*
Y2637403D01*
X200800Y2630450D02*
Y2630666D01*
Y2633523D02*
Y2634419D01*
Y2637082D02*
Y2637403D01*
X200900Y2630450D02*
Y2630666D01*
Y2633416D02*
Y2634548D01*
Y2637082D02*
Y2637403D01*
X201000Y2630450D02*
Y2630675D01*
Y2633266D02*
Y2634715D01*
Y2637082D02*
Y2637403D01*
X201100Y2630450D02*
Y2630688D01*
Y2633023D02*
Y2634882D01*
Y2637082D02*
Y2637403D01*
X201200Y2630450D02*
Y2630700D01*
Y2632523D02*
Y2635157D01*
Y2637082D02*
Y2637403D01*
X201300Y2630450D02*
Y2630713D01*
Y2632134D02*
Y2635718D01*
Y2637067D02*
Y2637403D01*
X201400Y2630450D02*
Y2630725D01*
Y2637042D02*
Y2637403D01*
X201500Y2630450D02*
Y2630738D01*
Y2637017D02*
Y2637403D01*
X201600Y2630450D02*
Y2630750D01*
Y2636992D02*
Y2637403D01*
X201700Y2630450D02*
Y2630763D01*
Y2636961D02*
Y2637403D01*
X201800Y2630450D02*
Y2630785D01*
Y2636911D02*
Y2637403D01*
X201900Y2630450D02*
Y2630842D01*
Y2636861D02*
Y2637403D01*
X202000Y2630450D02*
Y2630899D01*
Y2636811D02*
Y2637403D01*
X202100Y2630450D02*
Y2630956D01*
Y2636761D02*
Y2637403D01*
X202200Y2630450D02*
Y2631013D01*
Y2636665D02*
Y2637403D01*
X202300Y2630450D02*
Y2631070D01*
Y2636565D02*
Y2637403D01*
X202400Y2630450D02*
Y2631127D01*
Y2636465D02*
Y2637403D01*
X202500Y2630450D02*
Y2631185D01*
Y2636301D02*
Y2637403D01*
X202600Y2630450D02*
Y2631271D01*
Y2636101D02*
Y2637403D01*
X202700Y2630450D02*
Y2631371D01*
Y2635853D02*
Y2637403D01*
X202800Y2630450D02*
Y2631471D01*
Y2635553D02*
Y2637403D01*
X202900Y2630450D02*
Y2631571D01*
Y2635397D02*
Y2637403D01*
X203000Y2630450D02*
Y2631671D01*
X203100Y2630450D02*
Y2631823D01*
X203200Y2630496D02*
Y2632089D01*
X203300Y2631196D02*
Y2632356D01*
X203400Y2631896D02*
Y2632561D01*
X204400Y2632029D02*
Y2633099D01*
X204500Y2632029D02*
Y2633238D01*
X204600Y2632029D02*
Y2632982D01*
Y2633108D02*
Y2633377D01*
X204700Y2632029D02*
Y2632982D01*
Y2633243D02*
Y2633516D01*
X204800Y2632029D02*
Y2632982D01*
Y2633378D02*
Y2633654D01*
X204900Y2632029D02*
Y2632982D01*
Y2633513D02*
Y2633793D01*
X205000Y2632029D02*
Y2632982D01*
Y2633648D02*
Y2633932D01*
X205100Y2632029D02*
Y2632982D01*
Y2633783D02*
Y2634070D01*
X205200Y2632029D02*
Y2632982D01*
Y2633918D02*
Y2634209D01*
X205300Y2632029D02*
Y2632982D01*
Y2634053D02*
Y2634348D01*
X205400Y2632029D02*
Y2632982D01*
Y2634188D02*
Y2634486D01*
X205500Y2632029D02*
Y2632982D01*
Y2634323D02*
Y2634625D01*
X205600Y2632029D02*
Y2632982D01*
Y2634458D02*
Y2634764D01*
X205700Y2632029D02*
Y2632982D01*
Y2634593D02*
Y2634903D01*
X205800Y2632029D02*
Y2632982D01*
Y2634728D02*
Y2635041D01*
X205900Y2632029D02*
Y2632982D01*
Y2634863D02*
Y2635180D01*
X206000Y2632029D02*
Y2632982D01*
Y2634998D02*
Y2635319D01*
X206100Y2632029D02*
Y2632982D01*
Y2635133D02*
Y2635457D01*
X206200Y2632029D02*
Y2632982D01*
Y2635268D02*
Y2635596D01*
X206300Y2632029D02*
Y2632982D01*
Y2635403D02*
Y2635735D01*
X206400Y2632029D02*
Y2632982D01*
Y2635538D02*
Y2635874D01*
X206500Y2632029D02*
Y2632982D01*
Y2635673D02*
Y2636012D01*
X206600Y2632029D02*
Y2632982D01*
Y2635808D02*
Y2636151D01*
X206700Y2632029D02*
Y2632982D01*
Y2635923D02*
Y2636290D01*
X206800Y2630450D02*
Y2636428D01*
X206900Y2630450D02*
Y2636567D01*
X207000Y2630450D02*
Y2636706D01*
X207100Y2630450D02*
Y2636845D01*
X207200Y2630450D02*
Y2636983D01*
X207300Y2630450D02*
Y2637122D01*
X207400Y2630450D02*
Y2637261D01*
X207500Y2630450D02*
Y2637399D01*
X207600Y2630450D02*
Y2637508D01*
X207700Y2630450D02*
Y2637508D01*
X207800Y2630450D02*
Y2637508D01*
X207900Y2630450D02*
Y2637508D01*
X208000Y2630450D02*
Y2637508D01*
X208100Y2630450D02*
Y2637508D01*
X208200Y2632029D02*
Y2632982D01*
X208300Y2632029D02*
Y2632982D01*
X208400Y2632029D02*
Y2632982D01*
X208500Y2632029D02*
Y2632982D01*
X208600Y2632029D02*
Y2632982D01*
X208700Y2632029D02*
Y2632982D01*
X209700Y2632029D02*
Y2633150D01*
X209800Y2632029D02*
Y2633289D01*
X209900Y2632029D02*
Y2632982D01*
Y2633158D02*
Y2633428D01*
X210000Y2632029D02*
Y2632982D01*
Y2633293D02*
Y2633567D01*
X210100Y2632029D02*
Y2632982D01*
Y2633428D02*
Y2633705D01*
X210200Y2632029D02*
Y2632982D01*
Y2633563D02*
Y2633844D01*
X210300Y2632029D02*
Y2632982D01*
Y2633698D02*
Y2633983D01*
X210400Y2632029D02*
Y2632982D01*
Y2633833D02*
Y2634121D01*
X210500Y2632029D02*
Y2632982D01*
Y2633968D02*
Y2634260D01*
X210600Y2632029D02*
Y2632982D01*
Y2634103D02*
Y2634399D01*
X210700Y2632029D02*
Y2632982D01*
Y2634238D02*
Y2634538D01*
X210800Y2632029D02*
Y2632982D01*
Y2634373D02*
Y2634676D01*
X210900Y2632029D02*
Y2632982D01*
Y2634508D02*
Y2634815D01*
X211000Y2632029D02*
Y2632982D01*
Y2634643D02*
Y2634954D01*
X211100Y2632029D02*
Y2632982D01*
Y2634778D02*
Y2635092D01*
X211200Y2632029D02*
Y2632982D01*
Y2634913D02*
Y2635231D01*
X211300Y2632029D02*
Y2632982D01*
Y2635048D02*
Y2635370D01*
X211400Y2632029D02*
Y2632982D01*
Y2635183D02*
Y2635509D01*
X211500Y2632029D02*
Y2632982D01*
Y2635318D02*
Y2635647D01*
X211600Y2632029D02*
Y2632982D01*
Y2635453D02*
Y2635786D01*
X211700Y2632029D02*
Y2632982D01*
Y2635588D02*
Y2635925D01*
X211800Y2632029D02*
Y2632982D01*
Y2635723D02*
Y2636063D01*
X211900Y2632029D02*
Y2632982D01*
Y2635858D02*
Y2636202D01*
X212000Y2632021D02*
Y2632989D01*
Y2635916D02*
Y2636341D01*
X212100Y2630450D02*
Y2636480D01*
X212200Y2630450D02*
Y2636618D01*
X212300Y2630450D02*
Y2636757D01*
X212400Y2630450D02*
Y2636896D01*
X212500Y2630450D02*
Y2637034D01*
X212600Y2630450D02*
Y2637173D01*
X212700Y2630450D02*
Y2637312D01*
X212800Y2630450D02*
Y2637450D01*
X212900Y2630450D02*
Y2637508D01*
X213000Y2630450D02*
Y2637508D01*
X213100Y2630450D02*
Y2637508D01*
X213200Y2630450D02*
Y2637508D01*
X213300Y2630450D02*
Y2637508D01*
X213400Y2631995D02*
Y2633016D01*
X213500Y2632029D02*
Y2632982D01*
X213600Y2632029D02*
Y2632982D01*
X213700Y2632029D02*
Y2632982D01*
X213800Y2632029D02*
Y2632982D01*
X213900Y2632029D02*
Y2632982D01*
X214000Y2632029D02*
Y2632982D01*
X214900Y2632901D02*
Y2633511D01*
X215000Y2632306D02*
Y2634357D01*
X215100Y2631956D02*
Y2634607D01*
X215200Y2631638D02*
Y2634857D01*
X215300Y2631438D02*
Y2635107D01*
X215400Y2631238D02*
Y2635338D01*
X215500Y2631054D02*
Y2635452D01*
X215600Y2630974D02*
Y2635566D01*
X215700Y2630894D02*
Y2635680D01*
X215800Y2630814D02*
Y2635795D01*
X215900Y2630734D02*
Y2635909D01*
X216000Y2630654D02*
Y2636023D01*
X216100Y2630614D02*
Y2636138D01*
X216200Y2630574D02*
Y2636229D01*
X216300Y2630534D02*
Y2636316D01*
X216400Y2630494D02*
Y2632361D01*
Y2634140D02*
Y2636404D01*
X216500Y2630454D02*
Y2631529D01*
Y2634180D02*
Y2634455D01*
Y2634687D02*
Y2636491D01*
X216600Y2630434D02*
Y2631279D01*
Y2634220D02*
Y2634486D01*
Y2635037D02*
Y2636579D01*
X216700Y2630417D02*
Y2631062D01*
Y2634260D02*
Y2634519D01*
Y2635369D02*
Y2636666D01*
X216800Y2630401D02*
Y2630912D01*
Y2634300D02*
Y2634553D01*
Y2635669D02*
Y2636754D01*
X216900Y2630384D02*
Y2630751D01*
Y2634340D02*
Y2634572D01*
Y2635927D02*
Y2636841D01*
X217000Y2630367D02*
Y2630568D01*
Y2634321D02*
Y2634586D01*
Y2636052D02*
Y2636902D01*
X217100Y2630351D02*
Y2630561D01*
Y2634288D02*
Y2634601D01*
Y2636177D02*
Y2636938D01*
X217200Y2630357D02*
Y2630561D01*
Y2634254D02*
Y2634615D01*
Y2636302D02*
Y2636975D01*
X217300Y2630373D02*
Y2630579D01*
Y2634207D02*
Y2634629D01*
Y2636427D02*
Y2637011D01*
X217400Y2630390D02*
Y2630612D01*
Y2634141D02*
Y2634643D01*
Y2636510D02*
Y2637047D01*
X217500Y2630407D02*
Y2630646D01*
Y2634074D02*
Y2634658D01*
Y2636590D02*
Y2637084D01*
X217600Y2630423D02*
Y2630699D01*
Y2633995D02*
Y2634659D01*
Y2636670D02*
Y2637120D01*
X217700Y2630440D02*
Y2630899D01*
Y2633695D02*
Y2634644D01*
Y2636750D02*
Y2637156D01*
X217800Y2630469D02*
Y2631049D01*
Y2633208D02*
Y2634630D01*
Y2636830D02*
Y2637193D01*
X217900Y2630509D02*
Y2631199D01*
Y2632708D02*
Y2634616D01*
Y2636893D02*
Y2637229D01*
X218000Y2630549D02*
Y2634601D01*
Y2636943D02*
Y2637265D01*
X218100Y2630589D02*
Y2634587D01*
Y2636993D02*
Y2637300D01*
X218200Y2630629D02*
Y2634573D01*
Y2637043D02*
Y2637317D01*
X218300Y2630681D02*
Y2634538D01*
Y2637093D02*
Y2637334D01*
X218400Y2630756D02*
Y2634458D01*
Y2637143D02*
Y2637350D01*
X218500Y2630831D02*
Y2634378D01*
Y2637190D02*
Y2637367D01*
X218600Y2630906D02*
Y2634298D01*
Y2637228D02*
Y2637384D01*
X218700Y2631006D02*
Y2634218D01*
Y2637265D02*
Y2637400D01*
X218800Y2631173D02*
Y2634123D01*
Y2637303D02*
Y2637417D01*
X218900Y2631339D02*
Y2633973D01*
Y2637340D02*
Y2637434D01*
X219000Y2631521D02*
Y2633823D01*
Y2637378D02*
Y2637450D01*
X219100Y2631771D02*
Y2633673D01*
Y2637415D02*
Y2637467D01*
X219200Y2632075D02*
Y2633450D01*
Y2637453D02*
Y2637484D01*
X220200Y2633308D02*
Y2634582D01*
X220300Y2632508D02*
Y2635250D01*
X220400Y2632048D02*
Y2635750D01*
X220500Y2631798D02*
Y2636078D01*
X220600Y2631575D02*
Y2636278D01*
X220700Y2631375D02*
Y2636478D01*
X220800Y2631206D02*
Y2636629D01*
X220900Y2631073D02*
Y2636729D01*
X221000Y2630939D02*
Y2636829D01*
X221100Y2630828D02*
Y2636929D01*
X221200Y2630753D02*
Y2637029D01*
X221300Y2630678D02*
Y2637116D01*
X221400Y2630603D02*
Y2637176D01*
X221500Y2630544D02*
Y2637236D01*
X221600Y2630519D02*
Y2637296D01*
X221700Y2630494D02*
Y2631604D01*
Y2636459D02*
Y2637356D01*
X221800Y2630469D02*
Y2630973D01*
Y2636774D02*
Y2637409D01*
X221900Y2630444D02*
Y2630751D01*
Y2637074D02*
Y2637429D01*
X222000Y2630419D02*
Y2630658D01*
Y2637198D02*
Y2637449D01*
X222100Y2630394D02*
Y2630633D01*
Y2637232D02*
Y2637469D01*
X222200Y2630369D02*
Y2630608D01*
Y2637265D02*
Y2637489D01*
X222300Y2630345D02*
Y2630583D01*
Y2637291D02*
Y2637505D01*
X222400Y2630345D02*
Y2630561D01*
Y2637243D02*
Y2637489D01*
X222500Y2630345D02*
Y2630621D01*
Y2637193D02*
Y2637472D01*
X222600Y2630345D02*
Y2630687D01*
Y2637143D02*
Y2637455D01*
X222700Y2630345D02*
Y2630754D01*
Y2637093D02*
Y2637439D01*
X222800Y2630345D02*
Y2630865D01*
Y2636988D02*
Y2637422D01*
X222900Y2630411D02*
Y2631015D01*
Y2636838D02*
Y2637405D01*
X223000Y2630478D02*
Y2631277D01*
Y2636546D02*
Y2637347D01*
X223100Y2630544D02*
Y2637287D01*
X223200Y2630616D02*
Y2637227D01*
X223300Y2630687D02*
Y2637167D01*
X223400Y2630758D02*
Y2637107D01*
X223500Y2630830D02*
Y2637013D01*
X223600Y2630901D02*
Y2636914D01*
X223700Y2630973D02*
Y2636814D01*
X223800Y2631044D02*
Y2636714D01*
X223900Y2631207D02*
Y2636614D01*
X224000Y2631407D02*
Y2636446D01*
X224100Y2631640D02*
Y2636246D01*
X224200Y2631890D02*
Y2636046D01*
X224300Y2632257D02*
Y2635701D01*
X224400Y2632707D02*
Y2635251D01*
X224500Y2633379D02*
Y2634479D01*
X225600Y2630942D02*
Y2631541D01*
X225700Y2630645D02*
Y2631736D01*
X225800Y2628726D02*
Y2628865D01*
Y2630595D02*
Y2631803D01*
X225900Y2628769D02*
Y2628940D01*
Y2630545D02*
Y2631870D01*
X226000Y2628812D02*
Y2629015D01*
Y2630495D02*
Y2631935D01*
X226100Y2628854D02*
Y2629090D01*
Y2630460D02*
Y2631968D01*
X226200Y2628897D02*
Y2629187D01*
Y2630493D02*
Y2632002D01*
X226300Y2628940D02*
Y2629287D01*
Y2630526D02*
Y2632030D01*
X226400Y2629002D02*
Y2629387D01*
Y2630555D02*
Y2632005D01*
X226500Y2629102D02*
Y2629551D01*
Y2630555D02*
Y2631980D01*
X226600Y2629202D02*
Y2629751D01*
Y2630555D02*
Y2631955D01*
X226700Y2629302D02*
Y2631926D01*
X226800Y2629402D02*
Y2631859D01*
X226900Y2629522D02*
Y2631793D01*
X227000Y2629722D02*
Y2631709D01*
X227100Y2629922D02*
Y2631509D01*
X227200Y2630180D02*
Y2631277D01*
X230800Y2633561D02*
Y2634146D01*
X230900Y2632919D02*
Y2634705D01*
X231000Y2632569D02*
Y2635005D01*
X231100Y2632269D02*
Y2635278D01*
X231200Y2632102D02*
Y2635478D01*
X231300Y2631936D02*
Y2635678D01*
X231400Y2631781D02*
Y2635870D01*
X231500Y2631681D02*
Y2636020D01*
X231600Y2631581D02*
Y2636170D01*
X231700Y2631481D02*
Y2636320D01*
X231800Y2631381D02*
Y2636470D01*
X231900Y2631281D02*
Y2636536D01*
X232000Y2631211D02*
Y2636603D01*
X232100Y2631141D02*
Y2636670D01*
X232200Y2631071D02*
Y2636736D01*
X232300Y2631001D02*
Y2636803D01*
X232400Y2630931D02*
Y2636870D01*
X232500Y2630861D02*
Y2636923D01*
X232600Y2630791D02*
Y2633468D01*
Y2634235D02*
Y2636973D01*
X232700Y2630721D02*
Y2632607D01*
Y2635035D02*
Y2637023D01*
X232800Y2630651D02*
Y2632004D01*
Y2635648D02*
Y2637073D01*
X232900Y2630581D02*
Y2631804D01*
Y2635881D02*
Y2637123D01*
X233000Y2630544D02*
Y2631604D01*
Y2636115D02*
Y2637173D01*
X233100Y2630530D02*
Y2631412D01*
Y2636335D02*
Y2637214D01*
X233200Y2630516D02*
Y2631287D01*
Y2636460D02*
Y2637247D01*
X233300Y2630502D02*
Y2631162D01*
Y2636585D02*
Y2637281D01*
X233400Y2630487D02*
Y2631037D01*
Y2636710D02*
Y2637314D01*
X233500Y2630473D02*
Y2630912D01*
Y2636835D02*
Y2637347D01*
X233600Y2630459D02*
Y2630854D01*
Y2636908D02*
Y2637381D01*
X233700Y2630445D02*
Y2630814D01*
Y2636968D02*
Y2637408D01*
X233800Y2630433D02*
Y2630774D01*
Y2637028D02*
Y2637420D01*
X233900Y2630420D02*
Y2630734D01*
Y2637088D02*
Y2637433D01*
X234000Y2630408D02*
Y2630694D01*
Y2637148D02*
Y2637445D01*
X234100Y2630395D02*
Y2630662D01*
Y2637191D02*
Y2637458D01*
X234200Y2630383D02*
Y2630645D01*
Y2637208D02*
Y2637470D01*
X234300Y2630370D02*
Y2630628D01*
Y2637224D02*
Y2637483D01*
X234400Y2630358D02*
Y2630612D01*
Y2637241D02*
Y2637495D01*
X234500Y2630345D02*
Y2630595D01*
Y2637258D02*
Y2637508D01*
X234600Y2630352D02*
Y2630578D01*
Y2637274D02*
Y2637495D01*
X234700Y2630359D02*
Y2630562D01*
Y2637291D02*
Y2637483D01*
X234800Y2630366D02*
Y2630561D01*
Y2633187D02*
Y2633297D01*
Y2637280D02*
Y2637470D01*
X234900Y2630373D02*
Y2630561D01*
Y2633187D02*
Y2633297D01*
Y2637266D02*
Y2637458D01*
X235000Y2630381D02*
Y2630561D01*
Y2633169D02*
Y2633297D01*
Y2637251D02*
Y2637445D01*
X235100Y2630388D02*
Y2630561D01*
Y2633144D02*
Y2633297D01*
Y2637237D02*
Y2637433D01*
X235200Y2630395D02*
Y2630584D01*
Y2633119D02*
Y2633297D01*
Y2637223D02*
Y2637420D01*
X235300Y2630402D02*
Y2630624D01*
Y2633094D02*
Y2633297D01*
Y2637208D02*
Y2637408D01*
X235400Y2630409D02*
Y2630664D01*
Y2633044D02*
Y2633297D01*
Y2637194D02*
Y2637381D01*
X235500Y2630416D02*
Y2630704D01*
Y2632944D02*
Y2633297D01*
Y2637164D02*
Y2637347D01*
X235600Y2630423D02*
Y2630744D01*
Y2632838D02*
Y2633297D01*
Y2637107D02*
Y2637314D01*
X235700Y2630431D02*
Y2630794D01*
Y2632638D02*
Y2633297D01*
Y2637050D02*
Y2637285D01*
X235800Y2630438D02*
Y2633297D01*
Y2636993D02*
Y2637260D01*
X235900Y2630445D02*
Y2633297D01*
Y2636936D02*
Y2637235D01*
X236000Y2630460D02*
Y2633297D01*
Y2636879D02*
Y2637210D01*
X236100Y2630491D02*
Y2633297D01*
Y2636821D02*
Y2637176D01*
X236200Y2630522D02*
Y2633297D01*
Y2636764D02*
Y2637126D01*
X236300Y2630553D02*
Y2633297D01*
Y2636640D02*
Y2637076D01*
X236400Y2630583D02*
Y2633297D01*
Y2636500D02*
Y2637026D01*
X236500Y2630614D02*
Y2633297D01*
Y2636360D02*
Y2636982D01*
X236600Y2630645D02*
Y2633297D01*
Y2636220D02*
Y2636982D01*
X236700Y2630676D02*
Y2633297D01*
Y2636080D02*
Y2637010D01*
X236800Y2630707D02*
Y2633297D01*
Y2635912D02*
Y2637044D01*
X236900Y2630737D02*
Y2633297D01*
Y2635712D02*
Y2637077D01*
X237000Y2630768D02*
Y2633297D01*
Y2635512D02*
Y2637145D01*
X237100Y2630799D02*
Y2633297D01*
Y2635312D02*
Y2637305D01*
X237200Y2630830D02*
Y2633297D01*
Y2635187D02*
Y2637508D01*
X237300Y2632743D02*
Y2633297D01*
X237400Y2632893D02*
Y2633297D01*
X237500Y2633043D02*
Y2633297D01*
X237600Y2633111D02*
Y2633297D01*
X237700Y2633161D02*
Y2633297D01*
X237800Y2633187D02*
Y2633297D01*
X237900Y2633187D02*
Y2633297D01*
X238000Y2633187D02*
Y2633297D01*
X238600Y2630450D02*
Y2630591D01*
X238700Y2630450D02*
Y2630624D01*
X238800Y2630450D02*
Y2630658D01*
X238900Y2630450D02*
Y2630712D01*
X239000Y2630450D02*
Y2630779D01*
X239100Y2630450D02*
Y2630845D01*
X239200Y2630450D02*
Y2630924D01*
X239300Y2630450D02*
Y2631024D01*
X239400Y2630450D02*
Y2631124D01*
X239500Y2630450D02*
Y2631238D01*
X239600Y2630450D02*
Y2631471D01*
X239700Y2630450D02*
Y2631705D01*
X239800Y2630450D02*
Y2631938D01*
X239900Y2630450D02*
Y2630962D01*
Y2631350D02*
Y2632169D01*
X240000Y2630450D02*
Y2630829D01*
Y2631600D02*
Y2632399D01*
X240100Y2630450D02*
Y2630729D01*
Y2631839D02*
Y2632630D01*
X240200Y2630450D02*
Y2630652D01*
Y2632073D02*
Y2632860D01*
X240300Y2630450D02*
Y2630602D01*
Y2632306D02*
Y2633090D01*
X240400Y2630450D02*
Y2630561D01*
Y2632450D02*
Y2633321D01*
X240500Y2630450D02*
Y2630561D01*
Y2632450D02*
Y2633551D01*
X240600Y2630450D02*
Y2630561D01*
Y2632450D02*
Y2632771D01*
Y2632934D02*
Y2633782D01*
X240700Y2630450D02*
Y2630561D01*
Y2632450D02*
Y2632771D01*
Y2633164D02*
Y2634012D01*
X240800Y2632450D02*
Y2632771D01*
Y2633394D02*
Y2634243D01*
X240900Y2632450D02*
Y2632771D01*
Y2633624D02*
Y2634473D01*
X241000Y2632450D02*
Y2632771D01*
Y2633854D02*
Y2634703D01*
X241100Y2632450D02*
Y2632771D01*
Y2634084D02*
Y2634934D01*
X241200Y2632450D02*
Y2632771D01*
Y2634314D02*
Y2635164D01*
X241300Y2632450D02*
Y2632771D01*
Y2634544D02*
Y2635395D01*
X241400Y2632450D02*
Y2632771D01*
Y2634774D02*
Y2635625D01*
X241500Y2632450D02*
Y2632771D01*
Y2635004D02*
Y2635856D01*
X241600Y2632450D02*
Y2632771D01*
Y2635234D02*
Y2636086D01*
X241700Y2632450D02*
Y2632771D01*
Y2635269D02*
Y2636317D01*
X241800Y2632450D02*
Y2632771D01*
Y2635016D02*
Y2636547D01*
X241900Y2632450D02*
Y2632771D01*
Y2634761D02*
Y2636777D01*
X242000Y2632450D02*
Y2632771D01*
Y2634505D02*
Y2637008D01*
X242100Y2632450D02*
Y2632771D01*
Y2634249D02*
Y2637238D01*
X242200Y2632450D02*
Y2632771D01*
Y2633994D02*
Y2637469D01*
X242300Y2632450D02*
Y2632771D01*
Y2633738D02*
Y2637409D01*
X242400Y2632450D02*
Y2632771D01*
Y2633483D02*
Y2637180D01*
X242500Y2632450D02*
Y2632771D01*
Y2633227D02*
Y2636950D01*
X242600Y2632450D02*
Y2632771D01*
Y2632972D02*
Y2636721D01*
X242700Y2630450D02*
Y2630561D01*
Y2632450D02*
Y2636492D01*
X242800Y2630450D02*
Y2630561D01*
Y2632450D02*
Y2636263D01*
X242900Y2630450D02*
Y2630561D01*
Y2632343D02*
Y2636034D01*
X243000Y2630450D02*
Y2630561D01*
Y2632143D02*
Y2635805D01*
X243100Y2630450D02*
Y2630591D01*
Y2631943D02*
Y2635575D01*
X243200Y2630450D02*
Y2630641D01*
Y2631743D02*
Y2635346D01*
X243300Y2630450D02*
Y2630730D01*
Y2631527D02*
Y2635117D01*
X243400Y2630450D02*
Y2634888D01*
X243500Y2630450D02*
Y2634659D01*
X243600Y2630450D02*
Y2634430D01*
X243700Y2630450D02*
Y2634200D01*
X243800Y2630450D02*
Y2633971D01*
X243900Y2630450D02*
Y2633742D01*
X244000Y2630450D02*
Y2633513D01*
X244100Y2630450D02*
Y2633284D01*
X244200Y2630450D02*
Y2633055D01*
X244300Y2630450D02*
Y2632825D01*
X244400Y2630450D02*
Y2632596D01*
X244500Y2630450D02*
Y2632367D01*
X244600Y2630450D02*
Y2632138D01*
X244700Y2630450D02*
Y2631909D01*
X244800Y2630450D02*
Y2631688D01*
X244900Y2630450D02*
Y2631488D01*
X245000Y2630450D02*
Y2631288D01*
X245100Y2630450D02*
Y2631094D01*
X245200Y2630450D02*
Y2630944D01*
X245300Y2630450D02*
Y2630794D01*
X245400Y2630450D02*
Y2630744D01*
X245500Y2630450D02*
Y2630704D01*
X245600Y2630450D02*
Y2630664D01*
X245700Y2630450D02*
Y2630624D01*
X245800Y2630450D02*
Y2630584D01*
X249000Y2635608D02*
Y2637403D01*
X249100Y2635621D02*
Y2637403D01*
X249200Y2635921D02*
Y2637403D01*
X249300Y2636216D02*
Y2637403D01*
X249400Y2636383D02*
Y2637403D01*
X249500Y2636550D02*
Y2637403D01*
X249600Y2636716D02*
Y2637403D01*
X249700Y2636793D02*
Y2637403D01*
X249800Y2636843D02*
Y2637403D01*
X249900Y2636893D02*
Y2637403D01*
X250000Y2636943D02*
Y2637403D01*
X250100Y2636981D02*
Y2637403D01*
X250200Y2636997D02*
Y2637403D01*
X250300Y2637014D02*
Y2637403D01*
X250400Y2630450D02*
Y2630561D01*
Y2637031D02*
Y2637403D01*
X250500Y2630450D02*
Y2630561D01*
Y2637047D02*
Y2637403D01*
X250600Y2630450D02*
Y2630580D01*
Y2637064D02*
Y2637403D01*
X250700Y2630450D02*
Y2630600D01*
Y2637081D02*
Y2637403D01*
X250800Y2630450D02*
Y2630620D01*
Y2637082D02*
Y2637403D01*
X250900Y2630450D02*
Y2630640D01*
Y2637082D02*
Y2637403D01*
X251000Y2630450D02*
Y2630660D01*
Y2637082D02*
Y2637403D01*
X251100Y2630450D02*
Y2630751D01*
Y2637082D02*
Y2637403D01*
X251200Y2630450D02*
Y2630951D01*
Y2637082D02*
Y2637403D01*
X251300Y2630450D02*
Y2637403D01*
X251400Y2630450D02*
Y2637403D01*
X251500Y2630450D02*
Y2637403D01*
X251600Y2630450D02*
Y2637403D01*
X251700Y2630450D02*
Y2637403D01*
X251800Y2630450D02*
Y2637403D01*
X251900Y2630450D02*
Y2637403D01*
X252000Y2630450D02*
Y2637403D01*
X252100Y2630450D02*
Y2637403D01*
X252200Y2630450D02*
Y2637403D01*
X252300Y2630450D02*
Y2637403D01*
X252400Y2630450D02*
Y2637403D01*
X252500Y2630450D02*
Y2637403D01*
X252600Y2630450D02*
Y2637403D01*
X252700Y2630450D02*
Y2637403D01*
X252800Y2630450D02*
Y2637403D01*
X252900Y2630450D02*
Y2631067D01*
Y2637077D02*
Y2637403D01*
X253000Y2630450D02*
Y2630882D01*
Y2637082D02*
Y2637403D01*
X253100Y2630450D02*
Y2630782D01*
Y2637082D02*
Y2637403D01*
X253200Y2630450D02*
Y2630682D01*
Y2637082D02*
Y2637403D01*
X253300Y2630450D02*
Y2630648D01*
Y2637082D02*
Y2637403D01*
X253400Y2630450D02*
Y2630623D01*
Y2637082D02*
Y2637403D01*
X253500Y2630450D02*
Y2630598D01*
Y2637082D02*
Y2637403D01*
X253600Y2630450D02*
Y2630573D01*
Y2637082D02*
Y2637403D01*
X253700Y2630450D02*
Y2630561D01*
Y2637082D02*
Y2637403D01*
X253800Y2630450D02*
Y2630561D01*
Y2637082D02*
Y2637403D01*
X253900Y2637072D02*
Y2637403D01*
X254000Y2637022D02*
Y2637403D01*
X254100Y2636972D02*
Y2637403D01*
X254200Y2636906D02*
Y2637403D01*
X254300Y2636839D02*
Y2637403D01*
X254400Y2636772D02*
Y2637403D01*
X254500Y2636706D02*
Y2637403D01*
X254600Y2636639D02*
Y2637403D01*
X254700Y2636572D02*
Y2637403D01*
X254800Y2636354D02*
Y2637403D01*
X254900Y2636008D02*
Y2637403D01*
X255000Y2635758D02*
Y2637403D01*
X255100Y2635608D02*
Y2637403D01*
X256000Y2630450D02*
Y2630561D01*
Y2637292D02*
Y2637403D01*
X256100Y2630450D02*
Y2630564D01*
Y2637289D02*
Y2637403D01*
X256200Y2630450D02*
Y2630584D01*
Y2637269D02*
Y2637403D01*
X256300Y2630450D02*
Y2630604D01*
Y2637249D02*
Y2637403D01*
X256400Y2630450D02*
Y2630624D01*
Y2637229D02*
Y2637403D01*
X256500Y2630450D02*
Y2630644D01*
Y2637209D02*
Y2637403D01*
X256600Y2630450D02*
Y2630664D01*
Y2637189D02*
Y2637403D01*
X256700Y2630450D02*
Y2630793D01*
Y2637085D02*
Y2637403D01*
X256800Y2630450D02*
Y2630993D01*
Y2636935D02*
Y2637403D01*
X256900Y2630450D02*
Y2637403D01*
X257000Y2630450D02*
Y2637403D01*
X257100Y2630450D02*
Y2637403D01*
X257200Y2630450D02*
Y2637403D01*
X257300Y2630450D02*
Y2637403D01*
X257400Y2630450D02*
Y2637403D01*
X257500Y2630450D02*
Y2637403D01*
X257600Y2630450D02*
Y2637403D01*
X257700Y2630450D02*
Y2637403D01*
X257800Y2630450D02*
Y2637403D01*
X257900Y2630450D02*
Y2637403D01*
X258000Y2630450D02*
Y2637403D01*
X258100Y2630450D02*
Y2637403D01*
X258200Y2630450D02*
Y2637403D01*
X258300Y2630450D02*
Y2637403D01*
X258400Y2630450D02*
Y2637403D01*
X258500Y2630450D02*
Y2631130D01*
Y2633818D02*
Y2634034D01*
Y2637082D02*
Y2637403D01*
X258600Y2630450D02*
Y2630930D01*
Y2633818D02*
Y2634034D01*
Y2637082D02*
Y2637403D01*
X258700Y2630450D02*
Y2630772D01*
Y2633818D02*
Y2634049D01*
Y2637082D02*
Y2637403D01*
X258800Y2630450D02*
Y2630747D01*
Y2633818D02*
Y2634066D01*
Y2637082D02*
Y2637403D01*
X258900Y2630450D02*
Y2630722D01*
Y2633818D02*
Y2634083D01*
Y2637082D02*
Y2637403D01*
X259000Y2630450D02*
Y2630697D01*
Y2633795D02*
Y2634099D01*
Y2637082D02*
Y2637403D01*
X259100Y2630450D02*
Y2630672D01*
Y2633761D02*
Y2634116D01*
Y2637082D02*
Y2637403D01*
X259200Y2630450D02*
Y2630666D01*
Y2633728D02*
Y2634133D01*
Y2637082D02*
Y2637403D01*
X259300Y2630450D02*
Y2630666D01*
Y2633681D02*
Y2634182D01*
Y2637082D02*
Y2637403D01*
X259400Y2630450D02*
Y2630666D01*
Y2633614D02*
Y2634282D01*
Y2637082D02*
Y2637403D01*
X259500Y2630450D02*
Y2630666D01*
Y2633548D02*
Y2634382D01*
Y2637082D02*
Y2637403D01*
X259600Y2630450D02*
Y2630666D01*
Y2633472D02*
Y2634487D01*
Y2637082D02*
Y2637403D01*
X259700Y2630450D02*
Y2630671D01*
Y2633322D02*
Y2634654D01*
Y2637082D02*
Y2637403D01*
X259800Y2630450D02*
Y2630683D01*
Y2633172D02*
Y2634820D01*
Y2637082D02*
Y2637403D01*
X259900Y2630450D02*
Y2630696D01*
Y2632708D02*
Y2634987D01*
Y2637082D02*
Y2637403D01*
X260000Y2630450D02*
Y2630708D01*
Y2632208D02*
Y2635599D01*
Y2637077D02*
Y2637403D01*
X260100Y2630450D02*
Y2630721D01*
Y2632134D02*
Y2635718D01*
Y2637052D02*
Y2637403D01*
X260200Y2630450D02*
Y2630733D01*
Y2637027D02*
Y2637403D01*
X260300Y2630450D02*
Y2630746D01*
Y2637002D02*
Y2637403D01*
X260400Y2630450D02*
Y2630758D01*
Y2636977D02*
Y2637403D01*
X260500Y2630450D02*
Y2630771D01*
Y2636930D02*
Y2637403D01*
X260600Y2630450D02*
Y2630821D01*
Y2636880D02*
Y2637403D01*
X260700Y2630450D02*
Y2630878D01*
Y2636830D02*
Y2637403D01*
X260800Y2630450D02*
Y2630935D01*
Y2636780D02*
Y2637403D01*
X260900Y2630450D02*
Y2630992D01*
Y2636702D02*
Y2637403D01*
X261000Y2630450D02*
Y2631049D01*
Y2636602D02*
Y2637403D01*
X261100Y2630450D02*
Y2631106D01*
Y2636502D02*
Y2637403D01*
X261200Y2630450D02*
Y2631163D01*
Y2636375D02*
Y2637403D01*
X261300Y2630450D02*
Y2631235D01*
Y2636175D02*
Y2637403D01*
X261400Y2630450D02*
Y2631335D01*
Y2635963D02*
Y2637403D01*
X261500Y2630450D02*
Y2631435D01*
Y2635663D02*
Y2637403D01*
X261600Y2630450D02*
Y2631535D01*
Y2635397D02*
Y2637403D01*
X261700Y2630450D02*
Y2631635D01*
Y2635397D02*
Y2637403D01*
X261800Y2630450D02*
Y2631735D01*
X261900Y2630450D02*
Y2631991D01*
X262000Y2630938D02*
Y2632258D01*
X262100Y2631638D02*
Y2632524D01*
X262200Y2632338D02*
Y2632561D01*
X263200Y2633605D02*
Y2633931D01*
X263300Y2632795D02*
Y2634735D01*
X263400Y2632528D02*
Y2634960D01*
X263500Y2632262D02*
Y2635185D01*
X263600Y2632001D02*
Y2635410D01*
X263700Y2631884D02*
Y2635635D01*
X263800Y2631767D02*
Y2635769D01*
X263900Y2631651D02*
Y2635903D01*
X264000Y2631534D02*
Y2636036D01*
X264100Y2631417D02*
Y2636169D01*
X264200Y2631301D02*
Y2636303D01*
X264300Y2631221D02*
Y2636436D01*
X264400Y2631149D02*
Y2636523D01*
X264500Y2631078D02*
Y2636594D01*
X264600Y2631007D02*
Y2636666D01*
X264700Y2630935D02*
Y2636737D01*
X264800Y2630864D02*
Y2636808D01*
X264900Y2630792D02*
Y2636880D01*
X265000Y2630742D02*
Y2633786D01*
Y2634195D02*
Y2636951D01*
X265100Y2630709D02*
Y2632986D01*
Y2635006D02*
Y2637010D01*
X265200Y2630676D02*
Y2632254D01*
Y2635406D02*
Y2637054D01*
X265300Y2630642D02*
Y2632020D01*
Y2635795D02*
Y2637099D01*
X265400Y2630609D02*
Y2631787D01*
Y2635962D02*
Y2637143D01*
X265500Y2630576D02*
Y2631554D01*
Y2636129D02*
Y2637187D01*
X265600Y2630542D02*
Y2631440D01*
Y2636295D02*
Y2637232D01*
X265700Y2630509D02*
Y2631340D01*
Y2636392D02*
Y2637276D01*
X265800Y2630476D02*
Y2631240D01*
Y2636472D02*
Y2637321D01*
X265900Y2630447D02*
Y2631140D01*
Y2636552D02*
Y2637365D01*
X266000Y2630437D02*
Y2631063D01*
Y2636632D02*
Y2637405D01*
X266100Y2630427D02*
Y2631003D01*
Y2636712D02*
Y2637416D01*
X266200Y2630417D02*
Y2630943D01*
Y2636784D02*
Y2637427D01*
X266300Y2630407D02*
Y2630883D01*
Y2636844D02*
Y2637439D01*
X266400Y2630397D02*
Y2630823D01*
Y2636904D02*
Y2637450D01*
X266500Y2630387D02*
Y2630771D01*
Y2636964D02*
Y2637461D01*
X266600Y2630377D02*
Y2630756D01*
Y2637024D02*
Y2637472D01*
X266700Y2630367D02*
Y2630742D01*
Y2637080D02*
Y2637483D01*
X266800Y2630357D02*
Y2630728D01*
Y2637097D02*
Y2637494D01*
X266900Y2630347D02*
Y2630713D01*
Y2637114D02*
Y2637505D01*
X267000Y2630357D02*
Y2630699D01*
Y2637131D02*
Y2637498D01*
X267100Y2630371D02*
Y2630685D01*
Y2637147D02*
Y2637485D01*
X267200Y2630385D02*
Y2630671D01*
Y2637164D02*
Y2637473D01*
X267300Y2630399D02*
Y2630676D01*
Y2637181D02*
Y2637460D01*
X267400Y2630414D02*
Y2630692D01*
Y2637179D02*
Y2637448D01*
X267500Y2630428D02*
Y2630709D01*
Y2637165D02*
Y2637435D01*
X267600Y2630442D02*
Y2630726D01*
Y2637151D02*
Y2637423D01*
X267700Y2630457D02*
Y2630742D01*
Y2637136D02*
Y2637410D01*
X267800Y2630471D02*
Y2630759D01*
Y2637122D02*
Y2637390D01*
X267900Y2630485D02*
Y2630780D01*
Y2637108D02*
Y2637362D01*
X268000Y2630499D02*
Y2630820D01*
Y2637093D02*
Y2637333D01*
X268100Y2630514D02*
Y2630860D01*
Y2637077D02*
Y2637304D01*
X268200Y2630528D02*
Y2630900D01*
Y2637011D02*
Y2637276D01*
X268300Y2630542D02*
Y2630940D01*
Y2636944D02*
Y2637247D01*
X268400Y2630574D02*
Y2630980D01*
Y2636878D02*
Y2637219D01*
X268500Y2630654D02*
Y2631028D01*
Y2636811D02*
Y2637186D01*
X268600Y2630734D02*
Y2631078D01*
Y2636744D02*
Y2637136D01*
X268700Y2630814D02*
Y2631128D01*
Y2636678D02*
Y2637086D01*
X268800Y2630894D02*
Y2631178D01*
Y2636581D02*
Y2637036D01*
X268900Y2630972D02*
Y2631228D01*
Y2636461D02*
Y2636986D01*
X269000Y2631039D02*
Y2631278D01*
Y2636341D02*
Y2636982D01*
X269100Y2631106D02*
Y2631358D01*
Y2636221D02*
Y2636982D01*
X269200Y2631172D02*
Y2631478D01*
Y2636101D02*
Y2637002D01*
X269300Y2631239D02*
Y2631598D01*
Y2635953D02*
Y2637035D01*
X269400Y2631306D02*
Y2631718D01*
Y2635686D02*
Y2637068D01*
X269500Y2631372D02*
Y2631838D01*
Y2635420D02*
Y2637141D01*
X269600Y2635187D02*
Y2637508D01*
X269700Y2635187D02*
Y2637508D01*
X270600Y2630450D02*
Y2630561D01*
Y2637292D02*
Y2637403D01*
X270700Y2630450D02*
Y2630561D01*
Y2637292D02*
Y2637403D01*
X270800Y2630450D02*
Y2630577D01*
Y2637271D02*
Y2637403D01*
X270900Y2630450D02*
Y2630597D01*
Y2637246D02*
Y2637403D01*
X271000Y2630450D02*
Y2630617D01*
Y2637221D02*
Y2637403D01*
X271100Y2630450D02*
Y2630637D01*
Y2637196D02*
Y2637403D01*
X271200Y2630450D02*
Y2630657D01*
Y2637151D02*
Y2637403D01*
X271300Y2630450D02*
Y2630730D01*
Y2637085D02*
Y2637403D01*
X271400Y2630450D02*
Y2630930D01*
Y2637018D02*
Y2637403D01*
X271500Y2630450D02*
Y2637403D01*
X271600Y2630450D02*
Y2637403D01*
X271700Y2630450D02*
Y2637403D01*
X271800Y2630450D02*
Y2637403D01*
X271900Y2630450D02*
Y2637403D01*
X272000Y2630450D02*
Y2637403D01*
X272100Y2630450D02*
Y2637403D01*
X272200Y2630450D02*
Y2637403D01*
X272300Y2630450D02*
Y2637403D01*
X272400Y2630450D02*
Y2637403D01*
X272500Y2630450D02*
Y2637403D01*
X272600Y2630450D02*
Y2637403D01*
X272700Y2630450D02*
Y2637403D01*
X272800Y2630450D02*
Y2637403D01*
X272900Y2630450D02*
Y2637403D01*
X273000Y2630450D02*
Y2637403D01*
X273100Y2630450D02*
Y2631088D01*
Y2633807D02*
Y2634151D01*
Y2636764D02*
Y2637403D01*
X273200Y2630450D02*
Y2630893D01*
Y2633818D02*
Y2634139D01*
Y2636964D02*
Y2637403D01*
X273300Y2630450D02*
Y2630792D01*
Y2633818D02*
Y2634139D01*
Y2637164D02*
Y2637403D01*
X273400Y2630450D02*
Y2630692D01*
Y2633818D02*
Y2634139D01*
Y2637199D02*
Y2637403D01*
X273500Y2630450D02*
Y2630651D01*
Y2633818D02*
Y2634139D01*
Y2637219D02*
Y2637403D01*
X273600Y2630450D02*
Y2630626D01*
Y2633818D02*
Y2634139D01*
Y2637239D02*
Y2637403D01*
X273700Y2630450D02*
Y2630601D01*
Y2633818D02*
Y2634139D01*
Y2637259D02*
Y2637403D01*
X273800Y2630450D02*
Y2630576D01*
Y2633818D02*
Y2634139D01*
Y2637279D02*
Y2637403D01*
X273900Y2630450D02*
Y2630561D01*
Y2633818D02*
Y2634139D01*
Y2637292D02*
Y2637403D01*
X274000Y2630450D02*
Y2630561D01*
Y2633818D02*
Y2634139D01*
Y2637292D02*
Y2637403D01*
X274100Y2633818D02*
Y2634139D01*
X274200Y2633818D02*
Y2634139D01*
X274300Y2633818D02*
Y2634139D01*
X274400Y2633818D02*
Y2634139D01*
X274500Y2633818D02*
Y2634139D01*
X274600Y2633818D02*
Y2634139D01*
X274700Y2633818D02*
Y2634139D01*
X274800Y2630450D02*
Y2630561D01*
Y2633818D02*
Y2634139D01*
Y2637292D02*
Y2637403D01*
X274900Y2630450D02*
Y2630561D01*
Y2633818D02*
Y2634139D01*
Y2637292D02*
Y2637403D01*
X275000Y2630450D02*
Y2630575D01*
Y2633818D02*
Y2634139D01*
Y2637274D02*
Y2637403D01*
X275100Y2630450D02*
Y2630595D01*
Y2633818D02*
Y2634139D01*
Y2637249D02*
Y2637403D01*
X275200Y2630450D02*
Y2630615D01*
Y2633818D02*
Y2634139D01*
Y2637224D02*
Y2637403D01*
X275300Y2630450D02*
Y2630635D01*
Y2633818D02*
Y2634139D01*
Y2637199D02*
Y2637403D01*
X275400Y2630450D02*
Y2630655D01*
Y2633818D02*
Y2634139D01*
Y2637158D02*
Y2637403D01*
X275500Y2630450D02*
Y2630709D01*
Y2633818D02*
Y2634139D01*
Y2637092D02*
Y2637403D01*
X275600Y2630450D02*
Y2630909D01*
Y2633818D02*
Y2634139D01*
Y2637025D02*
Y2637403D01*
X275700Y2630450D02*
Y2631109D01*
Y2633795D02*
Y2634163D01*
Y2636953D02*
Y2637403D01*
X275800Y2630450D02*
Y2637403D01*
X275900Y2630450D02*
Y2637403D01*
X276000Y2630450D02*
Y2637403D01*
X276100Y2630450D02*
Y2637403D01*
X276200Y2630450D02*
Y2637403D01*
X276300Y2630450D02*
Y2637403D01*
X276400Y2630450D02*
Y2637403D01*
X276500Y2630450D02*
Y2637403D01*
X276600Y2630450D02*
Y2637403D01*
X276700Y2630450D02*
Y2637403D01*
X276800Y2630450D02*
Y2637403D01*
X276900Y2630450D02*
Y2637403D01*
X277000Y2630450D02*
Y2637403D01*
X277100Y2630450D02*
Y2637403D01*
X277200Y2630450D02*
Y2637403D01*
X277300Y2630450D02*
Y2631109D01*
Y2636743D02*
Y2637403D01*
X277400Y2630450D02*
Y2630909D01*
Y2636943D02*
Y2637403D01*
X277500Y2630450D02*
Y2630803D01*
Y2637143D02*
Y2637403D01*
X277600Y2630450D02*
Y2630703D01*
Y2637197D02*
Y2637403D01*
X277700Y2630450D02*
Y2630654D01*
Y2637217D02*
Y2637403D01*
X277800Y2630450D02*
Y2630629D01*
Y2637237D02*
Y2637403D01*
X277900Y2630450D02*
Y2630604D01*
Y2637257D02*
Y2637403D01*
X278000Y2630450D02*
Y2630579D01*
Y2637277D02*
Y2637403D01*
X278100Y2630450D02*
Y2630561D01*
Y2637292D02*
Y2637403D01*
X278200Y2630450D02*
Y2630561D01*
Y2637292D02*
Y2637403D01*
X279000Y2631058D02*
Y2631216D01*
X279100Y2630758D02*
Y2631516D01*
X279200Y2630535D02*
Y2631739D01*
X279300Y2630502D02*
Y2631772D01*
X279400Y2630468D02*
Y2631805D01*
X279500Y2630435D02*
Y2631839D01*
X279600Y2630402D02*
Y2631872D01*
X279700Y2630368D02*
Y2631905D01*
X279800Y2630360D02*
Y2631914D01*
X279900Y2630393D02*
Y2631881D01*
X280000Y2630426D02*
Y2631847D01*
X280100Y2630460D02*
Y2631814D01*
X280200Y2630493D02*
Y2631781D01*
X280300Y2630526D02*
Y2631747D01*
X280400Y2630679D02*
Y2631595D01*
X280500Y2630979D02*
Y2631295D01*
*
G04 PC Custom Flashes*
G04 Layer Name ECE4460_PG_VersionB.pcb - flashes*
%LPD*%
*
*
G04 PC Circuitry*
G04 Layer Name ECE4460_PG_VersionB.pcb - circuitry*
%LPD*%
*
G54D10*
G54D11*
X124500Y2950200D02*
X109500D01*
Y2949200*
X124500*
Y2950200*
X109500Y2949200D02*
Y2950200D01*
X110000Y2949200D02*
Y2950200D01*
X110500Y2949200D02*
Y2950200D01*
X111000Y2949200D02*
Y2950200D01*
X111500Y2949200D02*
Y2950200D01*
X112000Y2949200D02*
Y2950200D01*
X112500Y2949200D02*
Y2950200D01*
X113000Y2949200D02*
Y2950200D01*
X113500Y2949200D02*
Y2950200D01*
X114000Y2949200D02*
Y2950200D01*
X114500Y2949200D02*
Y2950200D01*
X115000Y2949200D02*
Y2950200D01*
X115500Y2949200D02*
Y2950200D01*
X116000Y2949200D02*
Y2950200D01*
X116500Y2949200D02*
Y2950200D01*
X117000Y2949200D02*
Y2950200D01*
X117500Y2949200D02*
Y2950200D01*
X118000Y2949200D02*
Y2950200D01*
X118500Y2949200D02*
Y2950200D01*
X119000Y2949200D02*
Y2950200D01*
X119500Y2949200D02*
Y2950200D01*
X120000Y2949200D02*
Y2950200D01*
X120500Y2949200D02*
Y2950200D01*
X121000Y2949200D02*
Y2950200D01*
X121500Y2949200D02*
Y2950200D01*
X122000Y2949200D02*
Y2950200D01*
X122500Y2949200D02*
Y2950200D01*
X123000Y2949200D02*
Y2950200D01*
X123500Y2949200D02*
Y2950200D01*
X124000Y2949200D02*
Y2950200D01*
X671500Y2949200D02*
X686500D01*
Y2950200*
X671500*
Y2949200*
Y2950200*
X672000Y2949200D02*
Y2950200D01*
X672500Y2949200D02*
Y2950200D01*
X673000Y2949200D02*
Y2950200D01*
X673500Y2949200D02*
Y2950200D01*
X674000Y2949200D02*
Y2950200D01*
X674500Y2949200D02*
Y2950200D01*
X675000Y2949200D02*
Y2950200D01*
X675500Y2949200D02*
Y2950200D01*
X676000Y2949200D02*
Y2950200D01*
X676500Y2949200D02*
Y2950200D01*
X677000Y2949200D02*
Y2950200D01*
X677500Y2949200D02*
Y2950200D01*
X678000Y2949200D02*
Y2950200D01*
X678500Y2949200D02*
Y2950200D01*
X679000Y2949200D02*
Y2950200D01*
X679500Y2949200D02*
Y2950200D01*
X680000Y2949200D02*
Y2950200D01*
X680500Y2949200D02*
Y2950200D01*
X681000Y2949200D02*
Y2950200D01*
X681500Y2949200D02*
Y2950200D01*
X682000Y2949200D02*
Y2950200D01*
X682500Y2949200D02*
Y2950200D01*
X683000Y2949200D02*
Y2950200D01*
X683500Y2949200D02*
Y2950200D01*
X684000Y2949200D02*
Y2950200D01*
X684500Y2949200D02*
Y2950200D01*
X685000Y2949200D02*
Y2950200D01*
X685500Y2949200D02*
Y2950200D01*
X686000Y2949200D02*
Y2950200D01*
X671500Y2799200D02*
X686500D01*
Y2800200*
X671500*
Y2799200*
Y2800200*
X672000Y2799200D02*
Y2800200D01*
X672500Y2799200D02*
Y2800200D01*
X673000Y2799200D02*
Y2800200D01*
X673500Y2799200D02*
Y2800200D01*
X674000Y2799200D02*
Y2800200D01*
X674500Y2799200D02*
Y2800200D01*
X675000Y2799200D02*
Y2800200D01*
X675500Y2799200D02*
Y2800200D01*
X676000Y2799200D02*
Y2800200D01*
X676500Y2799200D02*
Y2800200D01*
X677000Y2799200D02*
Y2800200D01*
X677500Y2799200D02*
Y2800200D01*
X678000Y2799200D02*
Y2800200D01*
X678500Y2799200D02*
Y2800200D01*
X679000Y2799200D02*
Y2800200D01*
X679500Y2799200D02*
Y2800200D01*
X680000Y2799200D02*
Y2800200D01*
X680500Y2799200D02*
Y2800200D01*
X681000Y2799200D02*
Y2800200D01*
X681500Y2799200D02*
Y2800200D01*
X682000Y2799200D02*
Y2800200D01*
X682500Y2799200D02*
Y2800200D01*
X683000Y2799200D02*
Y2800200D01*
X683500Y2799200D02*
Y2800200D01*
X684000Y2799200D02*
Y2800200D01*
X684500Y2799200D02*
Y2800200D01*
X685000Y2799200D02*
Y2800200D01*
X685500Y2799200D02*
Y2800200D01*
X686000Y2799200D02*
Y2800200D01*
X671500Y2699200D02*
X686500D01*
Y2700200*
X671500*
Y2699200*
Y2700200*
X672000Y2699200D02*
Y2700200D01*
X672500Y2699200D02*
Y2700200D01*
X673000Y2699200D02*
Y2700200D01*
X673500Y2699200D02*
Y2700200D01*
X674000Y2699200D02*
Y2700200D01*
X674500Y2699200D02*
Y2700200D01*
X675000Y2699200D02*
Y2700200D01*
X675500Y2699200D02*
Y2700200D01*
X676000Y2699200D02*
Y2700200D01*
X676500Y2699200D02*
Y2700200D01*
X677000Y2699200D02*
Y2700200D01*
X677500Y2699200D02*
Y2700200D01*
X678000Y2699200D02*
Y2700200D01*
X678500Y2699200D02*
Y2700200D01*
X679000Y2699200D02*
Y2700200D01*
X679500Y2699200D02*
Y2700200D01*
X680000Y2699200D02*
Y2700200D01*
X680500Y2699200D02*
Y2700200D01*
X681000Y2699200D02*
Y2700200D01*
X681500Y2699200D02*
Y2700200D01*
X682000Y2699200D02*
Y2700200D01*
X682500Y2699200D02*
Y2700200D01*
X683000Y2699200D02*
Y2700200D01*
X683500Y2699200D02*
Y2700200D01*
X684000Y2699200D02*
Y2700200D01*
X684500Y2699200D02*
Y2700200D01*
X685000Y2699200D02*
Y2700200D01*
X685500Y2699200D02*
Y2700200D01*
X686000Y2699200D02*
Y2700200D01*
X124500D02*
X109500D01*
Y2699200*
X124500*
Y2700200*
X109500Y2699200D02*
Y2700200D01*
X110000Y2699200D02*
Y2700200D01*
X110500Y2699200D02*
Y2700200D01*
X111000Y2699200D02*
Y2700200D01*
X111500Y2699200D02*
Y2700200D01*
X112000Y2699200D02*
Y2700200D01*
X112500Y2699200D02*
Y2700200D01*
X113000Y2699200D02*
Y2700200D01*
X113500Y2699200D02*
Y2700200D01*
X114000Y2699200D02*
Y2700200D01*
X114500Y2699200D02*
Y2700200D01*
X115000Y2699200D02*
Y2700200D01*
X115500Y2699200D02*
Y2700200D01*
X116000Y2699200D02*
Y2700200D01*
X116500Y2699200D02*
Y2700200D01*
X117000Y2699200D02*
Y2700200D01*
X117500Y2699200D02*
Y2700200D01*
X118000Y2699200D02*
Y2700200D01*
X118500Y2699200D02*
Y2700200D01*
X119000Y2699200D02*
Y2700200D01*
X119500Y2699200D02*
Y2700200D01*
X120000Y2699200D02*
Y2700200D01*
X120500Y2699200D02*
Y2700200D01*
X121000Y2699200D02*
Y2700200D01*
X121500Y2699200D02*
Y2700200D01*
X122000Y2699200D02*
Y2700200D01*
X122500Y2699200D02*
Y2700200D01*
X123000Y2699200D02*
Y2700200D01*
X123500Y2699200D02*
Y2700200D01*
X124000Y2699200D02*
Y2700200D01*
X124500Y2900200D02*
X109500D01*
Y2899200*
X124500*
Y2900200*
X109500Y2899200D02*
Y2900200D01*
X110000Y2899200D02*
Y2900200D01*
X110500Y2899200D02*
Y2900200D01*
X111000Y2899200D02*
Y2900200D01*
X111500Y2899200D02*
Y2900200D01*
X112000Y2899200D02*
Y2900200D01*
X112500Y2899200D02*
Y2900200D01*
X113000Y2899200D02*
Y2900200D01*
X113500Y2899200D02*
Y2900200D01*
X114000Y2899200D02*
Y2900200D01*
X114500Y2899200D02*
Y2900200D01*
X115000Y2899200D02*
Y2900200D01*
X115500Y2899200D02*
Y2900200D01*
X116000Y2899200D02*
Y2900200D01*
X116500Y2899200D02*
Y2900200D01*
X117000Y2899200D02*
Y2900200D01*
X117500Y2899200D02*
Y2900200D01*
X118000Y2899200D02*
Y2900200D01*
X118500Y2899200D02*
Y2900200D01*
X119000Y2899200D02*
Y2900200D01*
X119500Y2899200D02*
Y2900200D01*
X120000Y2899200D02*
Y2900200D01*
X120500Y2899200D02*
Y2900200D01*
X121000Y2899200D02*
Y2900200D01*
X121500Y2899200D02*
Y2900200D01*
X122000Y2899200D02*
Y2900200D01*
X122500Y2899200D02*
Y2900200D01*
X123000Y2899200D02*
Y2900200D01*
X123500Y2899200D02*
Y2900200D01*
X124000Y2899200D02*
Y2900200D01*
X124500Y2850200D02*
X109500D01*
Y2849200*
X124500*
Y2850200*
X109500Y2849200D02*
Y2850200D01*
X110000Y2849200D02*
Y2850200D01*
X110500Y2849200D02*
Y2850200D01*
X111000Y2849200D02*
Y2850200D01*
X111500Y2849200D02*
Y2850200D01*
X112000Y2849200D02*
Y2850200D01*
X112500Y2849200D02*
Y2850200D01*
X113000Y2849200D02*
Y2850200D01*
X113500Y2849200D02*
Y2850200D01*
X114000Y2849200D02*
Y2850200D01*
X114500Y2849200D02*
Y2850200D01*
X115000Y2849200D02*
Y2850200D01*
X115500Y2849200D02*
Y2850200D01*
X116000Y2849200D02*
Y2850200D01*
X116500Y2849200D02*
Y2850200D01*
X117000Y2849200D02*
Y2850200D01*
X117500Y2849200D02*
Y2850200D01*
X118000Y2849200D02*
Y2850200D01*
X118500Y2849200D02*
Y2850200D01*
X119000Y2849200D02*
Y2850200D01*
X119500Y2849200D02*
Y2850200D01*
X120000Y2849200D02*
Y2850200D01*
X120500Y2849200D02*
Y2850200D01*
X121000Y2849200D02*
Y2850200D01*
X121500Y2849200D02*
Y2850200D01*
X122000Y2849200D02*
Y2850200D01*
X122500Y2849200D02*
Y2850200D01*
X123000Y2849200D02*
Y2850200D01*
X123500Y2849200D02*
Y2850200D01*
X124000Y2849200D02*
Y2850200D01*
X124500Y2800200D02*
X109500D01*
Y2799200*
X124500*
Y2800200*
X109500Y2799200D02*
Y2800200D01*
X110000Y2799200D02*
Y2800200D01*
X110500Y2799200D02*
Y2800200D01*
X111000Y2799200D02*
Y2800200D01*
X111500Y2799200D02*
Y2800200D01*
X112000Y2799200D02*
Y2800200D01*
X112500Y2799200D02*
Y2800200D01*
X113000Y2799200D02*
Y2800200D01*
X113500Y2799200D02*
Y2800200D01*
X114000Y2799200D02*
Y2800200D01*
X114500Y2799200D02*
Y2800200D01*
X115000Y2799200D02*
Y2800200D01*
X115500Y2799200D02*
Y2800200D01*
X116000Y2799200D02*
Y2800200D01*
X116500Y2799200D02*
Y2800200D01*
X117000Y2799200D02*
Y2800200D01*
X117500Y2799200D02*
Y2800200D01*
X118000Y2799200D02*
Y2800200D01*
X118500Y2799200D02*
Y2800200D01*
X119000Y2799200D02*
Y2800200D01*
X119500Y2799200D02*
Y2800200D01*
X120000Y2799200D02*
Y2800200D01*
X120500Y2799200D02*
Y2800200D01*
X121000Y2799200D02*
Y2800200D01*
X121500Y2799200D02*
Y2800200D01*
X122000Y2799200D02*
Y2800200D01*
X122500Y2799200D02*
Y2800200D01*
X123000Y2799200D02*
Y2800200D01*
X123500Y2799200D02*
Y2800200D01*
X124000Y2799200D02*
Y2800200D01*
X124500Y2750200D02*
X109500D01*
Y2749200*
X124500*
Y2750200*
X109500Y2749200D02*
Y2750200D01*
X110000Y2749200D02*
Y2750200D01*
X110500Y2749200D02*
Y2750200D01*
X111000Y2749200D02*
Y2750200D01*
X111500Y2749200D02*
Y2750200D01*
X112000Y2749200D02*
Y2750200D01*
X112500Y2749200D02*
Y2750200D01*
X113000Y2749200D02*
Y2750200D01*
X113500Y2749200D02*
Y2750200D01*
X114000Y2749200D02*
Y2750200D01*
X114500Y2749200D02*
Y2750200D01*
X115000Y2749200D02*
Y2750200D01*
X115500Y2749200D02*
Y2750200D01*
X116000Y2749200D02*
Y2750200D01*
X116500Y2749200D02*
Y2750200D01*
X117000Y2749200D02*
Y2750200D01*
X117500Y2749200D02*
Y2750200D01*
X118000Y2749200D02*
Y2750200D01*
X118500Y2749200D02*
Y2750200D01*
X119000Y2749200D02*
Y2750200D01*
X119500Y2749200D02*
Y2750200D01*
X120000Y2749200D02*
Y2750200D01*
X120500Y2749200D02*
Y2750200D01*
X121000Y2749200D02*
Y2750200D01*
X121500Y2749200D02*
Y2750200D01*
X122000Y2749200D02*
Y2750200D01*
X122500Y2749200D02*
Y2750200D01*
X123000Y2749200D02*
Y2750200D01*
X123500Y2749200D02*
Y2750200D01*
X124000Y2749200D02*
Y2750200D01*
X671500Y2899200D02*
X686500D01*
Y2900200*
X671500*
Y2899200*
Y2900200*
X672000Y2899200D02*
Y2900200D01*
X672500Y2899200D02*
Y2900200D01*
X673000Y2899200D02*
Y2900200D01*
X673500Y2899200D02*
Y2900200D01*
X674000Y2899200D02*
Y2900200D01*
X674500Y2899200D02*
Y2900200D01*
X675000Y2899200D02*
Y2900200D01*
X675500Y2899200D02*
Y2900200D01*
X676000Y2899200D02*
Y2900200D01*
X676500Y2899200D02*
Y2900200D01*
X677000Y2899200D02*
Y2900200D01*
X677500Y2899200D02*
Y2900200D01*
X678000Y2899200D02*
Y2900200D01*
X678500Y2899200D02*
Y2900200D01*
X679000Y2899200D02*
Y2900200D01*
X679500Y2899200D02*
Y2900200D01*
X680000Y2899200D02*
Y2900200D01*
X680500Y2899200D02*
Y2900200D01*
X681000Y2899200D02*
Y2900200D01*
X681500Y2899200D02*
Y2900200D01*
X682000Y2899200D02*
Y2900200D01*
X682500Y2899200D02*
Y2900200D01*
X683000Y2899200D02*
Y2900200D01*
X683500Y2899200D02*
Y2900200D01*
X684000Y2899200D02*
Y2900200D01*
X684500Y2899200D02*
Y2900200D01*
X685000Y2899200D02*
Y2900200D01*
X685500Y2899200D02*
Y2900200D01*
X686000Y2899200D02*
Y2900200D01*
X671500Y2849200D02*
X686500D01*
Y2850200*
X671500*
Y2849200*
Y2850200*
X672000Y2849200D02*
Y2850200D01*
X672500Y2849200D02*
Y2850200D01*
X673000Y2849200D02*
Y2850200D01*
X673500Y2849200D02*
Y2850200D01*
X674000Y2849200D02*
Y2850200D01*
X674500Y2849200D02*
Y2850200D01*
X675000Y2849200D02*
Y2850200D01*
X675500Y2849200D02*
Y2850200D01*
X676000Y2849200D02*
Y2850200D01*
X676500Y2849200D02*
Y2850200D01*
X677000Y2849200D02*
Y2850200D01*
X677500Y2849200D02*
Y2850200D01*
X678000Y2849200D02*
Y2850200D01*
X678500Y2849200D02*
Y2850200D01*
X679000Y2849200D02*
Y2850200D01*
X679500Y2849200D02*
Y2850200D01*
X680000Y2849200D02*
Y2850200D01*
X680500Y2849200D02*
Y2850200D01*
X681000Y2849200D02*
Y2850200D01*
X681500Y2849200D02*
Y2850200D01*
X682000Y2849200D02*
Y2850200D01*
X682500Y2849200D02*
Y2850200D01*
X683000Y2849200D02*
Y2850200D01*
X683500Y2849200D02*
Y2850200D01*
X684000Y2849200D02*
Y2850200D01*
X684500Y2849200D02*
Y2850200D01*
X685000Y2849200D02*
Y2850200D01*
X685500Y2849200D02*
Y2850200D01*
X686000Y2849200D02*
Y2850200D01*
X671500Y2749200D02*
X686500D01*
Y2750200*
X671500*
Y2749200*
Y2750200*
X672000Y2749200D02*
Y2750200D01*
X672500Y2749200D02*
Y2750200D01*
X673000Y2749200D02*
Y2750200D01*
X673500Y2749200D02*
Y2750200D01*
X674000Y2749200D02*
Y2750200D01*
X674500Y2749200D02*
Y2750200D01*
X675000Y2749200D02*
Y2750200D01*
X675500Y2749200D02*
Y2750200D01*
X676000Y2749200D02*
Y2750200D01*
X676500Y2749200D02*
Y2750200D01*
X677000Y2749200D02*
Y2750200D01*
X677500Y2749200D02*
Y2750200D01*
X678000Y2749200D02*
Y2750200D01*
X678500Y2749200D02*
Y2750200D01*
X679000Y2749200D02*
Y2750200D01*
X679500Y2749200D02*
Y2750200D01*
X680000Y2749200D02*
Y2750200D01*
X680500Y2749200D02*
Y2750200D01*
X681000Y2749200D02*
Y2750200D01*
X681500Y2749200D02*
Y2750200D01*
X682000Y2749200D02*
Y2750200D01*
X682500Y2749200D02*
Y2750200D01*
X683000Y2749200D02*
Y2750200D01*
X683500Y2749200D02*
Y2750200D01*
X684000Y2749200D02*
Y2750200D01*
X684500Y2749200D02*
Y2750200D01*
X685000Y2749200D02*
Y2750200D01*
X685500Y2749200D02*
Y2750200D01*
X686000Y2749200D02*
Y2750200D01*
X100500Y3099500D02*
X695500D01*
Y2616700*
X100500*
Y3099500*
G54D14*
X106100Y2673300D02*
Y2681900D01*
X109200Y2685000*
X113450*
X113500Y2684950*
X113550Y2684900*
X115800*
X119200Y2681500*
Y2673800*
X113500Y2684950D02*
X113700Y2684750D01*
Y2673100*
X221900Y2678200D02*
Y2678100D01*
X255100Y2674000D02*
X255300D01*
X245700Y2678400D02*
Y2678600D01*
X260000Y2678400D02*
X260200D01*
X274200Y2674100D02*
X274400D01*
X264700Y2678400D02*
Y2678800D01*
X674500Y2670900D02*
Y2679900D01*
X679550Y2684950*
X682500*
X682100Y2670900D02*
Y2685300D01*
X682150*
X682500Y2684950*
X686050*
X689700Y2681300*
Y2670900*
X465300Y2693600D02*
X485900D01*
X486100Y2693400*
Y2693300*
X112862Y2714400D02*
X113450D01*
X113500Y2714450*
X112862Y2714400D02*
X113100D01*
X106900Y2724500D02*
Y2718300D01*
X110800Y2714400*
X112862*
X113100D02*
X117000D01*
X117300Y2714100*
X120500Y2717300*
Y2724500*
X113100Y2714400D02*
X113450D01*
X113500Y2714450*
X106900Y2724500D02*
Y2731400D01*
X110450Y2734950*
X113500*
Y2714450D02*
Y2724600D01*
X215500Y2725300D02*
X215600Y2725400D01*
X215700*
X272200Y2725500D02*
X272500D01*
X676100Y2724500D02*
Y2719000D01*
X680400Y2714700*
X682250*
X682500Y2714450*
X676100Y2724500D02*
Y2731700D01*
X679350Y2734950*
X682500*
X682900Y2724500D02*
Y2735100D01*
X682500Y2714450D02*
Y2724100D01*
X682900Y2724500*
X682500Y2714450D02*
X686350D01*
X686600Y2714200*
X689700Y2717300*
Y2724500*
Y2730600*
X113500Y2724600D02*
Y2734950D01*
X113550Y2735000*
X116800*
X120500Y2731300*
Y2724500*
X682500Y2734950D02*
X682650Y2735100D01*
X682900*
X682500Y2734950D02*
X685350D01*
X689700Y2730600*
X113500Y2764579D02*
X113721Y2764800D01*
X115400*
X120100Y2769500*
Y2774900*
X113500Y2764579D02*
Y2764450D01*
X682500D02*
X682750D01*
X682900Y2764300*
Y2774900*
X682500Y2764450D02*
X682550Y2764400D01*
X687200*
X689700Y2766900*
Y2774900*
X106500D02*
Y2769800D01*
X111500Y2764800*
X113150*
X113500Y2764450*
X106500Y2774900D02*
Y2782100D01*
X109350Y2784950*
X113500*
X120100Y2774900D02*
Y2780600D01*
X113500Y2774600D02*
X113400Y2774700D01*
X113500Y2774600*
Y2764579*
X113400Y2774700D02*
Y2784850D01*
X113500Y2784950*
X113550Y2785000*
X115700*
X120100Y2780600*
X675700Y2774900D02*
Y2768000D01*
X679400Y2764300*
X679550Y2764450*
X682500*
X675700Y2774900D02*
Y2781000D01*
X679650Y2784950*
X682500*
X682900Y2774900D02*
Y2784600D01*
X682500Y2784950D02*
X682850Y2784600D01*
X682900*
X682500Y2784950D02*
X682650Y2785100D01*
X686600*
X689700Y2782000*
Y2774900*
X465300Y2793500D02*
X476900D01*
Y2793200*
X113500Y2814450D02*
X113350Y2814600D01*
X113500Y2814450*
X106500Y2824900D02*
Y2831100D01*
X110400Y2835000*
X113100*
X106500Y2824900D02*
Y2818900D01*
X110800Y2814600*
X113350*
X113300Y2824900D02*
Y2814650D01*
X113350Y2814600*
X113500Y2814450D02*
X117650D01*
X117800Y2814300*
X119700Y2816200*
Y2824900*
X682500D02*
Y2834950D01*
X675700Y2824900D02*
Y2818900D01*
X680000Y2814600*
X682350*
X682500Y2814450*
X675700Y2824900D02*
Y2831300D01*
X679350Y2834950*
X682500*
Y2814450D02*
Y2814700D01*
X687800*
X689700Y2816600*
Y2824900*
Y2830800*
X113300Y2835000D02*
X113100D01*
X116800*
X119700Y2832100*
Y2824900*
X113100Y2835000D02*
X113450D01*
X113500Y2834950*
X113300Y2824900D02*
Y2835000D01*
X113450*
X113500Y2834950*
X215900Y2834400D02*
X216718D01*
X238474Y2829800D02*
X238492Y2829818D01*
X274400Y2833900D02*
X274500Y2833800D01*
Y2832818*
X682600Y2834850D02*
X682500Y2834950D01*
X685550*
X689700Y2830800*
X107300Y2874500D02*
Y2868100D01*
X111000Y2864400*
X113450*
X113500Y2864450*
X115750Y2866700*
X120100*
Y2874900*
X113500Y2864450D02*
Y2874700D01*
X113700Y2874900*
X682500D02*
Y2864450D01*
X685950*
X686200Y2864200*
X688900Y2866900*
Y2874900*
X113700D02*
Y2882400D01*
X120100*
Y2874900*
X107300Y2874500D02*
Y2881700D01*
X110550Y2884950*
X113500*
X113700Y2884750*
Y2882400*
X676100Y2874900D02*
Y2869000D01*
X680000Y2865100*
X681850*
X682500Y2864450*
X676100Y2874900D02*
Y2882100D01*
X678950Y2884950*
X682500*
Y2874900*
Y2884950D02*
X682550Y2884900D01*
X684700*
X688900Y2880700*
Y2874900*
X465400Y2893600D02*
X477500D01*
X113500Y2914800D02*
Y2924300D01*
X113800Y2924600*
X113500Y2914800D02*
X117400D01*
X120100Y2917500*
Y2924600*
X107300D02*
Y2918000D01*
X110800Y2914500*
X113450*
X113500Y2914450*
X107300Y2924600D02*
Y2932000D01*
X110250Y2934950*
X113500*
Y2914450D02*
Y2914800D01*
X676100Y2924900D02*
Y2918400D01*
X680000Y2914500*
X682450*
X682500Y2914450*
X676100Y2924900D02*
Y2931100D01*
X680000Y2935000*
X682450*
X682500Y2934950*
Y2914450D02*
X682650Y2914600D01*
X682700*
Y2924900*
X682500Y2914450D02*
X682550Y2914400D01*
X687700*
X689300Y2916000*
Y2924900*
Y2931900*
X113500Y2934950D02*
X113750Y2935200D01*
X113800*
Y2924600*
X113500Y2934950D02*
X115950D01*
X120100Y2930800*
Y2924600*
X682500Y2934950D02*
X682700Y2934750D01*
Y2924900*
X682500Y2934950D02*
X682750Y2935200D01*
X686000*
X689300Y2931900*
X113500Y2964450D02*
X116750D01*
X117000Y2964200*
X119700Y2966900*
Y2975800*
X682500Y2976900D02*
Y2964450D01*
X682550Y2964500*
X687000*
X689300Y2966800*
Y2976900*
X107300Y2975700D02*
Y2968400D01*
X111500Y2964200*
X111750Y2964450*
X113500*
X113300Y2975700D02*
X113500Y2975500D01*
Y2964450*
X675300Y2976900D02*
Y2967800D01*
X678400Y2964700*
X682250*
X682500Y2964450*
G54D15*
X238492Y2829818D03*
Y2827259D03*
Y2824700D03*
Y2822141D03*
Y2819582D03*
Y2817023D03*
Y2814464D03*
Y2811905D03*
Y2809346D03*
Y2806787D03*
X262508D03*
Y2809346D03*
Y2811905D03*
Y2814464D03*
Y2817023D03*
Y2819582D03*
Y2822141D03*
Y2824700D03*
Y2827259D03*
Y2829818D03*
G54D16*
X255000Y2678400D03*
X260000D03*
X236300D03*
X241300D03*
X216900Y2678200D03*
X221900D03*
X274400Y2678500D03*
X279400D03*
X238700Y2782300D03*
X243700D03*
G54D17*
X523700Y2625600D03*
X529900D03*
G54D19*
X418100D03*
X369300Y2625900D03*
G54D20*
X428100Y2625600D03*
X379300Y2625900D03*
G54D21*
X501300Y2625600D03*
X491300D03*
G54D22*
X111000Y2949700D03*
X685000D03*
Y2799700D03*
Y2699700D03*
X111000D03*
Y2899700D03*
Y2849700D03*
Y2799700D03*
Y2749700D03*
X685000Y2899700D03*
Y2849700D03*
Y2749700D03*
G54D23*
X113500Y2964450D03*
Y2934950D03*
X682500D03*
Y2964450D03*
Y2784950D03*
Y2814450D03*
Y2684950D03*
Y2714450D03*
X113500D03*
Y2684950D03*
Y2914450D03*
Y2884950D03*
Y2864450D03*
Y2834950D03*
Y2814450D03*
Y2784950D03*
Y2764450D03*
Y2734950D03*
X682500Y2884950D03*
Y2914450D03*
Y2834950D03*
Y2864450D03*
Y2734950D03*
Y2764450D03*
G54D27*
X215900Y2834400D03*
Y2839400D03*
X274400Y2833900D03*
Y2838900D03*
G54D32*
X465400Y2893600D03*
Y2899800D03*
X465300Y2693600D03*
Y2699800D03*
Y2793500D03*
Y2799700D03*
G54D80*
X369500Y2635500D03*
X379200Y2635900D03*
X418300Y2636600D03*
X428300Y2636700D03*
X491200Y2633400D03*
X530000Y2633200D03*
X119200Y2673800D03*
X106100Y2673300D03*
X113700Y2673100D03*
X211500Y2678100D03*
X226800Y2678300D03*
X236400Y2674200D03*
X245700Y2678600D03*
X255300Y2674000D03*
X264700Y2678800D03*
X274400Y2674100D03*
X284400Y2678600D03*
X674500Y2670900D03*
X682100D03*
X689700D03*
X486100Y2693300D03*
X106900Y2724500D03*
X120500D03*
X113500Y2724600D03*
X215700Y2725400D03*
X234100Y2725500D03*
X243600Y2725400D03*
X224000Y2725700D03*
X262600Y2725800D03*
X252700Y2725300D03*
X272200Y2725500D03*
X281400Y2725300D03*
X676100Y2724500D03*
X682900D03*
X689700D03*
X106500Y2774900D03*
X120100D03*
X113400Y2774700D03*
X248500Y2782100D03*
X675700Y2774900D03*
X682900D03*
X689700D03*
X270500Y2806900D03*
X476900Y2793200D03*
X106500Y2824900D03*
X119700D03*
X113300D03*
X682500D03*
X675700D03*
X689700D03*
X222100Y2834500D03*
X215900Y2846000D03*
X268500Y2833700D03*
X274400Y2845000D03*
X107300Y2874500D03*
X120100Y2874900D03*
X113700D03*
X676100D03*
X682500D03*
X688900D03*
X477500Y2893600D03*
X107300Y2924600D03*
X113800D03*
X120100D03*
X676100Y2924900D03*
X682700D03*
X689300D03*
X107300Y2975700D03*
X113300D03*
X119700Y2975800D03*
X675300Y2976900D03*
X682500D03*
X689300D03*
G54D83*
X253500Y2731500D03*
X262500D03*
X215500D03*
X224500D03*
X234500D03*
X243500D03*
X272500D03*
X281500D03*
G54D84*
X576500Y2799700D03*
X581500D03*
X571800Y2699900D03*
X576800D03*
X207200Y2781900D03*
X202200D03*
X585100Y2899500D03*
X590100D03*
G54D86*
X170900Y2928300D03*
Y2923300D03*
G54D87*
X369300Y2625900D02*
Y2635100D01*
X369500Y2635500*
X418100Y2625600D02*
Y2636400D01*
X418300Y2636600*
X428100Y2625600D02*
Y2636500D01*
X428300Y2636700*
X501300Y2625600D02*
X523700D01*
X529900D02*
Y2632800D01*
X530000Y2633200*
X379200Y2635900D02*
X379300Y2635800D01*
Y2625900*
X491200Y2633400D02*
X491300Y2633300D01*
Y2625600*
X211500Y2678100D02*
X211600Y2678200D01*
X216900*
X221900D02*
X222000Y2678300D01*
X226800*
X241300Y2678400D02*
X245700D01*
X236300D02*
X236400Y2678300D01*
Y2674200*
X260000Y2678400D02*
X264700D01*
X255000D02*
X255100Y2678300D01*
Y2674000*
X274400Y2674100D02*
Y2678500D01*
X279400D02*
X279500Y2678600D01*
X284400*
X234100Y2725500D02*
Y2731100D01*
X234500Y2731500*
X224000Y2725700D02*
Y2731000D01*
X224500Y2731500*
X252700Y2725300D02*
Y2730700D01*
X253500Y2731500*
X272500Y2725500D02*
Y2731500D01*
X281400Y2725300D02*
Y2731400D01*
X281500Y2731500*
X215500D02*
Y2725300D01*
X243500Y2731500D02*
X243600Y2731400D01*
Y2725400*
X262500Y2731500D02*
X262600Y2731400D01*
Y2725800*
X207200Y2781900D02*
Y2801000D01*
X213000Y2806800*
X213013Y2806787*
X238492*
X207200Y2781900D02*
X207600Y2782300D01*
X238700*
X243700D02*
X248300D01*
X248500Y2782100*
X262508Y2806787D02*
X262621Y2806900D01*
X270500*
X216718Y2834400D02*
X221100Y2830018D01*
Y2829818*
X238492*
X215900Y2846000D02*
Y2839400D01*
Y2834400D02*
X216000Y2834500D01*
X222100*
X262508Y2829818D02*
X270100D01*
X274182Y2833900*
X274400*
X268500Y2833700D02*
X268700Y2833900D01*
X274400*
Y2845000D02*
Y2838900D01*
X465400Y2899800D02*
X584800D01*
X585100Y2899500*
G54D88*
X111000Y2699700D02*
X135400D01*
X202300Y2766600*
Y2806500*
X210300Y2814500*
X238456*
X238492Y2814464*
X576800Y2699900D02*
X684800D01*
X685000Y2699700*
X111000Y2749700D02*
X135600D01*
X202900Y2817000*
X238469*
X238492Y2817023*
X111000Y2799700D02*
X166600D01*
X186400Y2819500*
X238410*
X238492Y2819582*
X581500Y2799700D02*
X685000D01*
X262508Y2827259D02*
X283200D01*
X405600Y2949700*
X685000*
X262508Y2824700D02*
X288400D01*
X363400Y2899700*
X384900Y2921200*
X406600*
X428100Y2899700*
X428200Y2899800*
X465400*
X262508Y2822141D02*
X293100D01*
X320900Y2849900*
X683400*
X685000Y2849700*
X262508Y2819582D02*
X262726Y2819600D01*
X297400*
X317300Y2799700*
X576500*
X262508Y2817023D02*
X291200D01*
X358400Y2749823*
X374900Y2733323*
X399600*
X415800Y2749523*
X415977Y2749700*
X685000*
X262508Y2814464D02*
Y2814500D01*
X284400*
X399000Y2699900*
X571800*
X111000Y2849700D02*
X158900D01*
X186500Y2822100*
X238333*
X238492Y2822141*
X111000Y2899700D02*
X140300D01*
X163900Y2923300*
X170900*
X590100Y2899500D02*
X590300Y2899700D01*
X685000*
X170900Y2923300D02*
X176800D01*
X181700Y2918400*
Y2836600*
X194000Y2824700*
X238492*
X170900Y2928300D02*
X179900D01*
X193000Y2915200*
Y2836900*
X202641Y2827259*
X238492*
X116151Y2949800D02*
X142300D01*
X163800Y2928300*
X170900*
X116151Y2949800D02*
X116051Y2949700D01*
X111000*
G54D89*
X238474Y2829800D02*
X238492Y2829818D01*
X0Y0D02*
M02*
