*
*
G04 PADS VX.2.8 Build Number: 19810023 generated Gerber (RS-274-X) file*
G04 PC Version=2.1*
*
%IN "ECE4460_PG_VersionB.pcb"*%
*
%MOIN*%
*
%FSLAX35Y35*%
*
*
*
*
G04 PC Standard Apertures*
*
*
G04 Thermal Relief Aperture macro.*
%AMTER*
1,1,$1,0,0*
1,0,$1-$2,0,0*
21,0,$3,$4,0,0,45*
21,0,$3,$4,0,0,135*
%
*
*
G04 Annular Aperture macro.*
%AMANN*
1,1,$1,0,0*
1,0,$2,0,0*
%
*
*
G04 Odd Aperture macro.*
%AMODD*
1,1,$1,0,0*
1,0,$1-0.005,0,0*
%
*
*
G04 PC Custom Aperture Macros*
*
*
*
*
*
*
G04 PC Aperture Table*
*
%ADD010C,0.001*%
%ADD011C,0.01*%
%ADD014C,0.006*%
%ADD019R,0.06X0.06*%
%ADD020C,0.06*%
%ADD023R,0.2X0.15*%
%ADD080C,0.04*%
%ADD087C,0.01641*%
*
*
*
*
G04 PC Circuitry*
G04 Layer Name ECE4460_PG_VersionB.pcb - circuitry*
%LPD*%
*
*
G04 PC Custom Flashes*
G04 Layer Name ECE4460_PG_VersionB.pcb - flashes*
%LPD*%
*
*
G04 PC Circuitry*
G04 Layer Name ECE4460_PG_VersionB.pcb - circuitry*
%LPD*%
*
G54D10*
G54D11*
G01X100500Y3099500D02*
X695500D01*
Y2616700*
X100500*
Y3099500*
G54D14*
X368900Y2625500D02*
X369300Y2625900D01*
X119200Y2673800D02*
Y2679250D01*
X113500Y2684950*
X118850Y2679900D02*
X113650Y2685100D01*
X106100Y2673300D02*
Y2681400D01*
X109700Y2685000*
X113700Y2673100D02*
Y2684750D01*
X113500Y2684950*
X113450Y2685000*
X109700*
X113500Y2684950D02*
X113650Y2685100D01*
X674500Y2670900D02*
Y2681300D01*
X678300Y2685100*
X682100Y2670900D02*
X682500Y2671300D01*
Y2684950*
X682350Y2685100*
X678300*
X682500Y2684950D02*
X682550Y2685000D01*
X686400*
X689700Y2670900D02*
Y2681700D01*
X686400Y2685000*
X109600Y2714400D02*
X106900Y2717100D01*
Y2724500*
X109600Y2714400D02*
X113450D01*
X113500Y2714450*
X106900Y2724500D02*
Y2732300D01*
X109600Y2735000*
X120500Y2724500D02*
Y2731500D01*
X117050Y2734950*
X113500*
Y2724600*
Y2714450D02*
X113550Y2714500D01*
X113700*
X113500Y2714700*
Y2724600*
Y2714450D02*
X113550Y2714500D01*
X117900*
X120500Y2717100*
Y2724500*
X676100D02*
Y2730900D01*
X680200Y2735000*
X682500*
X682900Y2724500D02*
Y2735100D01*
X679400Y2714000D02*
X676100Y2717300D01*
Y2724500*
X679400Y2714000D02*
X683100D01*
X682650Y2714450*
X682500*
X682900Y2714850*
Y2724500*
X688100Y2714300D02*
X689700Y2715900D01*
Y2724500*
X688100Y2714300D02*
X687950Y2714450D01*
X682500*
X689700Y2724500D02*
Y2730700D01*
X685800Y2734600*
X682400*
X682500Y2734700*
Y2734950*
X113500D02*
X113450Y2735000D01*
X109600*
X682500D02*
X682800D01*
X682900Y2735100*
X682500Y2734950D02*
Y2735000D01*
X113500Y2768300D02*
Y2774600D01*
X113400Y2774700*
X113500Y2768300D02*
X120100Y2774900D01*
X113500Y2764450D02*
X110150Y2767800D01*
X106500*
Y2774900*
X113500Y2764450D02*
Y2768300D01*
X682500Y2764450D02*
X682350Y2764600D01*
X679100*
X675700Y2768000*
Y2774900*
X682500Y2764450D02*
X682900Y2764850D01*
Y2774900*
X688000Y2763800D02*
X689700Y2765500D01*
Y2774900*
X688000Y2763800D02*
X687350Y2764450D01*
X682500*
X113500Y2781175D02*
Y2784950D01*
X106500Y2774900D02*
X113500Y2781900D01*
Y2784950*
X120100Y2774900D02*
X113825Y2781175D01*
X113500*
X113400Y2774700D02*
X112800D01*
X113500Y2775800*
X113400Y2774700D02*
X113500Y2774800D01*
Y2781175*
X682200Y2784800D02*
X682350D01*
X682500Y2784950*
X675700Y2774900D02*
Y2781600D01*
X678900Y2784800*
X682200*
X682900Y2774900D02*
Y2785300D01*
X682500Y2784950D02*
X682850Y2785300D01*
X682900*
X689700Y2774900D02*
Y2782300D01*
X687200Y2784800*
X682200*
X108500Y2814400D02*
X106500Y2816400D01*
Y2824900*
X108500Y2814400D02*
X113450D01*
X113500Y2814450*
X117300Y2814400D02*
X119700Y2816800D01*
Y2824900*
X117300Y2814400D02*
X113550D01*
X113500Y2814450*
X106500Y2824900D02*
Y2832100D01*
X109500Y2835100*
X119700Y2824900D02*
Y2830100D01*
X114800Y2835000*
X113300Y2824900D02*
Y2835100D01*
X113500Y2814450D02*
Y2824700D01*
X113300Y2824900*
X675700D02*
Y2831900D01*
X678700Y2834900*
X682450*
X682500Y2834950*
X682600Y2825000D02*
Y2834850D01*
X682500Y2834950*
Y2814450D02*
X682600Y2814850D01*
Y2825000*
X682500Y2814450D02*
X682350Y2814600D01*
X678900*
X675700Y2817800*
Y2824900*
X686700Y2814100D02*
X689700Y2817100D01*
Y2824900*
X686700Y2814100D02*
X686350Y2814450D01*
X682500*
X689700Y2824900D02*
Y2830900D01*
X685700Y2834900*
X682550*
X682500Y2834950*
X113500D02*
X113350Y2835100D01*
X113300*
X113500Y2834950D02*
X113350Y2835100D01*
X109500*
X113500Y2834950D02*
X113550Y2835000D01*
X114800*
X113700Y2874900D02*
Y2868300D01*
X120100Y2874700*
Y2874900*
X113500Y2864450D02*
X107300D01*
Y2874500*
X113500Y2864450D02*
X113700Y2864650D01*
Y2868300*
X682450Y2864500D02*
X679200D01*
X676100Y2867600*
Y2874900*
X682450Y2864500D02*
X682500Y2864550D01*
Y2874900*
Y2864450D02*
X682450Y2864500D01*
X687000Y2864400D02*
X688900Y2866300D01*
Y2874900*
X687000Y2864400D02*
X686900Y2864500D01*
X682450*
X107300Y2874500D02*
Y2882400D01*
X113500*
Y2884950*
X120100Y2874900D02*
X119850D01*
Y2878600*
X113500Y2884950*
X113700Y2874900D02*
Y2884750D01*
X113500Y2884950*
X676100Y2874900D02*
Y2881400D01*
X679800Y2885100*
X682500Y2874900D02*
Y2884950D01*
X682350Y2885100*
X679800*
X688900Y2874900D02*
Y2882700D01*
X686700Y2884900*
X682550*
X682500Y2884950*
X117700Y2914400D02*
X120100Y2916800D01*
Y2924600*
X117700Y2914400D02*
X113550D01*
X113500Y2914450*
X107300Y2924600D02*
Y2931300D01*
X110900Y2934900*
X113450*
X113500Y2934950*
X113800Y2924600D02*
Y2934650D01*
X113500Y2934950*
X120100Y2924600D02*
Y2932200D01*
X117000Y2935300*
X113500Y2914450D02*
X113350Y2914600D01*
X109600*
X107300Y2916900*
Y2924600*
X113500Y2914450D02*
X113800Y2914750D01*
Y2924600*
X676100Y2924900D02*
Y2930700D01*
X680400Y2935000*
X682700Y2924900D02*
Y2934750D01*
X682500Y2934950*
Y2914450D02*
X682700D01*
Y2924900*
X682500Y2914450D02*
X682450Y2914500D01*
X678900*
X676100Y2917300*
Y2924900*
X687300Y2914400D02*
X689300Y2916400D01*
Y2924900*
X687300Y2914400D02*
X682550D01*
X682500Y2914450*
X689300Y2924900D02*
Y2931400D01*
X685750Y2934950*
X682500*
X113500D02*
X116650D01*
X117000Y2935300*
X682500Y2934950D02*
X682450Y2935000D01*
X680400*
X116000Y2963900D02*
X115450Y2964450D01*
X113500*
X116000Y2963900D02*
X119700Y2966900D01*
Y2975800*
X113700Y2964650D02*
X113500Y2964450D01*
X108150Y2969800*
X107300*
Y2975700*
X113500Y2964450D02*
Y2975500D01*
X113300Y2975700*
X682500Y2976900D02*
Y2964450D01*
X682450Y2964500*
X678900*
X675300Y2968100*
Y2976900*
X684893Y2963707D02*
X684150Y2964450D01*
X682500*
X684893Y2963707D02*
X686407D01*
X689300Y2966600*
Y2976900*
Y2967500D02*
X685200Y2963400D01*
X684893Y2963707*
G54D19*
X418100Y2625600D03*
X369300Y2625900D03*
G54D20*
X428100Y2625600D03*
X379300Y2625900D03*
G54D23*
X113500Y2964450D03*
Y2934950D03*
X682500D03*
Y2964450D03*
Y2784950D03*
Y2814450D03*
Y2684950D03*
Y2714450D03*
X113500D03*
Y2684950D03*
Y2914450D03*
Y2884950D03*
Y2864450D03*
Y2834950D03*
Y2814450D03*
Y2784950D03*
Y2764450D03*
Y2734950D03*
X682500Y2884950D03*
Y2914450D03*
Y2834950D03*
Y2864450D03*
Y2734950D03*
Y2764450D03*
G54D80*
X379200Y2635900D03*
X369500Y2635500D03*
X418300Y2636600D03*
X428300Y2636700D03*
X491200Y2633400D03*
X530000Y2633200D03*
X119200Y2673800D03*
X106100Y2673300D03*
X113700Y2673100D03*
X211500Y2678100D03*
X236400Y2674200D03*
X226800Y2678300D03*
X255300Y2674000D03*
X245700Y2678600D03*
X274400Y2674100D03*
X264700Y2678800D03*
X284400Y2678600D03*
X674500Y2670900D03*
X682100D03*
X689700D03*
X486100Y2693300D03*
X106900Y2724500D03*
X120500D03*
X113500Y2724600D03*
X215700Y2725400D03*
X243600D03*
X234100Y2725500D03*
X224000Y2725700D03*
X262600Y2725800D03*
X252700Y2725300D03*
X281400D03*
X272200Y2725500D03*
X676100Y2724500D03*
X682900D03*
X689700D03*
X106500Y2774900D03*
X120100D03*
X113400Y2774700D03*
X248500Y2782100D03*
X675700Y2774900D03*
X682900D03*
X689700D03*
X270500Y2806900D03*
X476900Y2793200D03*
X106500Y2824900D03*
X119700D03*
X113300D03*
X675700D03*
X682600Y2825000D03*
X689700Y2824900D03*
X222100Y2834500D03*
X215900Y2846000D03*
X268500Y2833700D03*
X274400Y2845000D03*
X107300Y2874500D03*
X120100Y2874900D03*
X113700D03*
X676100D03*
X682500D03*
X688900D03*
X477500Y2893600D03*
X107300Y2924600D03*
X113800D03*
X120100D03*
X676100Y2924900D03*
X682700D03*
X689300D03*
X107300Y2975700D03*
X113300D03*
X119700Y2975800D03*
X675300Y2976900D03*
X682500D03*
X689300D03*
G54D87*
X268500Y2833400D02*
Y2833700D01*
X0Y0D02*
M02*
