*
*
G04 PADS VX.2.8 Build Number: 19810023 generated Gerber (RS-274-X) file*
G04 PC Version=2.1*
*
%IN "ECE4460_PG_VersionB.pcb"*%
*
%MOIN*%
*
%FSLAX35Y35*%
*
*
*
*
G04 PC Standard Apertures*
*
*
G04 Thermal Relief Aperture macro.*
%AMTER*
1,1,$1,0,0*
1,0,$1-$2,0,0*
21,0,$3,$4,0,0,45*
21,0,$3,$4,0,0,135*
%
*
*
G04 Annular Aperture macro.*
%AMANN*
1,1,$1,0,0*
1,0,$2,0,0*
%
*
*
G04 Odd Aperture macro.*
%AMODD*
1,1,$1,0,0*
1,0,$1-0.005,0,0*
%
*
*
G04 PC Custom Aperture Macros*
*
*
*
*
*
*
G04 PC Aperture Table*
*
%ADD010C,0.001*%
%ADD011C,0.01*%
%ADD021R,0.07X0.06*%
%ADD053R,0.096X0.026*%
%ADD054R,0.04X0.035*%
%ADD055R,0.048X0.04*%
%ADD057R,0.07X0.07*%
%ADD058C,0.07*%
%ADD059R,0.08X0.07*%
%ADD060O,0.16X0.04*%
%ADD061R,0.21X0.16*%
%ADD065R,0.035X0.04*%
%ADD070R,0.04X0.048*%
%ADD085R,0.035X0.03*%
%ADD090R,0.03X0.035*%
*
*
*
*
G04 PC Circuitry*
G04 Layer Name ECE4460_PG_VersionB.pcb - circuitry*
%LPD*%
*
*
G04 PC Custom Flashes*
G04 Layer Name ECE4460_PG_VersionB.pcb - flashes*
%LPD*%
*
*
G04 PC Circuitry*
G04 Layer Name ECE4460_PG_VersionB.pcb - circuitry*
%LPD*%
*
G54D10*
G54D11*
G01X109000Y2950700D02*
Y2948700D01*
X125000*
Y2950700*
X109000*
Y2948700D02*
Y2950700D01*
X109500Y2948700D02*
Y2950700D01*
X110000Y2948700D02*
Y2950700D01*
X110500Y2948700D02*
Y2950700D01*
X111000Y2948700D02*
Y2950700D01*
X111500Y2948700D02*
Y2950700D01*
X112000Y2948700D02*
Y2950700D01*
X112500Y2948700D02*
Y2950700D01*
X113000Y2948700D02*
Y2950700D01*
X113500Y2948700D02*
Y2950700D01*
X114000Y2948700D02*
Y2950700D01*
X114500Y2948700D02*
Y2950700D01*
X115000Y2948700D02*
Y2950700D01*
X115500Y2948700D02*
Y2950700D01*
X116000Y2948700D02*
Y2950700D01*
X116500Y2948700D02*
Y2950700D01*
X117000Y2948700D02*
Y2950700D01*
X117500Y2948700D02*
Y2950700D01*
X118000Y2948700D02*
Y2950700D01*
X118500Y2948700D02*
Y2950700D01*
X119000Y2948700D02*
Y2950700D01*
X119500Y2948700D02*
Y2950700D01*
X120000Y2948700D02*
Y2950700D01*
X120500Y2948700D02*
Y2950700D01*
X121000Y2948700D02*
Y2950700D01*
X121500Y2948700D02*
Y2950700D01*
X122000Y2948700D02*
Y2950700D01*
X122500Y2948700D02*
Y2950700D01*
X123000Y2948700D02*
Y2950700D01*
X123500Y2948700D02*
Y2950700D01*
X124000Y2948700D02*
Y2950700D01*
X124500Y2948700D02*
Y2950700D01*
X687000Y2948700D02*
Y2950700D01*
X671000*
Y2948700*
X687000*
X671000D02*
Y2950700D01*
X671500Y2948700D02*
Y2950700D01*
X672000Y2948700D02*
Y2950700D01*
X672500Y2948700D02*
Y2950700D01*
X673000Y2948700D02*
Y2950700D01*
X673500Y2948700D02*
Y2950700D01*
X674000Y2948700D02*
Y2950700D01*
X674500Y2948700D02*
Y2950700D01*
X675000Y2948700D02*
Y2950700D01*
X675500Y2948700D02*
Y2950700D01*
X676000Y2948700D02*
Y2950700D01*
X676500Y2948700D02*
Y2950700D01*
X677000Y2948700D02*
Y2950700D01*
X677500Y2948700D02*
Y2950700D01*
X678000Y2948700D02*
Y2950700D01*
X678500Y2948700D02*
Y2950700D01*
X679000Y2948700D02*
Y2950700D01*
X679500Y2948700D02*
Y2950700D01*
X680000Y2948700D02*
Y2950700D01*
X680500Y2948700D02*
Y2950700D01*
X681000Y2948700D02*
Y2950700D01*
X681500Y2948700D02*
Y2950700D01*
X682000Y2948700D02*
Y2950700D01*
X682500Y2948700D02*
Y2950700D01*
X683000Y2948700D02*
Y2950700D01*
X683500Y2948700D02*
Y2950700D01*
X684000Y2948700D02*
Y2950700D01*
X684500Y2948700D02*
Y2950700D01*
X685000Y2948700D02*
Y2950700D01*
X685500Y2948700D02*
Y2950700D01*
X686000Y2948700D02*
Y2950700D01*
X686500Y2948700D02*
Y2950700D01*
X687000Y2798700D02*
Y2800700D01*
X671000*
Y2798700*
X687000*
X671000D02*
Y2800700D01*
X671500Y2798700D02*
Y2800700D01*
X672000Y2798700D02*
Y2800700D01*
X672500Y2798700D02*
Y2800700D01*
X673000Y2798700D02*
Y2800700D01*
X673500Y2798700D02*
Y2800700D01*
X674000Y2798700D02*
Y2800700D01*
X674500Y2798700D02*
Y2800700D01*
X675000Y2798700D02*
Y2800700D01*
X675500Y2798700D02*
Y2800700D01*
X676000Y2798700D02*
Y2800700D01*
X676500Y2798700D02*
Y2800700D01*
X677000Y2798700D02*
Y2800700D01*
X677500Y2798700D02*
Y2800700D01*
X678000Y2798700D02*
Y2800700D01*
X678500Y2798700D02*
Y2800700D01*
X679000Y2798700D02*
Y2800700D01*
X679500Y2798700D02*
Y2800700D01*
X680000Y2798700D02*
Y2800700D01*
X680500Y2798700D02*
Y2800700D01*
X681000Y2798700D02*
Y2800700D01*
X681500Y2798700D02*
Y2800700D01*
X682000Y2798700D02*
Y2800700D01*
X682500Y2798700D02*
Y2800700D01*
X683000Y2798700D02*
Y2800700D01*
X683500Y2798700D02*
Y2800700D01*
X684000Y2798700D02*
Y2800700D01*
X684500Y2798700D02*
Y2800700D01*
X685000Y2798700D02*
Y2800700D01*
X685500Y2798700D02*
Y2800700D01*
X686000Y2798700D02*
Y2800700D01*
X686500Y2798700D02*
Y2800700D01*
X687000Y2698700D02*
Y2700700D01*
X671000*
Y2698700*
X687000*
X671000D02*
Y2700700D01*
X671500Y2698700D02*
Y2700700D01*
X672000Y2698700D02*
Y2700700D01*
X672500Y2698700D02*
Y2700700D01*
X673000Y2698700D02*
Y2700700D01*
X673500Y2698700D02*
Y2700700D01*
X674000Y2698700D02*
Y2700700D01*
X674500Y2698700D02*
Y2700700D01*
X675000Y2698700D02*
Y2700700D01*
X675500Y2698700D02*
Y2700700D01*
X676000Y2698700D02*
Y2700700D01*
X676500Y2698700D02*
Y2700700D01*
X677000Y2698700D02*
Y2700700D01*
X677500Y2698700D02*
Y2700700D01*
X678000Y2698700D02*
Y2700700D01*
X678500Y2698700D02*
Y2700700D01*
X679000Y2698700D02*
Y2700700D01*
X679500Y2698700D02*
Y2700700D01*
X680000Y2698700D02*
Y2700700D01*
X680500Y2698700D02*
Y2700700D01*
X681000Y2698700D02*
Y2700700D01*
X681500Y2698700D02*
Y2700700D01*
X682000Y2698700D02*
Y2700700D01*
X682500Y2698700D02*
Y2700700D01*
X683000Y2698700D02*
Y2700700D01*
X683500Y2698700D02*
Y2700700D01*
X684000Y2698700D02*
Y2700700D01*
X684500Y2698700D02*
Y2700700D01*
X685000Y2698700D02*
Y2700700D01*
X685500Y2698700D02*
Y2700700D01*
X686000Y2698700D02*
Y2700700D01*
X686500Y2698700D02*
Y2700700D01*
X109000D02*
Y2698700D01*
X125000*
Y2700700*
X109000*
Y2698700D02*
Y2700700D01*
X109500Y2698700D02*
Y2700700D01*
X110000Y2698700D02*
Y2700700D01*
X110500Y2698700D02*
Y2700700D01*
X111000Y2698700D02*
Y2700700D01*
X111500Y2698700D02*
Y2700700D01*
X112000Y2698700D02*
Y2700700D01*
X112500Y2698700D02*
Y2700700D01*
X113000Y2698700D02*
Y2700700D01*
X113500Y2698700D02*
Y2700700D01*
X114000Y2698700D02*
Y2700700D01*
X114500Y2698700D02*
Y2700700D01*
X115000Y2698700D02*
Y2700700D01*
X115500Y2698700D02*
Y2700700D01*
X116000Y2698700D02*
Y2700700D01*
X116500Y2698700D02*
Y2700700D01*
X117000Y2698700D02*
Y2700700D01*
X117500Y2698700D02*
Y2700700D01*
X118000Y2698700D02*
Y2700700D01*
X118500Y2698700D02*
Y2700700D01*
X119000Y2698700D02*
Y2700700D01*
X119500Y2698700D02*
Y2700700D01*
X120000Y2698700D02*
Y2700700D01*
X120500Y2698700D02*
Y2700700D01*
X121000Y2698700D02*
Y2700700D01*
X121500Y2698700D02*
Y2700700D01*
X122000Y2698700D02*
Y2700700D01*
X122500Y2698700D02*
Y2700700D01*
X123000Y2698700D02*
Y2700700D01*
X123500Y2698700D02*
Y2700700D01*
X124000Y2698700D02*
Y2700700D01*
X124500Y2698700D02*
Y2700700D01*
X109000Y2900700D02*
Y2898700D01*
X125000*
Y2900700*
X109000*
Y2898700D02*
Y2900700D01*
X109500Y2898700D02*
Y2900700D01*
X110000Y2898700D02*
Y2900700D01*
X110500Y2898700D02*
Y2900700D01*
X111000Y2898700D02*
Y2900700D01*
X111500Y2898700D02*
Y2900700D01*
X112000Y2898700D02*
Y2900700D01*
X112500Y2898700D02*
Y2900700D01*
X113000Y2898700D02*
Y2900700D01*
X113500Y2898700D02*
Y2900700D01*
X114000Y2898700D02*
Y2900700D01*
X114500Y2898700D02*
Y2900700D01*
X115000Y2898700D02*
Y2900700D01*
X115500Y2898700D02*
Y2900700D01*
X116000Y2898700D02*
Y2900700D01*
X116500Y2898700D02*
Y2900700D01*
X117000Y2898700D02*
Y2900700D01*
X117500Y2898700D02*
Y2900700D01*
X118000Y2898700D02*
Y2900700D01*
X118500Y2898700D02*
Y2900700D01*
X119000Y2898700D02*
Y2900700D01*
X119500Y2898700D02*
Y2900700D01*
X120000Y2898700D02*
Y2900700D01*
X120500Y2898700D02*
Y2900700D01*
X121000Y2898700D02*
Y2900700D01*
X121500Y2898700D02*
Y2900700D01*
X122000Y2898700D02*
Y2900700D01*
X122500Y2898700D02*
Y2900700D01*
X123000Y2898700D02*
Y2900700D01*
X123500Y2898700D02*
Y2900700D01*
X124000Y2898700D02*
Y2900700D01*
X124500Y2898700D02*
Y2900700D01*
X109000Y2850700D02*
Y2848700D01*
X125000*
Y2850700*
X109000*
Y2848700D02*
Y2850700D01*
X109500Y2848700D02*
Y2850700D01*
X110000Y2848700D02*
Y2850700D01*
X110500Y2848700D02*
Y2850700D01*
X111000Y2848700D02*
Y2850700D01*
X111500Y2848700D02*
Y2850700D01*
X112000Y2848700D02*
Y2850700D01*
X112500Y2848700D02*
Y2850700D01*
X113000Y2848700D02*
Y2850700D01*
X113500Y2848700D02*
Y2850700D01*
X114000Y2848700D02*
Y2850700D01*
X114500Y2848700D02*
Y2850700D01*
X115000Y2848700D02*
Y2850700D01*
X115500Y2848700D02*
Y2850700D01*
X116000Y2848700D02*
Y2850700D01*
X116500Y2848700D02*
Y2850700D01*
X117000Y2848700D02*
Y2850700D01*
X117500Y2848700D02*
Y2850700D01*
X118000Y2848700D02*
Y2850700D01*
X118500Y2848700D02*
Y2850700D01*
X119000Y2848700D02*
Y2850700D01*
X119500Y2848700D02*
Y2850700D01*
X120000Y2848700D02*
Y2850700D01*
X120500Y2848700D02*
Y2850700D01*
X121000Y2848700D02*
Y2850700D01*
X121500Y2848700D02*
Y2850700D01*
X122000Y2848700D02*
Y2850700D01*
X122500Y2848700D02*
Y2850700D01*
X123000Y2848700D02*
Y2850700D01*
X123500Y2848700D02*
Y2850700D01*
X124000Y2848700D02*
Y2850700D01*
X124500Y2848700D02*
Y2850700D01*
X109000Y2800700D02*
Y2798700D01*
X125000*
Y2800700*
X109000*
Y2798700D02*
Y2800700D01*
X109500Y2798700D02*
Y2800700D01*
X110000Y2798700D02*
Y2800700D01*
X110500Y2798700D02*
Y2800700D01*
X111000Y2798700D02*
Y2800700D01*
X111500Y2798700D02*
Y2800700D01*
X112000Y2798700D02*
Y2800700D01*
X112500Y2798700D02*
Y2800700D01*
X113000Y2798700D02*
Y2800700D01*
X113500Y2798700D02*
Y2800700D01*
X114000Y2798700D02*
Y2800700D01*
X114500Y2798700D02*
Y2800700D01*
X115000Y2798700D02*
Y2800700D01*
X115500Y2798700D02*
Y2800700D01*
X116000Y2798700D02*
Y2800700D01*
X116500Y2798700D02*
Y2800700D01*
X117000Y2798700D02*
Y2800700D01*
X117500Y2798700D02*
Y2800700D01*
X118000Y2798700D02*
Y2800700D01*
X118500Y2798700D02*
Y2800700D01*
X119000Y2798700D02*
Y2800700D01*
X119500Y2798700D02*
Y2800700D01*
X120000Y2798700D02*
Y2800700D01*
X120500Y2798700D02*
Y2800700D01*
X121000Y2798700D02*
Y2800700D01*
X121500Y2798700D02*
Y2800700D01*
X122000Y2798700D02*
Y2800700D01*
X122500Y2798700D02*
Y2800700D01*
X123000Y2798700D02*
Y2800700D01*
X123500Y2798700D02*
Y2800700D01*
X124000Y2798700D02*
Y2800700D01*
X124500Y2798700D02*
Y2800700D01*
X109000Y2750700D02*
Y2748700D01*
X125000*
Y2750700*
X109000*
Y2748700D02*
Y2750700D01*
X109500Y2748700D02*
Y2750700D01*
X110000Y2748700D02*
Y2750700D01*
X110500Y2748700D02*
Y2750700D01*
X111000Y2748700D02*
Y2750700D01*
X111500Y2748700D02*
Y2750700D01*
X112000Y2748700D02*
Y2750700D01*
X112500Y2748700D02*
Y2750700D01*
X113000Y2748700D02*
Y2750700D01*
X113500Y2748700D02*
Y2750700D01*
X114000Y2748700D02*
Y2750700D01*
X114500Y2748700D02*
Y2750700D01*
X115000Y2748700D02*
Y2750700D01*
X115500Y2748700D02*
Y2750700D01*
X116000Y2748700D02*
Y2750700D01*
X116500Y2748700D02*
Y2750700D01*
X117000Y2748700D02*
Y2750700D01*
X117500Y2748700D02*
Y2750700D01*
X118000Y2748700D02*
Y2750700D01*
X118500Y2748700D02*
Y2750700D01*
X119000Y2748700D02*
Y2750700D01*
X119500Y2748700D02*
Y2750700D01*
X120000Y2748700D02*
Y2750700D01*
X120500Y2748700D02*
Y2750700D01*
X121000Y2748700D02*
Y2750700D01*
X121500Y2748700D02*
Y2750700D01*
X122000Y2748700D02*
Y2750700D01*
X122500Y2748700D02*
Y2750700D01*
X123000Y2748700D02*
Y2750700D01*
X123500Y2748700D02*
Y2750700D01*
X124000Y2748700D02*
Y2750700D01*
X124500Y2748700D02*
Y2750700D01*
X687000Y2898700D02*
Y2900700D01*
X671000*
Y2898700*
X687000*
X671000D02*
Y2900700D01*
X671500Y2898700D02*
Y2900700D01*
X672000Y2898700D02*
Y2900700D01*
X672500Y2898700D02*
Y2900700D01*
X673000Y2898700D02*
Y2900700D01*
X673500Y2898700D02*
Y2900700D01*
X674000Y2898700D02*
Y2900700D01*
X674500Y2898700D02*
Y2900700D01*
X675000Y2898700D02*
Y2900700D01*
X675500Y2898700D02*
Y2900700D01*
X676000Y2898700D02*
Y2900700D01*
X676500Y2898700D02*
Y2900700D01*
X677000Y2898700D02*
Y2900700D01*
X677500Y2898700D02*
Y2900700D01*
X678000Y2898700D02*
Y2900700D01*
X678500Y2898700D02*
Y2900700D01*
X679000Y2898700D02*
Y2900700D01*
X679500Y2898700D02*
Y2900700D01*
X680000Y2898700D02*
Y2900700D01*
X680500Y2898700D02*
Y2900700D01*
X681000Y2898700D02*
Y2900700D01*
X681500Y2898700D02*
Y2900700D01*
X682000Y2898700D02*
Y2900700D01*
X682500Y2898700D02*
Y2900700D01*
X683000Y2898700D02*
Y2900700D01*
X683500Y2898700D02*
Y2900700D01*
X684000Y2898700D02*
Y2900700D01*
X684500Y2898700D02*
Y2900700D01*
X685000Y2898700D02*
Y2900700D01*
X685500Y2898700D02*
Y2900700D01*
X686000Y2898700D02*
Y2900700D01*
X686500Y2898700D02*
Y2900700D01*
X687000Y2848700D02*
Y2850700D01*
X671000*
Y2848700*
X687000*
X671000D02*
Y2850700D01*
X671500Y2848700D02*
Y2850700D01*
X672000Y2848700D02*
Y2850700D01*
X672500Y2848700D02*
Y2850700D01*
X673000Y2848700D02*
Y2850700D01*
X673500Y2848700D02*
Y2850700D01*
X674000Y2848700D02*
Y2850700D01*
X674500Y2848700D02*
Y2850700D01*
X675000Y2848700D02*
Y2850700D01*
X675500Y2848700D02*
Y2850700D01*
X676000Y2848700D02*
Y2850700D01*
X676500Y2848700D02*
Y2850700D01*
X677000Y2848700D02*
Y2850700D01*
X677500Y2848700D02*
Y2850700D01*
X678000Y2848700D02*
Y2850700D01*
X678500Y2848700D02*
Y2850700D01*
X679000Y2848700D02*
Y2850700D01*
X679500Y2848700D02*
Y2850700D01*
X680000Y2848700D02*
Y2850700D01*
X680500Y2848700D02*
Y2850700D01*
X681000Y2848700D02*
Y2850700D01*
X681500Y2848700D02*
Y2850700D01*
X682000Y2848700D02*
Y2850700D01*
X682500Y2848700D02*
Y2850700D01*
X683000Y2848700D02*
Y2850700D01*
X683500Y2848700D02*
Y2850700D01*
X684000Y2848700D02*
Y2850700D01*
X684500Y2848700D02*
Y2850700D01*
X685000Y2848700D02*
Y2850700D01*
X685500Y2848700D02*
Y2850700D01*
X686000Y2848700D02*
Y2850700D01*
X686500Y2848700D02*
Y2850700D01*
X687000Y2748700D02*
Y2750700D01*
X671000*
Y2748700*
X687000*
X671000D02*
Y2750700D01*
X671500Y2748700D02*
Y2750700D01*
X672000Y2748700D02*
Y2750700D01*
X672500Y2748700D02*
Y2750700D01*
X673000Y2748700D02*
Y2750700D01*
X673500Y2748700D02*
Y2750700D01*
X674000Y2748700D02*
Y2750700D01*
X674500Y2748700D02*
Y2750700D01*
X675000Y2748700D02*
Y2750700D01*
X675500Y2748700D02*
Y2750700D01*
X676000Y2748700D02*
Y2750700D01*
X676500Y2748700D02*
Y2750700D01*
X677000Y2748700D02*
Y2750700D01*
X677500Y2748700D02*
Y2750700D01*
X678000Y2748700D02*
Y2750700D01*
X678500Y2748700D02*
Y2750700D01*
X679000Y2748700D02*
Y2750700D01*
X679500Y2748700D02*
Y2750700D01*
X680000Y2748700D02*
Y2750700D01*
X680500Y2748700D02*
Y2750700D01*
X681000Y2748700D02*
Y2750700D01*
X681500Y2748700D02*
Y2750700D01*
X682000Y2748700D02*
Y2750700D01*
X682500Y2748700D02*
Y2750700D01*
X683000Y2748700D02*
Y2750700D01*
X683500Y2748700D02*
Y2750700D01*
X684000Y2748700D02*
Y2750700D01*
X684500Y2748700D02*
Y2750700D01*
X685000Y2748700D02*
Y2750700D01*
X685500Y2748700D02*
Y2750700D01*
X686000Y2748700D02*
Y2750700D01*
X686500Y2748700D02*
Y2750700D01*
X100500Y3099500D02*
X695500D01*
Y2616700*
X100500*
Y3099500*
G54D21*
X253500Y2731500D03*
X262500D03*
X215500D03*
X224500D03*
X234500D03*
X243500D03*
X272500D03*
X281500D03*
G54D53*
X238492Y2829818D03*
Y2827259D03*
Y2824700D03*
Y2822141D03*
Y2819582D03*
Y2817023D03*
Y2814464D03*
Y2811905D03*
Y2809346D03*
Y2806787D03*
X262508D03*
Y2809346D03*
Y2811905D03*
Y2814464D03*
Y2817023D03*
Y2819582D03*
Y2822141D03*
Y2824700D03*
Y2827259D03*
Y2829818D03*
G54D54*
X255000Y2678400D03*
X260000D03*
X236300D03*
X241300D03*
X216900Y2678200D03*
X221900D03*
X274400Y2678500D03*
X279400D03*
X238700Y2782300D03*
X243700D03*
G54D55*
X523700Y2625600D03*
X529900D03*
G54D57*
X418100D03*
X369300Y2625900D03*
G54D58*
X428100Y2625600D03*
X379300Y2625900D03*
G54D59*
X501300Y2625600D03*
X491300D03*
G54D60*
X111000Y2949700D03*
X685000D03*
Y2799700D03*
Y2699700D03*
X111000D03*
Y2899700D03*
Y2849700D03*
Y2799700D03*
Y2749700D03*
X685000Y2899700D03*
Y2849700D03*
Y2749700D03*
G54D61*
X113500Y2964450D03*
Y2934950D03*
X682500D03*
Y2964450D03*
Y2784950D03*
Y2814450D03*
Y2684950D03*
Y2714450D03*
X113500D03*
Y2684950D03*
Y2914450D03*
Y2884950D03*
Y2864450D03*
Y2834950D03*
Y2814450D03*
Y2784950D03*
Y2764450D03*
Y2734950D03*
X682500Y2884950D03*
Y2914450D03*
Y2834950D03*
Y2864450D03*
Y2734950D03*
Y2764450D03*
G54D65*
X215900Y2834400D03*
Y2839400D03*
X274400Y2833900D03*
Y2838900D03*
G54D70*
X465400Y2893600D03*
Y2899800D03*
X465300Y2693600D03*
Y2699800D03*
Y2793500D03*
Y2799700D03*
G54D85*
X576500D03*
X581500D03*
X571800Y2699900D03*
X576800D03*
X207200Y2781900D03*
X202200D03*
X585100Y2899500D03*
X590100D03*
G54D90*
X170900Y2928300D03*
Y2923300D03*
X0Y0D02*
M02*
