M48
;FILE_FORMAT=2:4
INCH,LZ
FMAT,2
ICI,OFF
;TYPE=PLATED
T1C.015
T2C.035
%
M72
G90
G93X0Y0
T1C.015F095S3
X02132Y-00886
X02056Y-00884
X02187Y-00882
X02064Y-00372
X022Y-00372
X0213Y-00371
X02129Y0013
X02196Y00132
X0206Y00132
X0206Y00632
X02192Y00632
X02128Y00632
X02068Y01128
X02196Y01132
X02132Y01132
X02068Y01629
X02133Y01629
X02196Y01629
X02068Y0214
X02128Y0214
X02192Y02141
X03154Y00843
X03216Y00728
X0313Y-00358
X03222Y-0036
X03263Y-00834
X0311Y-00836
X03548Y-00877
X03739Y-00876
X03359Y-00875
X03452Y-00831
X03642Y-00829
X0373Y-00369
X03522Y-00364
X03431Y-00363
X03336Y-00362
X03621Y-00359
X0348Y00204
X037Y00452
X0368Y0072
X03739Y00833
X03813Y-00366
X03839Y-00831
X04787Y-01258
X0469Y-01262
X05178Y-01251
X05278Y-0125
X05744Y-0068
X05764Y00315
X0577Y01319
X07748Y02152
X07756Y01632
X07756Y01132
X07752Y00632
X07752Y00132
X07756Y-00372
X0774Y-00908
X05907Y-01283
X06295Y-01285
X07816Y-00908
X07892Y-00908
X07824Y-00372
X07892Y-00372
X07824Y00132
X07892Y00132
X07892Y00632
X07821Y00633
X07884Y01132
X0782Y01132
X07822Y01632
X07888Y01632
X0782Y02152
X07888Y02152
T2C.035F197S55
X04688Y-01358
X04788Y-01358
X05176Y-01361
X05276Y-01361
M30
