*
*
G04 PADS VX.2.8 Build Number: 19810023 generated Gerber (RS-274-X) file*
G04 PC Version=2.1*
*
%IN "ECE4460_PG_VersionB.pcb"*%
*
%MOIN*%
*
%FSLAX35Y35*%
*
*
*
*
G04 PC Standard Apertures*
*
*
G04 Thermal Relief Aperture macro.*
%AMTER*
1,1,$1,0,0*
1,0,$1-$2,0,0*
21,0,$3,$4,0,0,45*
21,0,$3,$4,0,0,135*
%
*
*
G04 Annular Aperture macro.*
%AMANN*
1,1,$1,0,0*
1,0,$2,0,0*
%
*
*
G04 Odd Aperture macro.*
%AMODD*
1,1,$1,0,0*
1,0,$1-0.005,0,0*
%
*
*
G04 PC Custom Aperture Macros*
*
*
*
*
*
*
G04 PC Aperture Table*
*
%ADD010C,0.001*%
%ADD011C,0.01*%
%ADD014C,0.006*%
%ADD015R,0.086X0.016*%
%ADD016R,0.03X0.025*%
%ADD017R,0.038X0.03*%
%ADD019R,0.06X0.06*%
%ADD020C,0.06*%
%ADD021R,0.07X0.06*%
%ADD022O,0.15X0.03*%
%ADD023R,0.2X0.15*%
%ADD027R,0.025X0.03*%
%ADD032R,0.03X0.038*%
%ADD080C,0.04*%
%ADD083R,0.06X0.05*%
%ADD084R,0.025X0.02*%
%ADD086R,0.02X0.025*%
%ADD087C,0.01641*%
%ADD088C,0.01641*%
%ADD089C,0.0008*%
*
*
*
*
G04 PC Circuitry*
G04 Layer Name ECE4460_PG_VersionB.pcb - circuitry*
%LPD*%
*
G54D10*
G01X284537Y2631811D02*
X283176D01*
Y2630450*
X284537*
Y2631811*
X281615Y2637863D02*
X280254D01*
Y2634991*
X280204Y2634941*
X277074*
X277024Y2634991*
Y2637863*
X275663*
Y2630450*
X277024*
Y2633739*
X277074Y2633789*
X280204*
X280254Y2633739*
Y2630450*
X281615*
Y2637863*
X274294Y2632767D02*
X272934Y2633156D01*
X272739Y2632473*
X272727Y2632452*
X272309Y2632034*
X272300Y2632027*
X271778Y2631714*
X271760Y2631707*
X271134Y2631603*
X271119*
X270389Y2631707*
X270364Y2631718*
X269738Y2632240*
X269728Y2632251*
X269519Y2632564*
X269516Y2632569*
X269307Y2632986*
X269302Y2633005*
X269198Y2634257*
Y2634261*
Y2634265*
X269302Y2635413*
X269309Y2635434*
X269309D02*
X269726Y2636164D01*
X269742Y2636181*
X270368Y2636598*
X270382Y2636605*
X271112Y2636813*
X271134Y2636815*
X271760Y2636710*
X271771Y2636707*
X272292Y2636499*
X272314Y2636482*
X272627Y2636065*
X272633Y2636053*
X272826Y2635571*
X274187Y2635862*
X273899Y2636533*
X273491Y2637146*
X272465Y2637761*
X271230Y2637967*
X270512Y2637864*
X269893Y2637658*
X269275Y2637349*
X268762Y2636938*
X268352Y2636426*
X268044Y2635708*
X267941Y2634985*
X267837Y2634157*
X267941Y2633328*
X268044Y2632606*
X268351Y2631992*
X268763Y2631477*
X269277Y2630963*
X269890Y2630657*
X270508Y2630554*
X271232Y2630450*
X272362Y2630553*
X273182Y2631065*
X273901Y2631785*
X274294Y2632767*
X266798Y2631602D02*
X262570D01*
X262520Y2631652*
Y2633739*
X262570Y2633789*
X266380*
Y2634941*
X262570*
X262520Y2634991*
Y2636661*
X262570Y2636711*
X266693*
Y2637863*
X261159*
Y2630450*
X266798*
Y2631602*
X260120Y2637863D02*
X254376D01*
Y2636711*
X256517*
X256567Y2636661*
Y2630450*
X257928*
Y2636661*
X257978Y2636711*
X260120*
Y2637863*
X251019Y2630450D02*
X248239Y2637863D01*
X246743*
X243963Y2630450*
X245422*
X246036Y2632087*
X246083Y2632120*
X248900*
X248947Y2632087*
X249561Y2630450*
X251019*
X248483Y2633272D02*
X246500D01*
X246450Y2633322*
X246453Y2633339*
X247497Y2636156*
X247591Y2636155*
X248530Y2633338*
X248483Y2633272*
X243111Y2634420D02*
X239976D01*
Y2633267*
X241700*
X241750Y2633217*
Y2632174*
X241722Y2632129*
X240888Y2631712*
X240884Y2631710*
X240362Y2631501*
X240343Y2631498*
X239822*
X239810Y2631499*
X238975Y2631708*
X238962Y2631713*
X238232Y2632131*
X238232D02*
X238212Y2632152D01*
X237794Y2632986*
X237790Y2633000*
X237581Y2634253*
X237580Y2634261*
X237581Y2634266*
X237685Y2635309*
X237692Y2635331*
X238214Y2636166*
X238232Y2636183*
X238962Y2636600*
X238975Y2636605*
X239810Y2636814*
X239830Y2636815*
X240456Y2636710*
X240466Y2636707*
X240988Y2636499*
X241005Y2636488*
X241422Y2636070*
X241433Y2636053*
X241626Y2635571*
X242991Y2635863*
X242700Y2636736*
X241984Y2637350*
X241059Y2637864*
X239926Y2637967*
X238894Y2637864*
X238070Y2637555*
X237249Y2637042*
X236736Y2636220*
X236323Y2635292*
X236220Y2634157*
X236323Y2633124*
X236633Y2632195*
X237145Y2631375*
X237967Y2630862*
X238896Y2630449*
X239926Y2630346*
X240857Y2630449*
X241786Y2630656*
X242508Y2631069*
X243111Y2631470*
Y2634420*
X232050Y2631811D02*
X230689D01*
Y2630450*
X231370*
X231420Y2630400*
X231417Y2630384*
X231208Y2629758*
X231196Y2629739*
X230988Y2629530*
X230975Y2629520*
X230602Y2629334*
X230869Y2628800*
X231542Y2629184*
X231949Y2629897*
X232050Y2630302*
Y2631811*
X229337Y2635089D02*
X229130Y2635916D01*
X228923Y2636537*
X228617Y2637149*
X227905Y2637658*
X226986Y2637862*
X225964Y2637657*
X225252Y2637149*
X224946Y2636537*
X224739Y2635916*
X224533Y2635089*
Y2633119*
X224739Y2632292*
X224946Y2631673*
X225255Y2631158*
X225559Y2630752*
X225964Y2630550*
X226475Y2630346*
X226981*
X227905Y2630551*
X228619Y2631061*
X228923Y2631568*
X229130Y2632291*
X229337Y2633119*
Y2635089*
X227976Y2635200D02*
Y2633009D01*
X227974Y2632995*
X227765Y2632265*
Y2632262*
X227660Y2631949*
X227655Y2631937*
X227446Y2631624*
X227416Y2631604*
X226999Y2631499*
X226977*
X226455Y2631603*
X226424Y2631624*
X226215Y2631937*
X226212Y2631943*
X226003Y2632360*
X225999Y2632374*
X225894Y2633000*
X225893Y2633009*
Y2635200*
X225895Y2635214*
X226104Y2635944*
X226105Y2635946*
X226209Y2636259*
X226221Y2636279*
X226430Y2636488*
X226447Y2636499*
X226968Y2636707*
X227009Y2636706*
X227427Y2636497*
X227440Y2636488*
X227648Y2636279*
X227658Y2636266*
X227866Y2635848*
X227871Y2635834*
X227975Y2635208*
X227976Y2635200*
X223492Y2632799D02*
X223288Y2633721D01*
X222879Y2634435*
X222166Y2634945*
X221353Y2635148*
X220643Y2634945*
X220023Y2634532*
X219946Y2634574*
Y2635096*
X219947Y2635105*
X220051Y2635627*
Y2635630*
X220156Y2636047*
X220169Y2636070*
X220691Y2636592*
X220714Y2636605*
X221131Y2636709*
X221162Y2636707*
X221684Y2636499*
X221710Y2636475*
X222008Y2635878*
X223376Y2635976*
X223185Y2636742*
X222675Y2637354*
X222064Y2637761*
X221353Y2637862*
X220736Y2637760*
X220328Y2637658*
X219818Y2637352*
X219409Y2636943*
X219102Y2636431*
X218896Y2635812*
X218689Y2634985*
Y2633119*
X218896Y2632292*
X219102Y2631673*
X219407Y2631165*
X220231Y2630547*
X220634Y2630346*
X221138*
X222066Y2630552*
X222880Y2630959*
X223287Y2631773*
X223492Y2632799*
X222132Y2632686D02*
X222027Y2632164D01*
X222020Y2632146*
X221811Y2631833*
X221805Y2631826*
X221596Y2631617*
X221573Y2631604*
X221156Y2631499*
X221131*
X220714Y2631604*
X220698Y2631611*
X220385Y2631819*
X220368Y2631839*
X220160Y2632256*
X220155Y2632268*
X220051Y2632790*
X220050Y2632800*
X220051Y2632810*
X220155Y2633332*
X220163Y2633349*
X220371Y2633663*
X220385Y2633676*
X220698Y2633885*
X220710Y2633891*
X221023Y2633995*
X221051Y2633996*
X221469Y2633892*
X221484Y2633885*
X221797Y2633676*
X221814Y2633657*
X222023Y2633240*
X222027Y2633227*
X222132Y2632705*
Y2632686*
X217963Y2633063D02*
X217074D01*
X217024Y2633113*
Y2637759*
X215848*
X212637Y2633097*
Y2631911*
X215613*
X215663Y2631861*
Y2630450*
X217024*
Y2631861*
X217074Y2631911*
X217963*
Y2633063*
X215663Y2635513D02*
Y2633113D01*
X215613Y2633063*
X213943*
X213893Y2633113*
X213902Y2633142*
X215572Y2635542*
X215663Y2635513*
X212120Y2633063D02*
X211230D01*
X211180Y2633113*
Y2637759*
X210005*
X206793Y2633097*
Y2631911*
X209770*
X209820Y2631861*
Y2630450*
X211180*
Y2631861*
X211230Y2631911*
X212120*
Y2633063*
X209820Y2635513D02*
Y2633113D01*
X209770Y2633063*
X208100*
X208050Y2633113*
X208059Y2633142*
X209729Y2635542*
X209820Y2635513*
X205963Y2631602D02*
X201735D01*
X201685Y2631652*
Y2633739*
X201735Y2633789*
X205546*
Y2634941*
X201735*
X201685Y2634991*
Y2636661*
X201735Y2636711*
X205859*
Y2637863*
X200324*
Y2630450*
X205963*
Y2631602*
X198955Y2632767D02*
X197595Y2633156D01*
X197400Y2632473*
X197388Y2632452*
X196970Y2632034*
X196961Y2632027*
X196439Y2631714*
X196421Y2631707*
X195795Y2631603*
X195780*
X195049Y2631707*
X195025Y2631718*
X194398Y2632240*
X194389Y2632251*
X194180Y2632564*
X194177Y2632569*
X193968Y2632986*
X193963Y2633005*
X193859Y2634257*
Y2634261*
Y2634265*
X193963Y2635413*
X193970Y2635434*
X193970D02*
X194387Y2636164D01*
X194403Y2636181*
X195029Y2636598*
X195043Y2636605*
X195773Y2636813*
X195795Y2636815*
X196421Y2636710*
X196432Y2636707*
X196953Y2636499*
X196975Y2636482*
X197288Y2636065*
X197294Y2636053*
X197487Y2635571*
X198847Y2635862*
X198560Y2636533*
X198152Y2637146*
X197126Y2637761*
X195891Y2637967*
X195172Y2637864*
X194554Y2637658*
X193936Y2637349*
X193423Y2636938*
X193013Y2636426*
X192705Y2635708*
X192602Y2634985*
X192498Y2634157*
X192602Y2633328*
X192705Y2632606*
X193012Y2631992*
X193424Y2631477*
X193938Y2630963*
X194550Y2630657*
X195169Y2630554*
X195893Y2630450*
X197023Y2630553*
X197843Y2631065*
X198562Y2631785*
X198955Y2632767*
X191459Y2631602D02*
X187230D01*
X187180Y2631652*
Y2633739*
X187230Y2633789*
X191041*
Y2634941*
X187230*
X187180Y2634991*
Y2636661*
X187230Y2636711*
X191354*
Y2637863*
X185820*
Y2630450*
X191459*
Y2631602*
X181337Y2631811D02*
X179976D01*
Y2630450*
X180657*
X180707Y2630400*
X180704Y2630384*
X180495Y2629758*
X180483Y2629739*
X180274Y2629530*
X180261Y2629520*
X179889Y2629334*
X180156Y2628800*
X180829Y2629184*
X181236Y2629897*
X181337Y2630302*
Y2631811*
X178623Y2632799D02*
X178418Y2633721D01*
X178010Y2634435*
X177296Y2634945*
X176483Y2635148*
X175773Y2634945*
X175154Y2634532*
X175076Y2634574*
Y2635096*
X175077Y2635105*
X175181Y2635627*
X175182Y2635630*
X175286Y2636047*
X175299Y2636070*
X175821Y2636592*
X175844Y2636605*
X176262Y2636709*
X176292Y2636707*
X176814Y2636499*
X176840Y2636475*
X177138Y2635878*
X178507Y2635976*
X178315Y2636742*
X177805Y2637354*
X177195Y2637761*
X176483Y2637862*
X175867Y2637760*
X175458Y2637658*
X174948Y2637352*
X174540Y2636943*
X174233Y2636431*
X174026Y2635812*
X173820Y2634985*
Y2633119*
X174026Y2632292*
X174233Y2631673*
X174538Y2631165*
X175361Y2630547*
X175764Y2630346*
X176268*
X177196Y2630552*
X178011Y2630959*
X178418Y2631773*
X178418D02*
X178623Y2632799D01*
X177262Y2632686D02*
X177158Y2632164D01*
X177150Y2632146*
X176942Y2631833*
X176935Y2631826*
X176727Y2631617*
X176703Y2631604*
X176286Y2631499*
X176262*
X175844Y2631604*
X175829Y2631611*
X175516Y2631819*
X175499Y2631839*
X175290Y2632256*
X175286Y2632268*
X175181Y2632790*
X175180Y2632800*
X175181Y2632810*
X175286Y2633332*
X175293Y2633349*
X175502Y2633663*
X175516Y2633676*
X175829Y2633885*
X175841Y2633891*
X176154Y2633995*
X176182Y2633996*
X176599Y2633892*
X176615Y2633885*
X176928Y2633676*
X176945Y2633657*
X177153Y2633240*
X177158Y2633227*
X177262Y2632705*
Y2632686*
X173407Y2629202D02*
X167454D01*
Y2628363*
X173407*
Y2629202*
X166920Y2632767D02*
X165560Y2633156D01*
X165365Y2632473*
X165353Y2632452*
X164935Y2632034*
X164926Y2632027*
X164404Y2631714*
X164386Y2631707*
X163760Y2631603*
X163745*
X163015Y2631707*
X162990Y2631718*
X162364Y2632240*
X162354Y2632251*
X162145Y2632564*
X162142Y2632569*
X161934Y2632986*
X161928Y2633005*
X161824Y2634257*
Y2634261*
Y2634265*
X161928Y2635413*
X161935Y2635434*
X161935D02*
X162352Y2636164D01*
X162368Y2636181*
X162994Y2636598*
X163008Y2636605*
X163738Y2636813*
X163760Y2636815*
X164386Y2636710*
X164397Y2636707*
X164919Y2636499*
X164940Y2636482*
X165253Y2636065*
X165259Y2636053*
X165453Y2635571*
X165453D02*
X166813Y2635862D01*
X166525Y2636533*
X166117Y2637146*
X165091Y2637761*
X163856Y2637967*
X163138Y2637864*
X162519Y2637658*
X161901Y2637349*
X161388Y2636938*
X160978Y2636426*
X160670Y2635708*
X160567Y2634985*
X160463Y2634157*
X160567Y2633328*
X160670Y2632606*
X160977Y2631992*
X161389Y2631477*
X161904Y2630963*
X162516Y2630657*
X163134Y2630554*
X163858Y2630450*
X164988Y2630553*
X165808Y2631065*
X166527Y2631785*
X166920Y2632767*
X159423Y2632591D02*
X159321Y2633204D01*
X159117Y2633714*
X158812Y2634121*
X158302Y2634529*
X156747Y2635048*
X155914Y2635256*
X155900Y2635261*
X155379Y2635575*
X155360Y2635595*
X155151Y2636012*
X155146Y2636035*
X155151Y2636057*
X155360Y2636475*
X155382Y2636497*
X155799Y2636706*
X155814Y2636710*
X156440Y2636815*
X156458Y2636814*
X156979Y2636710*
X156985Y2636708*
X157298Y2636604*
X157323Y2636587*
X157636Y2636169*
X157644Y2636151*
X157738Y2635775*
X159098Y2635872*
X158906Y2636640*
X158397Y2637352*
X157580Y2637761*
X156343Y2637967*
X155625Y2637864*
X155008Y2637659*
X154496Y2637352*
X154090Y2636946*
X153887Y2636438*
X153786Y2635932*
X153990Y2635117*
X154501Y2634402*
X155113Y2633994*
X156149Y2633683*
X156878Y2633474*
X157295Y2633370*
X157305Y2633366*
X157931Y2633053*
X157958Y2633019*
X157958D02*
X158062Y2632497D01*
X158063Y2632487*
X158060Y2632471*
X157956Y2632158*
X157944Y2632139*
X157631Y2631826*
X157618Y2631816*
X157201Y2631607*
X157186Y2631603*
X156560Y2631499*
X156544*
X155918Y2631603*
X155908Y2631606*
X155386Y2631814*
X155364Y2631831*
X155051Y2632248*
X155044Y2632262*
X154847Y2632852*
X153488Y2632755*
X153780Y2631779*
X154394Y2630960*
X155315Y2630449*
X156447Y2630346*
X157377Y2630449*
X158099Y2630655*
X158714Y2630963*
X159117Y2631366*
X159321Y2631977*
X159423Y2632591*
X152536Y2635618D02*
X152434Y2636334D01*
X152129Y2637047*
X151621Y2637453*
X151010Y2637759*
X150813*
X150801Y2637760*
X150389Y2637863*
X146793*
Y2630450*
X148154*
Y2633217*
X148204Y2633267*
X150183*
X150800Y2633370*
X151624Y2633679*
X152030Y2633984*
X152331Y2634385*
X152536Y2635618*
X151176Y2635513D02*
Y2635200D01*
X151161Y2635165*
X150953Y2634956*
X150949Y2634952*
X150427Y2634535*
X150408Y2634525*
X149990Y2634421*
X149978Y2634420*
X148204*
X148154Y2634470*
Y2636661*
X148204Y2636711*
X149770*
X149782Y2636709*
X150199Y2636605*
X150207Y2636602*
X150937Y2636289*
X150965Y2636259*
X151069Y2635946*
X151070Y2635943*
X151175Y2635525*
X151176Y2635513*
X145233Y2637863D02*
X143872D01*
Y2634991*
X143822Y2634941*
X140691*
X140641Y2634991*
Y2637863*
X139280*
Y2630450*
X140641*
Y2633739*
X140691Y2633789*
X143822*
X143872Y2633739*
Y2630450*
X145233*
Y2637863*
X139300Y2630450D02*
Y2637863D01*
X139400Y2630450D02*
Y2637863D01*
X139500Y2630450D02*
Y2637863D01*
X139600Y2630450D02*
Y2637863D01*
X139700Y2630450D02*
Y2637863D01*
X139800Y2630450D02*
Y2637863D01*
X139900Y2630450D02*
Y2637863D01*
X140000Y2630450D02*
Y2637863D01*
X140100Y2630450D02*
Y2637863D01*
X140200Y2630450D02*
Y2637863D01*
X140300Y2630450D02*
Y2637863D01*
X140400Y2630450D02*
Y2637863D01*
X140500Y2630450D02*
Y2637863D01*
X140600Y2630450D02*
Y2637863D01*
X140700Y2633789D02*
Y2634941D01*
X140800Y2633789D02*
Y2634941D01*
X140900Y2633789D02*
Y2634941D01*
X141000Y2633789D02*
Y2634941D01*
X141100Y2633789D02*
Y2634941D01*
X141200Y2633789D02*
Y2634941D01*
X141300Y2633789D02*
Y2634941D01*
X141400Y2633789D02*
Y2634941D01*
X141500Y2633789D02*
Y2634941D01*
X141600Y2633789D02*
Y2634941D01*
X141700Y2633789D02*
Y2634941D01*
X141800Y2633789D02*
Y2634941D01*
X141900Y2633789D02*
Y2634941D01*
X142000Y2633789D02*
Y2634941D01*
X142100Y2633789D02*
Y2634941D01*
X142200Y2633789D02*
Y2634941D01*
X142300Y2633789D02*
Y2634941D01*
X142400Y2633789D02*
Y2634941D01*
X142500Y2633789D02*
Y2634941D01*
X142600Y2633789D02*
Y2634941D01*
X142700Y2633789D02*
Y2634941D01*
X142800Y2633789D02*
Y2634941D01*
X142900Y2633789D02*
Y2634941D01*
X143000Y2633789D02*
Y2634941D01*
X143100Y2633789D02*
Y2634941D01*
X143200Y2633789D02*
Y2634941D01*
X143300Y2633789D02*
Y2634941D01*
X143400Y2633789D02*
Y2634941D01*
X143500Y2633789D02*
Y2634941D01*
X143600Y2633789D02*
Y2634941D01*
X143700Y2633789D02*
Y2634941D01*
X143800Y2633789D02*
Y2634941D01*
X143900Y2630450D02*
Y2637863D01*
X144000Y2630450D02*
Y2637863D01*
X144100Y2630450D02*
Y2637863D01*
X144200Y2630450D02*
Y2637863D01*
X144300Y2630450D02*
Y2637863D01*
X144400Y2630450D02*
Y2637863D01*
X144500Y2630450D02*
Y2637863D01*
X144600Y2630450D02*
Y2637863D01*
X144700Y2630450D02*
Y2637863D01*
X144800Y2630450D02*
Y2637863D01*
X144900Y2630450D02*
Y2637863D01*
X145000Y2630450D02*
Y2637863D01*
X145100Y2630450D02*
Y2637863D01*
X145200Y2630450D02*
Y2637863D01*
X146800Y2630450D02*
Y2637863D01*
X146900Y2630450D02*
Y2637863D01*
X147000Y2630450D02*
Y2637863D01*
X147100Y2630450D02*
Y2637863D01*
X147200Y2630450D02*
Y2637863D01*
X147300Y2630450D02*
Y2637863D01*
X147400Y2630450D02*
Y2637863D01*
X147500Y2630450D02*
Y2637863D01*
X147600Y2630450D02*
Y2637863D01*
X147700Y2630450D02*
Y2637863D01*
X147800Y2630450D02*
Y2637863D01*
X147900Y2630450D02*
Y2637863D01*
X148000Y2630450D02*
Y2637863D01*
X148100Y2630450D02*
Y2637863D01*
X148200Y2633267D02*
Y2634420D01*
Y2636711D02*
Y2637863D01*
X148300Y2633267D02*
Y2634420D01*
Y2636711D02*
Y2637863D01*
X148400Y2633267D02*
Y2634420D01*
Y2636711D02*
Y2637863D01*
X148500Y2633267D02*
Y2634420D01*
Y2636711D02*
Y2637863D01*
X148600Y2633267D02*
Y2634420D01*
Y2636711D02*
Y2637863D01*
X148700Y2633267D02*
Y2634420D01*
Y2636711D02*
Y2637863D01*
X148800Y2633267D02*
Y2634420D01*
Y2636711D02*
Y2637863D01*
X148900Y2633267D02*
Y2634420D01*
Y2636711D02*
Y2637863D01*
X149000Y2633267D02*
Y2634420D01*
Y2636711D02*
Y2637863D01*
X149100Y2633267D02*
Y2634420D01*
Y2636711D02*
Y2637863D01*
X149200Y2633267D02*
Y2634420D01*
Y2636711D02*
Y2637863D01*
X149300Y2633267D02*
Y2634420D01*
Y2636711D02*
Y2637863D01*
X149400Y2633267D02*
Y2634420D01*
Y2636711D02*
Y2637863D01*
X149500Y2633267D02*
Y2634420D01*
Y2636711D02*
Y2637863D01*
X149600Y2633267D02*
Y2634420D01*
Y2636711D02*
Y2637863D01*
X149700Y2633267D02*
Y2634420D01*
Y2636711D02*
Y2637863D01*
X149800Y2633267D02*
Y2634420D01*
Y2636705D02*
Y2637863D01*
X149900Y2633267D02*
Y2634420D01*
Y2636680D02*
Y2637863D01*
X150000Y2633267D02*
Y2634423D01*
Y2636655D02*
Y2637863D01*
X150100Y2633267D02*
Y2634448D01*
Y2636630D02*
Y2637863D01*
X150200Y2633270D02*
Y2634473D01*
Y2636605D02*
Y2637863D01*
X150300Y2633287D02*
Y2634498D01*
Y2636562D02*
Y2637863D01*
X150400Y2633304D02*
Y2634523D01*
Y2636520D02*
Y2637860D01*
X150500Y2633320D02*
Y2634593D01*
Y2636477D02*
Y2637835D01*
X150600Y2633337D02*
Y2634673D01*
Y2636434D02*
Y2637810D01*
X150700Y2633354D02*
Y2634753D01*
Y2636391D02*
Y2637785D01*
X150800Y2633370D02*
Y2634833D01*
Y2636348D02*
Y2637760D01*
X150900Y2633408D02*
Y2634913D01*
Y2636305D02*
Y2637759D01*
X151000Y2633445D02*
Y2635003D01*
Y2636154D02*
Y2637759D01*
X151100Y2633483D02*
Y2635103D01*
Y2635824D02*
Y2637714D01*
X151200Y2633520D02*
Y2637664D01*
X151300Y2633558D02*
Y2637614D01*
X151400Y2633595D02*
Y2637564D01*
X151500Y2633633D02*
Y2637514D01*
X151600Y2633670D02*
Y2637464D01*
X151700Y2633736D02*
Y2637390D01*
X151800Y2633811D02*
Y2637310D01*
X151900Y2633886D02*
Y2637230D01*
X152000Y2633961D02*
Y2637150D01*
X152100Y2634078D02*
Y2637070D01*
X152200Y2634211D02*
Y2636880D01*
X152300Y2634344D02*
Y2636647D01*
X152400Y2634800D02*
Y2636414D01*
X152500Y2635400D02*
Y2635873D01*
X153500Y2632713D02*
Y2632755D01*
X153600Y2632380D02*
Y2632763D01*
X153700Y2632046D02*
Y2632770D01*
X153800Y2631753D02*
Y2632777D01*
Y2635876D02*
Y2636002D01*
X153900Y2631620D02*
Y2632784D01*
Y2635476D02*
Y2636470D01*
X154000Y2631486D02*
Y2632791D01*
Y2635103D02*
Y2636720D01*
X154100Y2631353D02*
Y2632798D01*
Y2634963D02*
Y2636955D01*
X154200Y2631220D02*
Y2632805D01*
Y2634823D02*
Y2637055D01*
X154300Y2631086D02*
Y2632813D01*
Y2634683D02*
Y2637155D01*
X154400Y2630957D02*
Y2632820D01*
Y2634543D02*
Y2637255D01*
X154500Y2630902D02*
Y2632827D01*
Y2634403D02*
Y2637354D01*
X154600Y2630846D02*
Y2632834D01*
Y2634335D02*
Y2637414D01*
X154700Y2630791D02*
Y2632841D01*
Y2634269D02*
Y2637474D01*
X154800Y2630735D02*
Y2632848D01*
Y2634202D02*
Y2637534D01*
X154900Y2630679D02*
Y2632694D01*
Y2634135D02*
Y2637594D01*
X155000Y2630624D02*
Y2632394D01*
Y2634069D02*
Y2637654D01*
X155100Y2630568D02*
Y2632183D01*
Y2634002D02*
Y2637689D01*
X155200Y2630513D02*
Y2632050D01*
Y2633967D02*
Y2635914D01*
Y2636155D02*
Y2637723D01*
X155300Y2630457D02*
Y2631917D01*
Y2633937D02*
Y2635714D01*
Y2636355D02*
Y2637756D01*
X155400Y2630441D02*
Y2631809D01*
Y2633907D02*
Y2635562D01*
Y2636506D02*
Y2637789D01*
X155500Y2630432D02*
Y2631769D01*
Y2633877D02*
Y2635502D01*
Y2636556D02*
Y2637823D01*
X155600Y2630423D02*
Y2631729D01*
Y2633847D02*
Y2635442D01*
Y2636606D02*
Y2637856D01*
X155700Y2630414D02*
Y2631689D01*
Y2633817D02*
Y2635382D01*
Y2636656D02*
Y2637875D01*
X155800Y2630405D02*
Y2631649D01*
Y2633787D02*
Y2635322D01*
Y2636706D02*
Y2637889D01*
X155900Y2630396D02*
Y2631609D01*
Y2633757D02*
Y2635262D01*
Y2636725D02*
Y2637904D01*
X156000Y2630387D02*
Y2631589D01*
Y2633727D02*
Y2635234D01*
Y2636741D02*
Y2637918D01*
X156100Y2630377D02*
Y2631572D01*
Y2633697D02*
Y2635209D01*
Y2636758D02*
Y2637932D01*
X156200Y2630368D02*
Y2631556D01*
Y2633668D02*
Y2635184D01*
Y2636775D02*
Y2637946D01*
X156300Y2630359D02*
Y2631539D01*
Y2633640D02*
Y2635159D01*
Y2636791D02*
Y2637961D01*
X156400Y2630350D02*
Y2631522D01*
Y2633611D02*
Y2635134D01*
Y2636808D02*
Y2637957D01*
X156500Y2630352D02*
Y2631506D01*
Y2633582D02*
Y2635109D01*
Y2636806D02*
Y2637941D01*
X156600Y2630363D02*
Y2631505D01*
Y2633554D02*
Y2635084D01*
Y2636786D02*
Y2637924D01*
X156700Y2630374D02*
Y2631522D01*
Y2633525D02*
Y2635059D01*
Y2636766D02*
Y2637907D01*
X156800Y2630385D02*
Y2631538D01*
Y2633497D02*
Y2635030D01*
Y2636746D02*
Y2637891D01*
X156900Y2630396D02*
Y2631555D01*
Y2633469D02*
Y2634997D01*
Y2636726D02*
Y2637874D01*
X157000Y2630407D02*
Y2631572D01*
Y2633444D02*
Y2634963D01*
Y2636703D02*
Y2637857D01*
X157100Y2630418D02*
Y2631588D01*
Y2633419D02*
Y2634930D01*
Y2636670D02*
Y2637841D01*
X157200Y2630430D02*
Y2631607D01*
Y2633394D02*
Y2634897D01*
Y2636637D02*
Y2637824D01*
X157300Y2630441D02*
Y2631657D01*
Y2633369D02*
Y2634863D01*
Y2636603D02*
Y2637807D01*
X157400Y2630456D02*
Y2631707D01*
Y2633319D02*
Y2634830D01*
Y2636483D02*
Y2637791D01*
X157500Y2630484D02*
Y2631757D01*
Y2633269D02*
Y2634797D01*
Y2636350D02*
Y2637774D01*
X157600Y2630513D02*
Y2631807D01*
Y2633219D02*
Y2634763D01*
Y2636217D02*
Y2637751D01*
X157700Y2630541D02*
Y2631895D01*
Y2633169D02*
Y2634730D01*
Y2635928D02*
Y2637701D01*
X157800Y2630570D02*
Y2631995D01*
Y2633119D02*
Y2634697D01*
Y2635779D02*
Y2637651D01*
X157900Y2630599D02*
Y2632095D01*
Y2633069D02*
Y2634663D01*
Y2635786D02*
Y2637601D01*
X158000Y2630627D02*
Y2632290D01*
Y2632807D02*
Y2634630D01*
Y2635793D02*
Y2637551D01*
X158100Y2630656D02*
Y2634597D01*
Y2635800D02*
Y2637501D01*
X158200Y2630706D02*
Y2634563D01*
Y2635808D02*
Y2637451D01*
X158300Y2630756D02*
Y2634530D01*
Y2635815D02*
Y2637401D01*
X158400Y2630806D02*
Y2634451D01*
Y2635822D02*
Y2637348D01*
X158500Y2630856D02*
Y2634371D01*
Y2635829D02*
Y2637208D01*
X158600Y2630906D02*
Y2634291D01*
Y2635836D02*
Y2637068D01*
X158700Y2630956D02*
Y2634211D01*
Y2635843D02*
Y2636928D01*
X158800Y2631049D02*
Y2634131D01*
Y2635850D02*
Y2636788D01*
X158900Y2631149D02*
Y2634004D01*
Y2635858D02*
Y2636648D01*
X159000Y2631249D02*
Y2633870D01*
Y2635865D02*
Y2636263D01*
X159100Y2631349D02*
Y2633737D01*
X159200Y2631615D02*
Y2633507D01*
X159300Y2631915D02*
Y2633257D01*
X159400Y2632452D02*
Y2632731D01*
X160500Y2633864D02*
Y2634449D01*
X160600Y2633097D02*
Y2635216D01*
X160700Y2632547D02*
Y2635777D01*
X160800Y2632347D02*
Y2636011D01*
X160900Y2632147D02*
Y2636244D01*
X161000Y2631964D02*
Y2636454D01*
X161100Y2631839D02*
Y2636579D01*
X161200Y2631714D02*
Y2636704D01*
X161300Y2631589D02*
Y2636829D01*
X161400Y2631466D02*
Y2636948D01*
X161500Y2631366D02*
Y2637028D01*
X161600Y2631266D02*
Y2637108D01*
X161700Y2631166D02*
Y2637188D01*
X161800Y2631066D02*
Y2637268D01*
X161900Y2630966D02*
Y2633346D01*
Y2635100D02*
Y2637348D01*
X162000Y2630915D02*
Y2632853D01*
Y2635548D02*
Y2637398D01*
X162100Y2630865D02*
Y2632653D01*
Y2635723D02*
Y2637448D01*
X162200Y2630815D02*
Y2632482D01*
Y2635898D02*
Y2637498D01*
X162300Y2630765D02*
Y2632332D01*
Y2636073D02*
Y2637548D01*
X162400Y2630715D02*
Y2632210D01*
Y2636202D02*
Y2637598D01*
X162500Y2630665D02*
Y2632126D01*
Y2636269D02*
Y2637648D01*
X162600Y2630643D02*
Y2632043D01*
Y2636335D02*
Y2637685D01*
X162700Y2630626D02*
Y2631960D01*
Y2636402D02*
Y2637718D01*
X162800Y2630609D02*
Y2631876D01*
Y2636469D02*
Y2637752D01*
X162900Y2630593D02*
Y2631793D01*
Y2636535D02*
Y2637785D01*
X163000Y2630576D02*
Y2631711D01*
Y2636602D02*
Y2637818D01*
X163100Y2630559D02*
Y2631695D01*
Y2636631D02*
Y2637852D01*
X163200Y2630544D02*
Y2631681D01*
Y2636659D02*
Y2637873D01*
X163300Y2630530D02*
Y2631666D01*
Y2636688D02*
Y2637887D01*
X163400Y2630516D02*
Y2631652D01*
Y2636717D02*
Y2637902D01*
X163500Y2630501D02*
Y2631638D01*
Y2636745D02*
Y2637916D01*
X163600Y2630487D02*
Y2631623D01*
Y2636774D02*
Y2637930D01*
X163700Y2630473D02*
Y2631609D01*
Y2636802D02*
Y2637945D01*
X163800Y2630459D02*
Y2631609D01*
Y2636808D02*
Y2637959D01*
X163900Y2630454D02*
Y2631626D01*
Y2636791D02*
Y2637959D01*
X164000Y2630463D02*
Y2631643D01*
Y2636775D02*
Y2637943D01*
X164100Y2630472D02*
Y2631659D01*
Y2636758D02*
Y2637926D01*
X164200Y2630481D02*
Y2631676D01*
Y2636741D02*
Y2637909D01*
X164300Y2630491D02*
Y2631693D01*
Y2636725D02*
Y2637893D01*
X164400Y2630500D02*
Y2631711D01*
Y2636706D02*
Y2637876D01*
X164500Y2630509D02*
Y2631771D01*
Y2636666D02*
Y2637859D01*
X164600Y2630518D02*
Y2631831D01*
Y2636626D02*
Y2637843D01*
X164700Y2630527D02*
Y2631891D01*
Y2636586D02*
Y2637826D01*
X164800Y2630536D02*
Y2631951D01*
Y2636546D02*
Y2637809D01*
X164900Y2630545D02*
Y2632011D01*
Y2636506D02*
Y2637793D01*
X165000Y2630561D02*
Y2632099D01*
Y2636402D02*
Y2637776D01*
X165100Y2630623D02*
Y2632199D01*
Y2636269D02*
Y2637756D01*
X165200Y2630686D02*
Y2632299D01*
Y2636136D02*
Y2637696D01*
X165300Y2630748D02*
Y2632399D01*
Y2635952D02*
Y2637636D01*
X165400Y2630811D02*
Y2632594D01*
Y2635702D02*
Y2637576D01*
X165500Y2630873D02*
Y2632944D01*
Y2635581D02*
Y2637516D01*
X165600Y2630936D02*
Y2633144D01*
Y2635602D02*
Y2637456D01*
X165700Y2630998D02*
Y2633116D01*
Y2635624D02*
Y2637396D01*
X165800Y2631061D02*
Y2633087D01*
Y2635645D02*
Y2637336D01*
X165900Y2631158D02*
Y2633059D01*
Y2635667D02*
Y2637276D01*
X166000Y2631258D02*
Y2633030D01*
Y2635688D02*
Y2637216D01*
X166100Y2631358D02*
Y2633001D01*
Y2635710D02*
Y2637156D01*
X166200Y2631458D02*
Y2632973D01*
Y2635731D02*
Y2637021D01*
X166300Y2631558D02*
Y2632944D01*
Y2635752D02*
Y2636871D01*
X166400Y2631658D02*
Y2632916D01*
Y2635774D02*
Y2636721D01*
X166500Y2631758D02*
Y2632887D01*
Y2635795D02*
Y2636571D01*
X166600Y2631967D02*
Y2632859D01*
Y2635817D02*
Y2636359D01*
X166700Y2632217D02*
Y2632830D01*
Y2635838D02*
Y2636125D01*
X166800Y2632467D02*
Y2632801D01*
Y2635860D02*
Y2635892D01*
X166900Y2632717D02*
Y2632773D01*
X167500Y2628363D02*
Y2629202D01*
X167600Y2628363D02*
Y2629202D01*
X167700Y2628363D02*
Y2629202D01*
X167800Y2628363D02*
Y2629202D01*
X167900Y2628363D02*
Y2629202D01*
X168000Y2628363D02*
Y2629202D01*
X168100Y2628363D02*
Y2629202D01*
X168200Y2628363D02*
Y2629202D01*
X168300Y2628363D02*
Y2629202D01*
X168400Y2628363D02*
Y2629202D01*
X168500Y2628363D02*
Y2629202D01*
X168600Y2628363D02*
Y2629202D01*
X168700Y2628363D02*
Y2629202D01*
X168800Y2628363D02*
Y2629202D01*
X168900Y2628363D02*
Y2629202D01*
X169000Y2628363D02*
Y2629202D01*
X169100Y2628363D02*
Y2629202D01*
X169200Y2628363D02*
Y2629202D01*
X169300Y2628363D02*
Y2629202D01*
X169400Y2628363D02*
Y2629202D01*
X169500Y2628363D02*
Y2629202D01*
X169600Y2628363D02*
Y2629202D01*
X169700Y2628363D02*
Y2629202D01*
X169800Y2628363D02*
Y2629202D01*
X169900Y2628363D02*
Y2629202D01*
X170000Y2628363D02*
Y2629202D01*
X170100Y2628363D02*
Y2629202D01*
X170200Y2628363D02*
Y2629202D01*
X170300Y2628363D02*
Y2629202D01*
X170400Y2628363D02*
Y2629202D01*
X170500Y2628363D02*
Y2629202D01*
X170600Y2628363D02*
Y2629202D01*
X170700Y2628363D02*
Y2629202D01*
X170800Y2628363D02*
Y2629202D01*
X170900Y2628363D02*
Y2629202D01*
X171000Y2628363D02*
Y2629202D01*
X171100Y2628363D02*
Y2629202D01*
X171200Y2628363D02*
Y2629202D01*
X171300Y2628363D02*
Y2629202D01*
X171400Y2628363D02*
Y2629202D01*
X171500Y2628363D02*
Y2629202D01*
X171600Y2628363D02*
Y2629202D01*
X171700Y2628363D02*
Y2629202D01*
X171800Y2628363D02*
Y2629202D01*
X171900Y2628363D02*
Y2629202D01*
X172000Y2628363D02*
Y2629202D01*
X172100Y2628363D02*
Y2629202D01*
X172200Y2628363D02*
Y2629202D01*
X172300Y2628363D02*
Y2629202D01*
X172400Y2628363D02*
Y2629202D01*
X172500Y2628363D02*
Y2629202D01*
X172600Y2628363D02*
Y2629202D01*
X172700Y2628363D02*
Y2629202D01*
X172800Y2628363D02*
Y2629202D01*
X172900Y2628363D02*
Y2629202D01*
X173000Y2628363D02*
Y2629202D01*
X173100Y2628363D02*
Y2629202D01*
X173200Y2628363D02*
Y2629202D01*
X173300Y2628363D02*
Y2629202D01*
X173400Y2628363D02*
Y2629202D01*
X173900Y2632797D02*
Y2635307D01*
X174000Y2632397D02*
Y2635707D01*
X174100Y2632071D02*
Y2636033D01*
X174200Y2631771D02*
Y2636333D01*
X174300Y2631561D02*
Y2636543D01*
X174400Y2631394D02*
Y2636710D01*
X174500Y2631228D02*
Y2636877D01*
X174600Y2631118D02*
Y2637003D01*
X174700Y2631043D02*
Y2637103D01*
X174800Y2630968D02*
Y2637203D01*
X174900Y2630893D02*
Y2637303D01*
X175000Y2630818D02*
Y2637383D01*
X175100Y2630743D02*
Y2634531D01*
Y2635220D02*
Y2637443D01*
X175200Y2630668D02*
Y2632697D01*
Y2632903D02*
Y2634563D01*
Y2635702D02*
Y2637503D01*
X175300Y2630593D02*
Y2632236D01*
Y2633360D02*
Y2634630D01*
Y2636071D02*
Y2637563D01*
X175400Y2630528D02*
Y2632036D01*
Y2633510D02*
Y2634696D01*
Y2636171D02*
Y2637623D01*
X175500Y2630478D02*
Y2631836D01*
Y2633660D02*
Y2634763D01*
Y2636271D02*
Y2637668D01*
X175600Y2630428D02*
Y2631763D01*
Y2633733D02*
Y2634830D01*
Y2636371D02*
Y2637693D01*
X175700Y2630378D02*
Y2631696D01*
Y2633799D02*
Y2634896D01*
Y2636471D02*
Y2637718D01*
X175800Y2630346D02*
Y2631630D01*
Y2633866D02*
Y2634953D01*
Y2636571D02*
Y2637743D01*
X175900Y2630346D02*
Y2631590D01*
Y2633911D02*
Y2634982D01*
Y2636619D02*
Y2637765D01*
X176000Y2630346D02*
Y2631565D01*
Y2633944D02*
Y2635010D01*
Y2636644D02*
Y2637782D01*
X176100Y2630346D02*
Y2631540D01*
Y2633977D02*
Y2635039D01*
Y2636669D02*
Y2637799D01*
X176200Y2630346D02*
Y2631515D01*
Y2633992D02*
Y2635067D01*
Y2636694D02*
Y2637815D01*
X176300Y2630353D02*
Y2631503D01*
Y2633967D02*
Y2635096D01*
Y2636704D02*
Y2637832D01*
X176400Y2630375D02*
Y2631528D01*
Y2633942D02*
Y2635124D01*
Y2636664D02*
Y2637849D01*
X176500Y2630397D02*
Y2631553D01*
Y2633917D02*
Y2635144D01*
Y2636624D02*
Y2637860D01*
X176600Y2630419D02*
Y2631578D01*
Y2633892D02*
Y2635119D01*
Y2636584D02*
Y2637846D01*
X176700Y2630442D02*
Y2631603D01*
Y2633828D02*
Y2635094D01*
Y2636544D02*
Y2637831D01*
X176800Y2630464D02*
Y2631690D01*
Y2633762D02*
Y2635069D01*
Y2636504D02*
Y2637817D01*
X176900Y2630486D02*
Y2631790D01*
Y2633695D02*
Y2635044D01*
Y2636355D02*
Y2637803D01*
X177000Y2630508D02*
Y2631921D01*
Y2633547D02*
Y2635019D01*
Y2636155D02*
Y2637789D01*
X177100Y2630530D02*
Y2632071D01*
Y2633347D02*
Y2634994D01*
Y2635955D02*
Y2637774D01*
X177200Y2630554D02*
Y2632375D01*
Y2633016D02*
Y2634969D01*
Y2635883D02*
Y2637757D01*
X177300Y2630604D02*
Y2634942D01*
Y2635890D02*
Y2637691D01*
X177400Y2630654D02*
Y2634871D01*
Y2635897D02*
Y2637624D01*
X177500Y2630704D02*
Y2634799D01*
Y2635904D02*
Y2637557D01*
X177600Y2630754D02*
Y2634728D01*
Y2635911D02*
Y2637491D01*
X177700Y2630804D02*
Y2634657D01*
Y2635918D02*
Y2637424D01*
X177800Y2630854D02*
Y2634585D01*
Y2635926D02*
Y2637357D01*
X177900Y2630904D02*
Y2634514D01*
Y2635933D02*
Y2637240D01*
X178000Y2630954D02*
Y2634442D01*
Y2635940D02*
Y2637120D01*
X178100Y2631138D02*
Y2634277D01*
Y2635947D02*
Y2637000D01*
X178200Y2631338D02*
Y2634102D01*
Y2635954D02*
Y2636880D01*
X178300Y2631538D02*
Y2633927D01*
Y2635961D02*
Y2636760D01*
X178400Y2631738D02*
Y2633752D01*
Y2635968D02*
Y2636403D01*
X178500Y2632185D02*
Y2633352D01*
Y2635976D02*
Y2636003D01*
X178600Y2632685D02*
Y2632902D01*
X179900Y2629312D02*
Y2629340D01*
X180000Y2629112D02*
Y2629390D01*
Y2630450D02*
Y2631811D01*
X180100Y2628912D02*
Y2629440D01*
Y2630450D02*
Y2631811D01*
X180200Y2628825D02*
Y2629490D01*
Y2630450D02*
Y2631811D01*
X180300Y2628882D02*
Y2629555D01*
Y2630450D02*
Y2631811D01*
X180400Y2628940D02*
Y2629655D01*
Y2630450D02*
Y2631811D01*
X180500Y2628997D02*
Y2629772D01*
Y2630450D02*
Y2631811D01*
X180600Y2629054D02*
Y2630072D01*
Y2630450D02*
Y2631811D01*
X180700Y2629111D02*
Y2630372D01*
Y2630425D02*
Y2631811D01*
X180800Y2629168D02*
Y2631811D01*
X180900Y2629309D02*
Y2631811D01*
X181000Y2629484D02*
Y2631811D01*
X181100Y2629659D02*
Y2631811D01*
X181200Y2629834D02*
Y2631811D01*
X181300Y2630154D02*
Y2631811D01*
X185900Y2630450D02*
Y2637863D01*
X186000Y2630450D02*
Y2637863D01*
X186100Y2630450D02*
Y2637863D01*
X186200Y2630450D02*
Y2637863D01*
X186300Y2630450D02*
Y2637863D01*
X186400Y2630450D02*
Y2637863D01*
X186500Y2630450D02*
Y2637863D01*
X186600Y2630450D02*
Y2637863D01*
X186700Y2630450D02*
Y2637863D01*
X186800Y2630450D02*
Y2637863D01*
X186900Y2630450D02*
Y2637863D01*
X187000Y2630450D02*
Y2637863D01*
X187100Y2630450D02*
Y2637863D01*
X187200Y2630450D02*
Y2631613D01*
Y2633779D02*
Y2634952D01*
Y2636701D02*
Y2637863D01*
X187300Y2630450D02*
Y2631602D01*
Y2633789D02*
Y2634941D01*
Y2636711D02*
Y2637863D01*
X187400Y2630450D02*
Y2631602D01*
Y2633789D02*
Y2634941D01*
Y2636711D02*
Y2637863D01*
X187500Y2630450D02*
Y2631602D01*
Y2633789D02*
Y2634941D01*
Y2636711D02*
Y2637863D01*
X187600Y2630450D02*
Y2631602D01*
Y2633789D02*
Y2634941D01*
Y2636711D02*
Y2637863D01*
X187700Y2630450D02*
Y2631602D01*
Y2633789D02*
Y2634941D01*
Y2636711D02*
Y2637863D01*
X187800Y2630450D02*
Y2631602D01*
Y2633789D02*
Y2634941D01*
Y2636711D02*
Y2637863D01*
X187900Y2630450D02*
Y2631602D01*
Y2633789D02*
Y2634941D01*
Y2636711D02*
Y2637863D01*
X188000Y2630450D02*
Y2631602D01*
Y2633789D02*
Y2634941D01*
Y2636711D02*
Y2637863D01*
X188100Y2630450D02*
Y2631602D01*
Y2633789D02*
Y2634941D01*
Y2636711D02*
Y2637863D01*
X188200Y2630450D02*
Y2631602D01*
Y2633789D02*
Y2634941D01*
Y2636711D02*
Y2637863D01*
X188300Y2630450D02*
Y2631602D01*
Y2633789D02*
Y2634941D01*
Y2636711D02*
Y2637863D01*
X188400Y2630450D02*
Y2631602D01*
Y2633789D02*
Y2634941D01*
Y2636711D02*
Y2637863D01*
X188500Y2630450D02*
Y2631602D01*
Y2633789D02*
Y2634941D01*
Y2636711D02*
Y2637863D01*
X188600Y2630450D02*
Y2631602D01*
Y2633789D02*
Y2634941D01*
Y2636711D02*
Y2637863D01*
X188700Y2630450D02*
Y2631602D01*
Y2633789D02*
Y2634941D01*
Y2636711D02*
Y2637863D01*
X188800Y2630450D02*
Y2631602D01*
Y2633789D02*
Y2634941D01*
Y2636711D02*
Y2637863D01*
X188900Y2630450D02*
Y2631602D01*
Y2633789D02*
Y2634941D01*
Y2636711D02*
Y2637863D01*
X189000Y2630450D02*
Y2631602D01*
Y2633789D02*
Y2634941D01*
Y2636711D02*
Y2637863D01*
X189100Y2630450D02*
Y2631602D01*
Y2633789D02*
Y2634941D01*
Y2636711D02*
Y2637863D01*
X189200Y2630450D02*
Y2631602D01*
Y2633789D02*
Y2634941D01*
Y2636711D02*
Y2637863D01*
X189300Y2630450D02*
Y2631602D01*
Y2633789D02*
Y2634941D01*
Y2636711D02*
Y2637863D01*
X189400Y2630450D02*
Y2631602D01*
Y2633789D02*
Y2634941D01*
Y2636711D02*
Y2637863D01*
X189500Y2630450D02*
Y2631602D01*
Y2633789D02*
Y2634941D01*
Y2636711D02*
Y2637863D01*
X189600Y2630450D02*
Y2631602D01*
Y2633789D02*
Y2634941D01*
Y2636711D02*
Y2637863D01*
X189700Y2630450D02*
Y2631602D01*
Y2633789D02*
Y2634941D01*
Y2636711D02*
Y2637863D01*
X189800Y2630450D02*
Y2631602D01*
Y2633789D02*
Y2634941D01*
Y2636711D02*
Y2637863D01*
X189900Y2630450D02*
Y2631602D01*
Y2633789D02*
Y2634941D01*
Y2636711D02*
Y2637863D01*
X190000Y2630450D02*
Y2631602D01*
Y2633789D02*
Y2634941D01*
Y2636711D02*
Y2637863D01*
X190100Y2630450D02*
Y2631602D01*
Y2633789D02*
Y2634941D01*
Y2636711D02*
Y2637863D01*
X190200Y2630450D02*
Y2631602D01*
Y2633789D02*
Y2634941D01*
Y2636711D02*
Y2637863D01*
X190300Y2630450D02*
Y2631602D01*
Y2633789D02*
Y2634941D01*
Y2636711D02*
Y2637863D01*
X190400Y2630450D02*
Y2631602D01*
Y2633789D02*
Y2634941D01*
Y2636711D02*
Y2637863D01*
X190500Y2630450D02*
Y2631602D01*
Y2633789D02*
Y2634941D01*
Y2636711D02*
Y2637863D01*
X190600Y2630450D02*
Y2631602D01*
Y2633789D02*
Y2634941D01*
Y2636711D02*
Y2637863D01*
X190700Y2630450D02*
Y2631602D01*
Y2633789D02*
Y2634941D01*
Y2636711D02*
Y2637863D01*
X190800Y2630450D02*
Y2631602D01*
Y2633789D02*
Y2634941D01*
Y2636711D02*
Y2637863D01*
X190900Y2630450D02*
Y2631602D01*
Y2633789D02*
Y2634941D01*
Y2636711D02*
Y2637863D01*
X191000Y2630450D02*
Y2631602D01*
Y2633789D02*
Y2634941D01*
Y2636711D02*
Y2637863D01*
X191100Y2630450D02*
Y2631602D01*
Y2636711D02*
Y2637863D01*
X191200Y2630450D02*
Y2631602D01*
Y2636711D02*
Y2637863D01*
X191300Y2630450D02*
Y2631602D01*
Y2636711D02*
Y2637863D01*
X191400Y2630450D02*
Y2631602D01*
X192500Y2634142D02*
Y2634171D01*
X192600Y2633342D02*
Y2634971D01*
X192700Y2632641D02*
Y2635673D01*
X192800Y2632416D02*
Y2635930D01*
X192900Y2632216D02*
Y2636163D01*
X193000Y2632016D02*
Y2636396D01*
X193100Y2631882D02*
Y2636535D01*
X193200Y2631757D02*
Y2636660D01*
X193300Y2631632D02*
Y2636785D01*
X193400Y2631507D02*
Y2636910D01*
X193500Y2631401D02*
Y2637000D01*
X193600Y2631301D02*
Y2637080D01*
X193700Y2631201D02*
Y2637160D01*
X193800Y2631101D02*
Y2637240D01*
X193900Y2631001D02*
Y2633763D01*
Y2634717D02*
Y2637320D01*
X194000Y2630932D02*
Y2632923D01*
Y2635487D02*
Y2637381D01*
X194100Y2630882D02*
Y2632723D01*
Y2635662D02*
Y2637431D01*
X194200Y2630832D02*
Y2632534D01*
Y2635837D02*
Y2637481D01*
X194300Y2630782D02*
Y2632384D01*
Y2636012D02*
Y2637531D01*
X194400Y2630732D02*
Y2632239D01*
Y2636179D02*
Y2637581D01*
X194500Y2630682D02*
Y2632155D01*
Y2636246D02*
Y2637631D01*
X194600Y2630649D02*
Y2632072D01*
Y2636312D02*
Y2637673D01*
X194700Y2630632D02*
Y2631989D01*
Y2636379D02*
Y2637707D01*
X194800Y2630615D02*
Y2631905D01*
Y2636446D02*
Y2637740D01*
X194900Y2630599D02*
Y2631822D01*
Y2636512D02*
Y2637773D01*
X195000Y2630582D02*
Y2631739D01*
Y2636579D02*
Y2637807D01*
X195100Y2630565D02*
Y2631700D01*
Y2636621D02*
Y2637840D01*
X195200Y2630549D02*
Y2631686D01*
Y2636650D02*
Y2637868D01*
X195300Y2630535D02*
Y2631671D01*
Y2636678D02*
Y2637882D01*
X195400Y2630521D02*
Y2631657D01*
Y2636707D02*
Y2637897D01*
X195500Y2630506D02*
Y2631643D01*
Y2636735D02*
Y2637911D01*
X195600Y2630492D02*
Y2631628D01*
Y2636764D02*
Y2637925D01*
X195700Y2630478D02*
Y2631614D01*
Y2636792D02*
Y2637940D01*
X195800Y2630464D02*
Y2631604D01*
Y2636814D02*
Y2637954D01*
X195900Y2630451D02*
Y2631620D01*
Y2636797D02*
Y2637965D01*
X196000Y2630460D02*
Y2631637D01*
Y2636780D02*
Y2637949D01*
X196100Y2630469D02*
Y2631654D01*
Y2636764D02*
Y2637932D01*
X196200Y2630478D02*
Y2631670D01*
Y2636747D02*
Y2637915D01*
X196300Y2630487D02*
Y2631687D01*
Y2636730D02*
Y2637899D01*
X196400Y2630496D02*
Y2631704D01*
Y2636714D02*
Y2637882D01*
X196500Y2630506D02*
Y2631750D01*
Y2636680D02*
Y2637865D01*
X196600Y2630515D02*
Y2631810D01*
Y2636640D02*
Y2637849D01*
X196700Y2630524D02*
Y2631870D01*
Y2636600D02*
Y2637832D01*
X196800Y2630533D02*
Y2631930D01*
Y2636560D02*
Y2637815D01*
X196900Y2630542D02*
Y2631990D01*
Y2636520D02*
Y2637799D01*
X197000Y2630551D02*
Y2632064D01*
Y2636449D02*
Y2637782D01*
X197100Y2630601D02*
Y2632164D01*
Y2636315D02*
Y2637765D01*
X197200Y2630664D02*
Y2632264D01*
Y2636182D02*
Y2637716D01*
X197300Y2630726D02*
Y2632364D01*
Y2636039D02*
Y2637656D01*
X197400Y2630789D02*
Y2632472D01*
Y2635789D02*
Y2637596D01*
X197500Y2630851D02*
Y2632822D01*
Y2635573D02*
Y2637536D01*
X197600Y2630914D02*
Y2633154D01*
Y2635595D02*
Y2637476D01*
X197700Y2630976D02*
Y2633126D01*
Y2635616D02*
Y2637416D01*
X197800Y2631039D02*
Y2633097D01*
Y2635638D02*
Y2637356D01*
X197900Y2631123D02*
Y2633068D01*
Y2635659D02*
Y2637296D01*
X198000Y2631223D02*
Y2633040D01*
Y2635681D02*
Y2637236D01*
X198100Y2631323D02*
Y2633011D01*
Y2635702D02*
Y2637176D01*
X198200Y2631423D02*
Y2632983D01*
Y2635723D02*
Y2637073D01*
X198300Y2631523D02*
Y2632954D01*
Y2635745D02*
Y2636923D01*
X198400Y2631623D02*
Y2632926D01*
Y2635766D02*
Y2636773D01*
X198500Y2631723D02*
Y2632897D01*
Y2635788D02*
Y2636623D01*
X198600Y2631880D02*
Y2632868D01*
Y2635809D02*
Y2636440D01*
X198700Y2632130D02*
Y2632840D01*
Y2635831D02*
Y2636206D01*
X198800Y2632380D02*
Y2632811D01*
Y2635852D02*
Y2635973D01*
X198900Y2632630D02*
Y2632783D01*
X200400Y2630450D02*
Y2637863D01*
X200500Y2630450D02*
Y2637863D01*
X200600Y2630450D02*
Y2637863D01*
X200700Y2630450D02*
Y2637863D01*
X200800Y2630450D02*
Y2637863D01*
X200900Y2630450D02*
Y2637863D01*
X201000Y2630450D02*
Y2637863D01*
X201100Y2630450D02*
Y2637863D01*
X201200Y2630450D02*
Y2637863D01*
X201300Y2630450D02*
Y2637863D01*
X201400Y2630450D02*
Y2637863D01*
X201500Y2630450D02*
Y2637863D01*
X201600Y2630450D02*
Y2637863D01*
X201700Y2630450D02*
Y2631616D01*
Y2633775D02*
Y2634955D01*
Y2636697D02*
Y2637863D01*
X201800Y2630450D02*
Y2631602D01*
Y2633789D02*
Y2634941D01*
Y2636711D02*
Y2637863D01*
X201900Y2630450D02*
Y2631602D01*
Y2633789D02*
Y2634941D01*
Y2636711D02*
Y2637863D01*
X202000Y2630450D02*
Y2631602D01*
Y2633789D02*
Y2634941D01*
Y2636711D02*
Y2637863D01*
X202100Y2630450D02*
Y2631602D01*
Y2633789D02*
Y2634941D01*
Y2636711D02*
Y2637863D01*
X202200Y2630450D02*
Y2631602D01*
Y2633789D02*
Y2634941D01*
Y2636711D02*
Y2637863D01*
X202300Y2630450D02*
Y2631602D01*
Y2633789D02*
Y2634941D01*
Y2636711D02*
Y2637863D01*
X202400Y2630450D02*
Y2631602D01*
Y2633789D02*
Y2634941D01*
Y2636711D02*
Y2637863D01*
X202500Y2630450D02*
Y2631602D01*
Y2633789D02*
Y2634941D01*
Y2636711D02*
Y2637863D01*
X202600Y2630450D02*
Y2631602D01*
Y2633789D02*
Y2634941D01*
Y2636711D02*
Y2637863D01*
X202700Y2630450D02*
Y2631602D01*
Y2633789D02*
Y2634941D01*
Y2636711D02*
Y2637863D01*
X202800Y2630450D02*
Y2631602D01*
Y2633789D02*
Y2634941D01*
Y2636711D02*
Y2637863D01*
X202900Y2630450D02*
Y2631602D01*
Y2633789D02*
Y2634941D01*
Y2636711D02*
Y2637863D01*
X203000Y2630450D02*
Y2631602D01*
Y2633789D02*
Y2634941D01*
Y2636711D02*
Y2637863D01*
X203100Y2630450D02*
Y2631602D01*
Y2633789D02*
Y2634941D01*
Y2636711D02*
Y2637863D01*
X203200Y2630450D02*
Y2631602D01*
Y2633789D02*
Y2634941D01*
Y2636711D02*
Y2637863D01*
X203300Y2630450D02*
Y2631602D01*
Y2633789D02*
Y2634941D01*
Y2636711D02*
Y2637863D01*
X203400Y2630450D02*
Y2631602D01*
Y2633789D02*
Y2634941D01*
Y2636711D02*
Y2637863D01*
X203500Y2630450D02*
Y2631602D01*
Y2633789D02*
Y2634941D01*
Y2636711D02*
Y2637863D01*
X203600Y2630450D02*
Y2631602D01*
Y2633789D02*
Y2634941D01*
Y2636711D02*
Y2637863D01*
X203700Y2630450D02*
Y2631602D01*
Y2633789D02*
Y2634941D01*
Y2636711D02*
Y2637863D01*
X203800Y2630450D02*
Y2631602D01*
Y2633789D02*
Y2634941D01*
Y2636711D02*
Y2637863D01*
X203900Y2630450D02*
Y2631602D01*
Y2633789D02*
Y2634941D01*
Y2636711D02*
Y2637863D01*
X204000Y2630450D02*
Y2631602D01*
Y2633789D02*
Y2634941D01*
Y2636711D02*
Y2637863D01*
X204100Y2630450D02*
Y2631602D01*
Y2633789D02*
Y2634941D01*
Y2636711D02*
Y2637863D01*
X204200Y2630450D02*
Y2631602D01*
Y2633789D02*
Y2634941D01*
Y2636711D02*
Y2637863D01*
X204300Y2630450D02*
Y2631602D01*
Y2633789D02*
Y2634941D01*
Y2636711D02*
Y2637863D01*
X204400Y2630450D02*
Y2631602D01*
Y2633789D02*
Y2634941D01*
Y2636711D02*
Y2637863D01*
X204500Y2630450D02*
Y2631602D01*
Y2633789D02*
Y2634941D01*
Y2636711D02*
Y2637863D01*
X204600Y2630450D02*
Y2631602D01*
Y2633789D02*
Y2634941D01*
Y2636711D02*
Y2637863D01*
X204700Y2630450D02*
Y2631602D01*
Y2633789D02*
Y2634941D01*
Y2636711D02*
Y2637863D01*
X204800Y2630450D02*
Y2631602D01*
Y2633789D02*
Y2634941D01*
Y2636711D02*
Y2637863D01*
X204900Y2630450D02*
Y2631602D01*
Y2633789D02*
Y2634941D01*
Y2636711D02*
Y2637863D01*
X205000Y2630450D02*
Y2631602D01*
Y2633789D02*
Y2634941D01*
Y2636711D02*
Y2637863D01*
X205100Y2630450D02*
Y2631602D01*
Y2633789D02*
Y2634941D01*
Y2636711D02*
Y2637863D01*
X205200Y2630450D02*
Y2631602D01*
Y2633789D02*
Y2634941D01*
Y2636711D02*
Y2637863D01*
X205300Y2630450D02*
Y2631602D01*
Y2633789D02*
Y2634941D01*
Y2636711D02*
Y2637863D01*
X205400Y2630450D02*
Y2631602D01*
Y2633789D02*
Y2634941D01*
Y2636711D02*
Y2637863D01*
X205500Y2630450D02*
Y2631602D01*
Y2633789D02*
Y2634941D01*
Y2636711D02*
Y2637863D01*
X205600Y2630450D02*
Y2631602D01*
Y2636711D02*
Y2637863D01*
X205700Y2630450D02*
Y2631602D01*
Y2636711D02*
Y2637863D01*
X205800Y2630450D02*
Y2631602D01*
Y2636711D02*
Y2637863D01*
X205900Y2630450D02*
Y2631602D01*
X206800Y2631911D02*
Y2633107D01*
X206900Y2631911D02*
Y2633252D01*
X207000Y2631911D02*
Y2633397D01*
X207100Y2631911D02*
Y2633542D01*
X207200Y2631911D02*
Y2633688D01*
X207300Y2631911D02*
Y2633833D01*
X207400Y2631911D02*
Y2633978D01*
X207500Y2631911D02*
Y2634123D01*
X207600Y2631911D02*
Y2634268D01*
X207700Y2631911D02*
Y2634413D01*
X207800Y2631911D02*
Y2634559D01*
X207900Y2631911D02*
Y2634704D01*
X208000Y2631911D02*
Y2634849D01*
X208100Y2631911D02*
Y2633063D01*
Y2633201D02*
Y2634994D01*
X208200Y2631911D02*
Y2633063D01*
Y2633344D02*
Y2635139D01*
X208300Y2631911D02*
Y2633063D01*
Y2633488D02*
Y2635284D01*
X208400Y2631911D02*
Y2633063D01*
Y2633632D02*
Y2635430D01*
X208500Y2631911D02*
Y2633063D01*
Y2633776D02*
Y2635575D01*
X208600Y2631911D02*
Y2633063D01*
Y2633919D02*
Y2635720D01*
X208700Y2631911D02*
Y2633063D01*
Y2634063D02*
Y2635865D01*
X208800Y2631911D02*
Y2633063D01*
Y2634207D02*
Y2636010D01*
X208900Y2631911D02*
Y2633063D01*
Y2634351D02*
Y2636155D01*
X209000Y2631911D02*
Y2633063D01*
Y2634494D02*
Y2636301D01*
X209100Y2631911D02*
Y2633063D01*
Y2634638D02*
Y2636446D01*
X209200Y2631911D02*
Y2633063D01*
Y2634782D02*
Y2636591D01*
X209300Y2631911D02*
Y2633063D01*
Y2634926D02*
Y2636736D01*
X209400Y2631911D02*
Y2633063D01*
Y2635069D02*
Y2636881D01*
X209500Y2631911D02*
Y2633063D01*
Y2635213D02*
Y2637026D01*
X209600Y2631911D02*
Y2633063D01*
Y2635357D02*
Y2637171D01*
X209700Y2631911D02*
Y2633063D01*
Y2635501D02*
Y2637317D01*
X209800Y2631901D02*
Y2633073D01*
Y2635553D02*
Y2637462D01*
X209900Y2630450D02*
Y2637607D01*
X210000Y2630450D02*
Y2637752D01*
X210100Y2630450D02*
Y2637759D01*
X210200Y2630450D02*
Y2637759D01*
X210300Y2630450D02*
Y2637759D01*
X210400Y2630450D02*
Y2637759D01*
X210500Y2630450D02*
Y2637759D01*
X210600Y2630450D02*
Y2637759D01*
X210700Y2630450D02*
Y2637759D01*
X210800Y2630450D02*
Y2637759D01*
X210900Y2630450D02*
Y2637759D01*
X211000Y2630450D02*
Y2637759D01*
X211100Y2630450D02*
Y2637759D01*
X211200Y2631901D02*
Y2633073D01*
X211300Y2631911D02*
Y2633063D01*
X211400Y2631911D02*
Y2633063D01*
X211500Y2631911D02*
Y2633063D01*
X211600Y2631911D02*
Y2633063D01*
X211700Y2631911D02*
Y2633063D01*
X211800Y2631911D02*
Y2633063D01*
X211900Y2631911D02*
Y2633063D01*
X212000Y2631911D02*
Y2633063D01*
X212100Y2631911D02*
Y2633063D01*
X212700Y2631911D02*
Y2633189D01*
X212800Y2631911D02*
Y2633334D01*
X212900Y2631911D02*
Y2633479D01*
X213000Y2631911D02*
Y2633624D01*
X213100Y2631911D02*
Y2633770D01*
X213200Y2631911D02*
Y2633915D01*
X213300Y2631911D02*
Y2634060D01*
X213400Y2631911D02*
Y2634205D01*
X213500Y2631911D02*
Y2634350D01*
X213600Y2631911D02*
Y2634495D01*
X213700Y2631911D02*
Y2634641D01*
X213800Y2631911D02*
Y2634786D01*
X213900Y2631911D02*
Y2633088D01*
Y2633138D02*
Y2634931D01*
X214000Y2631911D02*
Y2633063D01*
Y2633282D02*
Y2635076D01*
X214100Y2631911D02*
Y2633063D01*
Y2633426D02*
Y2635221D01*
X214200Y2631911D02*
Y2633063D01*
Y2633569D02*
Y2635366D01*
X214300Y2631911D02*
Y2633063D01*
Y2633713D02*
Y2635512D01*
X214400Y2631911D02*
Y2633063D01*
Y2633857D02*
Y2635657D01*
X214500Y2631911D02*
Y2633063D01*
Y2634001D02*
Y2635802D01*
X214600Y2631911D02*
Y2633063D01*
Y2634144D02*
Y2635947D01*
X214700Y2631911D02*
Y2633063D01*
Y2634288D02*
Y2636092D01*
X214800Y2631911D02*
Y2633063D01*
Y2634432D02*
Y2636237D01*
X214900Y2631911D02*
Y2633063D01*
Y2634576D02*
Y2636383D01*
X215000Y2631911D02*
Y2633063D01*
Y2634719D02*
Y2636528D01*
X215100Y2631911D02*
Y2633063D01*
Y2634863D02*
Y2636673D01*
X215200Y2631911D02*
Y2633063D01*
Y2635007D02*
Y2636818D01*
X215300Y2631911D02*
Y2633063D01*
Y2635151D02*
Y2636963D01*
X215400Y2631911D02*
Y2633063D01*
Y2635294D02*
Y2637108D01*
X215500Y2631911D02*
Y2633063D01*
Y2635438D02*
Y2637254D01*
X215600Y2631911D02*
Y2633063D01*
Y2635561D02*
Y2637399D01*
X215700Y2630450D02*
Y2637544D01*
X215800Y2630450D02*
Y2637689D01*
X215900Y2630450D02*
Y2637759D01*
X216000Y2630450D02*
Y2637759D01*
X216100Y2630450D02*
Y2637759D01*
X216200Y2630450D02*
Y2637759D01*
X216300Y2630450D02*
Y2637759D01*
X216400Y2630450D02*
Y2637759D01*
X216500Y2630450D02*
Y2637759D01*
X216600Y2630450D02*
Y2637759D01*
X216700Y2630450D02*
Y2637759D01*
X216800Y2630450D02*
Y2637759D01*
X216900Y2630450D02*
Y2637759D01*
X217000Y2630450D02*
Y2637759D01*
X217100Y2631911D02*
Y2633063D01*
X217200Y2631911D02*
Y2633063D01*
X217300Y2631911D02*
Y2633063D01*
X217400Y2631911D02*
Y2633063D01*
X217500Y2631911D02*
Y2633063D01*
X217600Y2631911D02*
Y2633063D01*
X217700Y2631911D02*
Y2633063D01*
X217800Y2631911D02*
Y2633063D01*
X217900Y2631911D02*
Y2633063D01*
X218700Y2633076D02*
Y2635029D01*
X218800Y2632676D02*
Y2635429D01*
X218900Y2632280D02*
Y2635824D01*
X219000Y2631980D02*
Y2636124D01*
X219100Y2631680D02*
Y2636424D01*
X219200Y2631510D02*
Y2636594D01*
X219300Y2631344D02*
Y2636761D01*
X219400Y2631177D02*
Y2636927D01*
X219500Y2631095D02*
Y2637034D01*
X219600Y2631020D02*
Y2637134D01*
X219700Y2630945D02*
Y2637234D01*
X219800Y2630870D02*
Y2637334D01*
X219900Y2630795D02*
Y2637401D01*
X220000Y2630720D02*
Y2634524D01*
Y2635372D02*
Y2637461D01*
X220100Y2630645D02*
Y2632545D01*
Y2633055D02*
Y2634583D01*
Y2635824D02*
Y2637521D01*
X220200Y2630570D02*
Y2632175D01*
Y2633405D02*
Y2634650D01*
Y2636101D02*
Y2637581D01*
X220300Y2630512D02*
Y2631975D01*
Y2633555D02*
Y2634717D01*
Y2636201D02*
Y2637641D01*
X220400Y2630462D02*
Y2631809D01*
Y2633686D02*
Y2634783D01*
Y2636301D02*
Y2637676D01*
X220500Y2630412D02*
Y2631743D01*
Y2633753D02*
Y2634850D01*
Y2636401D02*
Y2637701D01*
X220600Y2630362D02*
Y2631676D01*
Y2633820D02*
Y2634917D01*
Y2636501D02*
Y2637726D01*
X220700Y2630346D02*
Y2631610D01*
Y2633886D02*
Y2634962D01*
Y2636599D02*
Y2637751D01*
X220800Y2630346D02*
Y2631582D01*
Y2633921D02*
Y2634990D01*
Y2636627D02*
Y2637770D01*
X220900Y2630346D02*
Y2631557D01*
Y2633954D02*
Y2635019D01*
Y2636652D02*
Y2637787D01*
X221000Y2630346D02*
Y2631532D01*
Y2633987D02*
Y2635047D01*
Y2636677D02*
Y2637804D01*
X221100Y2630346D02*
Y2631507D01*
Y2633984D02*
Y2635076D01*
Y2636702D02*
Y2637820D01*
X221200Y2630359D02*
Y2631510D01*
Y2633959D02*
Y2635105D01*
Y2636692D02*
Y2637837D01*
X221300Y2630382D02*
Y2631535D01*
Y2633934D02*
Y2635133D01*
Y2636652D02*
Y2637854D01*
X221400Y2630404D02*
Y2631560D01*
Y2633909D02*
Y2635137D01*
Y2636612D02*
Y2637856D01*
X221500Y2630426D02*
Y2631585D01*
Y2633875D02*
Y2635112D01*
Y2636572D02*
Y2637841D01*
X221600Y2630448D02*
Y2631621D01*
Y2633808D02*
Y2635087D01*
Y2636532D02*
Y2637827D01*
X221700Y2630471D02*
Y2631721D01*
Y2633741D02*
Y2635062D01*
Y2636488D02*
Y2637813D01*
X221800Y2630493D02*
Y2631821D01*
Y2633674D02*
Y2635037D01*
Y2636294D02*
Y2637799D01*
X221900Y2630515D02*
Y2631966D01*
Y2633486D02*
Y2635012D01*
Y2636094D02*
Y2637784D01*
X222000Y2630537D02*
Y2632116D01*
Y2633286D02*
Y2634987D01*
Y2635894D02*
Y2637770D01*
X222100Y2630569D02*
Y2632528D01*
Y2632864D02*
Y2634962D01*
Y2635885D02*
Y2637737D01*
X222200Y2630619D02*
Y2634921D01*
Y2635892D02*
Y2637670D01*
X222300Y2630669D02*
Y2634849D01*
Y2635899D02*
Y2637604D01*
X222400Y2630719D02*
Y2634778D01*
Y2635906D02*
Y2637537D01*
X222500Y2630769D02*
Y2634706D01*
Y2635913D02*
Y2637470D01*
X222600Y2630819D02*
Y2634635D01*
Y2635921D02*
Y2637404D01*
X222700Y2630869D02*
Y2634563D01*
Y2635928D02*
Y2637324D01*
X222800Y2630919D02*
Y2634492D01*
Y2635935D02*
Y2637204D01*
X222900Y2630999D02*
Y2634399D01*
Y2635942D02*
Y2637084D01*
X223000Y2631199D02*
Y2634224D01*
Y2635949D02*
Y2636964D01*
X223100Y2631399D02*
Y2634049D01*
Y2635956D02*
Y2636844D01*
X223200Y2631599D02*
Y2633874D01*
Y2635963D02*
Y2636681D01*
X223300Y2631838D02*
Y2633665D01*
Y2635971D02*
Y2636281D01*
X223400Y2632338D02*
Y2633215D01*
X224600Y2632850D02*
Y2635359D01*
X224700Y2632450D02*
Y2635759D01*
X224800Y2632110D02*
Y2636098D01*
X224900Y2631810D02*
Y2636398D01*
X225000Y2631583D02*
Y2636645D01*
X225100Y2631416D02*
Y2636845D01*
X225200Y2631249D02*
Y2637045D01*
X225300Y2631098D02*
Y2637183D01*
X225400Y2630964D02*
Y2637255D01*
X225500Y2630831D02*
Y2637326D01*
X225600Y2630732D02*
Y2637398D01*
X225700Y2630682D02*
Y2637469D01*
X225800Y2630632D02*
Y2637540D01*
X225900Y2630582D02*
Y2632965D01*
Y2635230D02*
Y2637612D01*
X226000Y2630536D02*
Y2632368D01*
Y2635580D02*
Y2637665D01*
X226100Y2630496D02*
Y2632166D01*
Y2635930D02*
Y2637685D01*
X226200Y2630456D02*
Y2631966D01*
Y2636232D02*
Y2637705D01*
X226300Y2630416D02*
Y2631810D01*
Y2636358D02*
Y2637725D01*
X226400Y2630376D02*
Y2631660D01*
Y2636458D02*
Y2637745D01*
X226500Y2630346D02*
Y2631594D01*
Y2636520D02*
Y2637765D01*
X226600Y2630346D02*
Y2631574D01*
Y2636560D02*
Y2637785D01*
X226700Y2630346D02*
Y2631554D01*
Y2636600D02*
Y2637805D01*
X226800Y2630346D02*
Y2631534D01*
Y2636640D02*
Y2637825D01*
X226900Y2630346D02*
Y2631514D01*
Y2636680D02*
Y2637845D01*
X227000Y2630350D02*
Y2631500D01*
Y2636709D02*
Y2637859D01*
X227100Y2630372D02*
Y2631525D01*
Y2636660D02*
Y2637837D01*
X227200Y2630394D02*
Y2631550D01*
Y2636610D02*
Y2637814D01*
X227300Y2630416D02*
Y2631575D01*
Y2636560D02*
Y2637792D01*
X227400Y2630439D02*
Y2631600D01*
Y2636510D02*
Y2637770D01*
X227500Y2630461D02*
Y2631706D01*
Y2636427D02*
Y2637748D01*
X227600Y2630483D02*
Y2631856D01*
Y2636327D02*
Y2637726D01*
X227700Y2630505D02*
Y2632068D01*
Y2636181D02*
Y2637703D01*
X227800Y2630528D02*
Y2632385D01*
Y2635981D02*
Y2637681D01*
X227900Y2630550D02*
Y2632735D01*
Y2635661D02*
Y2637659D01*
X228000Y2630619D02*
Y2637590D01*
X228100Y2630690D02*
Y2637519D01*
X228200Y2630761D02*
Y2637447D01*
X228300Y2630833D02*
Y2637376D01*
X228400Y2630904D02*
Y2637304D01*
X228500Y2630976D02*
Y2637233D01*
X228600Y2631047D02*
Y2637162D01*
X228700Y2631196D02*
Y2636984D01*
X228800Y2631362D02*
Y2636784D01*
X228900Y2631529D02*
Y2636584D01*
X229000Y2631836D02*
Y2636307D01*
X229100Y2632186D02*
Y2636007D01*
X229200Y2632571D02*
Y2635637D01*
X229300Y2632971D02*
Y2635237D01*
X230700Y2629138D02*
Y2629383D01*
Y2630450D02*
Y2631811D01*
X230800Y2628938D02*
Y2629433D01*
Y2630450D02*
Y2631811D01*
X230900Y2628818D02*
Y2629483D01*
Y2630450D02*
Y2631811D01*
X231000Y2628875D02*
Y2629542D01*
Y2630450D02*
Y2631811D01*
X231100Y2628932D02*
Y2629642D01*
Y2630450D02*
Y2631811D01*
X231200Y2628989D02*
Y2629743D01*
Y2630450D02*
Y2631811D01*
X231300Y2629046D02*
Y2630033D01*
Y2630450D02*
Y2631811D01*
X231400Y2629104D02*
Y2630333D01*
Y2630440D02*
Y2631811D01*
X231500Y2629161D02*
Y2631811D01*
X231600Y2629287D02*
Y2631811D01*
X231700Y2629462D02*
Y2631811D01*
X231800Y2629637D02*
Y2631811D01*
X231900Y2629812D02*
Y2631811D01*
X232000Y2630102D02*
Y2631811D01*
X236300Y2633355D02*
Y2635039D01*
X236400Y2632893D02*
Y2635465D01*
X236500Y2632593D02*
Y2635690D01*
X236600Y2632293D02*
Y2635915D01*
X236700Y2632087D02*
Y2636140D01*
X236800Y2631927D02*
Y2636323D01*
X236900Y2631767D02*
Y2636483D01*
X237000Y2631607D02*
Y2636643D01*
X237100Y2631447D02*
Y2636803D01*
X237200Y2631341D02*
Y2636963D01*
X237300Y2631279D02*
Y2637074D01*
X237400Y2631216D02*
Y2637136D01*
X237500Y2631154D02*
Y2637199D01*
X237600Y2631091D02*
Y2634139D01*
Y2634459D02*
Y2637261D01*
X237700Y2631029D02*
Y2633539D01*
Y2635343D02*
Y2637324D01*
X237800Y2630966D02*
Y2632975D01*
Y2635503D02*
Y2637386D01*
X237900Y2630904D02*
Y2632775D01*
Y2635663D02*
Y2637449D01*
X238000Y2630847D02*
Y2632575D01*
Y2635823D02*
Y2637511D01*
X238100Y2630803D02*
Y2632375D01*
Y2635983D02*
Y2637566D01*
X238200Y2630758D02*
Y2632175D01*
Y2636143D02*
Y2637604D01*
X238300Y2630714D02*
Y2632091D01*
Y2636222D02*
Y2637641D01*
X238400Y2630669D02*
Y2632034D01*
Y2636279D02*
Y2637679D01*
X238500Y2630625D02*
Y2631977D01*
Y2636336D02*
Y2637716D01*
X238600Y2630580D02*
Y2631920D01*
Y2636393D02*
Y2637754D01*
X238700Y2630536D02*
Y2631863D01*
Y2636450D02*
Y2637791D01*
X238800Y2630491D02*
Y2631806D01*
Y2636507D02*
Y2637829D01*
X238900Y2630449D02*
Y2631749D01*
Y2636564D02*
Y2637865D01*
X239000Y2630439D02*
Y2631702D01*
Y2636611D02*
Y2637875D01*
X239100Y2630429D02*
Y2631677D01*
Y2636636D02*
Y2637885D01*
X239200Y2630419D02*
Y2631652D01*
Y2636661D02*
Y2637895D01*
X239300Y2630409D02*
Y2631627D01*
Y2636686D02*
Y2637905D01*
X239400Y2630399D02*
Y2631602D01*
Y2636711D02*
Y2637915D01*
X239500Y2630389D02*
Y2631577D01*
Y2636736D02*
Y2637925D01*
X239600Y2630379D02*
Y2631552D01*
Y2636761D02*
Y2637935D01*
X239700Y2630369D02*
Y2631527D01*
Y2636786D02*
Y2637945D01*
X239800Y2630359D02*
Y2631502D01*
Y2636811D02*
Y2637955D01*
X239900Y2630349D02*
Y2631498D01*
Y2636803D02*
Y2637965D01*
X240000Y2630354D02*
Y2631498D01*
Y2633267D02*
Y2634420D01*
Y2636786D02*
Y2637960D01*
X240100Y2630365D02*
Y2631498D01*
Y2633267D02*
Y2634420D01*
Y2636770D02*
Y2637951D01*
X240200Y2630376D02*
Y2631498D01*
Y2633267D02*
Y2634420D01*
Y2636753D02*
Y2637942D01*
X240300Y2630388D02*
Y2631498D01*
Y2633267D02*
Y2634420D01*
Y2636736D02*
Y2637933D01*
X240400Y2630399D02*
Y2631517D01*
Y2633267D02*
Y2634420D01*
Y2636720D02*
Y2637924D01*
X240500Y2630410D02*
Y2631557D01*
Y2633267D02*
Y2634420D01*
Y2636694D02*
Y2637915D01*
X240600Y2630421D02*
Y2631597D01*
Y2633267D02*
Y2634420D01*
Y2636654D02*
Y2637906D01*
X240700Y2630432D02*
Y2631637D01*
Y2633267D02*
Y2634420D01*
Y2636614D02*
Y2637897D01*
X240800Y2630443D02*
Y2631677D01*
Y2633267D02*
Y2634420D01*
Y2636574D02*
Y2637888D01*
X240900Y2630459D02*
Y2631718D01*
Y2633267D02*
Y2634420D01*
Y2636534D02*
Y2637879D01*
X241000Y2630481D02*
Y2631768D01*
Y2633267D02*
Y2634420D01*
Y2636492D02*
Y2637870D01*
X241100Y2630503D02*
Y2631818D01*
Y2633267D02*
Y2634420D01*
Y2636392D02*
Y2637841D01*
X241200Y2630526D02*
Y2631868D01*
Y2633267D02*
Y2634420D01*
Y2636292D02*
Y2637786D01*
X241300Y2630548D02*
Y2631918D01*
Y2633267D02*
Y2634420D01*
Y2636192D02*
Y2637730D01*
X241400Y2630570D02*
Y2631968D01*
Y2633267D02*
Y2634420D01*
Y2636092D02*
Y2637675D01*
X241500Y2630592D02*
Y2632018D01*
Y2633267D02*
Y2634420D01*
Y2635887D02*
Y2637619D01*
X241600Y2630615D02*
Y2632068D01*
Y2633267D02*
Y2634420D01*
Y2635637D02*
Y2637564D01*
X241700Y2630637D02*
Y2632118D01*
Y2633267D02*
Y2634420D01*
Y2635587D02*
Y2637508D01*
X241800Y2630664D02*
Y2634420D01*
Y2635608D02*
Y2637452D01*
X241900Y2630721D02*
Y2634420D01*
Y2635629D02*
Y2637397D01*
X242000Y2630778D02*
Y2634420D01*
Y2635651D02*
Y2637337D01*
X242100Y2630835D02*
Y2634420D01*
Y2635672D02*
Y2637251D01*
X242200Y2630892D02*
Y2634420D01*
Y2635694D02*
Y2637165D01*
X242300Y2630950D02*
Y2634420D01*
Y2635715D02*
Y2637079D01*
X242400Y2631007D02*
Y2634420D01*
Y2635737D02*
Y2636994D01*
X242500Y2631064D02*
Y2634420D01*
Y2635758D02*
Y2636908D01*
X242600Y2631130D02*
Y2634420D01*
Y2635779D02*
Y2636822D01*
X242700Y2631196D02*
Y2634420D01*
Y2635801D02*
Y2636737D01*
X242800Y2631263D02*
Y2634420D01*
Y2635822D02*
Y2636438D01*
X242900Y2631330D02*
Y2634420D01*
Y2635844D02*
Y2636138D01*
X243000Y2631396D02*
Y2634420D01*
X243100Y2631463D02*
Y2634420D01*
X244000Y2630450D02*
Y2630547D01*
X244100Y2630450D02*
Y2630814D01*
X244200Y2630450D02*
Y2631081D01*
X244300Y2630450D02*
Y2631347D01*
X244400Y2630450D02*
Y2631614D01*
X244500Y2630450D02*
Y2631881D01*
X244600Y2630450D02*
Y2632147D01*
X244700Y2630450D02*
Y2632414D01*
X244800Y2630450D02*
Y2632681D01*
X244900Y2630450D02*
Y2632947D01*
X245000Y2630450D02*
Y2633214D01*
X245100Y2630450D02*
Y2633481D01*
X245200Y2630450D02*
Y2633747D01*
X245300Y2630450D02*
Y2634014D01*
X245400Y2630450D02*
Y2634281D01*
X245500Y2630658D02*
Y2634547D01*
X245600Y2630925D02*
Y2634814D01*
X245700Y2631192D02*
Y2635081D01*
X245800Y2631458D02*
Y2635347D01*
X245900Y2631725D02*
Y2635614D01*
X246000Y2631992D02*
Y2635881D01*
X246100Y2632120D02*
Y2636147D01*
X246200Y2632120D02*
Y2636414D01*
X246300Y2632120D02*
Y2636681D01*
X246400Y2632120D02*
Y2636947D01*
X246500Y2632120D02*
Y2633272D01*
Y2633466D02*
Y2637214D01*
X246600Y2632120D02*
Y2633272D01*
Y2633736D02*
Y2637481D01*
X246700Y2632120D02*
Y2633272D01*
Y2634006D02*
Y2637747D01*
X246800Y2632120D02*
Y2633272D01*
Y2634276D02*
Y2637863D01*
X246900Y2632120D02*
Y2633272D01*
Y2634546D02*
Y2637863D01*
X247000Y2632120D02*
Y2633272D01*
Y2634816D02*
Y2637863D01*
X247100Y2632120D02*
Y2633272D01*
Y2635086D02*
Y2637863D01*
X247200Y2632120D02*
Y2633272D01*
Y2635356D02*
Y2637863D01*
X247300Y2632120D02*
Y2633272D01*
Y2635626D02*
Y2637863D01*
X247400Y2632120D02*
Y2633272D01*
Y2635896D02*
Y2637863D01*
X247500Y2632120D02*
Y2633272D01*
Y2636164D02*
Y2637863D01*
X247600Y2632120D02*
Y2633272D01*
Y2636128D02*
Y2637863D01*
X247700Y2632120D02*
Y2633272D01*
Y2635828D02*
Y2637863D01*
X247800Y2632120D02*
Y2633272D01*
Y2635528D02*
Y2637863D01*
X247900Y2632120D02*
Y2633272D01*
Y2635228D02*
Y2637863D01*
X248000Y2632120D02*
Y2633272D01*
Y2634928D02*
Y2637863D01*
X248100Y2632120D02*
Y2633272D01*
Y2634628D02*
Y2637863D01*
X248200Y2632120D02*
Y2633272D01*
Y2634328D02*
Y2637863D01*
X248300Y2632120D02*
Y2633272D01*
Y2634028D02*
Y2637701D01*
X248400Y2632120D02*
Y2633272D01*
Y2633728D02*
Y2637434D01*
X248500Y2632120D02*
Y2633275D01*
Y2633428D02*
Y2637168D01*
X248600Y2632120D02*
Y2636901D01*
X248700Y2632120D02*
Y2636634D01*
X248800Y2632120D02*
Y2636368D01*
X248900Y2632120D02*
Y2636101D01*
X249000Y2631945D02*
Y2635834D01*
X249100Y2631679D02*
Y2635568D01*
X249200Y2631412D02*
Y2635301D01*
X249300Y2631145D02*
Y2635034D01*
X249400Y2630879D02*
Y2634768D01*
X249500Y2630612D02*
Y2634501D01*
X249600Y2630450D02*
Y2634234D01*
X249700Y2630450D02*
Y2633968D01*
X249800Y2630450D02*
Y2633701D01*
X249900Y2630450D02*
Y2633434D01*
X250000Y2630450D02*
Y2633168D01*
X250100Y2630450D02*
Y2632901D01*
X250200Y2630450D02*
Y2632634D01*
X250300Y2630450D02*
Y2632368D01*
X250400Y2630450D02*
Y2632101D01*
X250500Y2630450D02*
Y2631834D01*
X250600Y2630450D02*
Y2631568D01*
X250700Y2630450D02*
Y2631301D01*
X250800Y2630450D02*
Y2631034D01*
X250900Y2630450D02*
Y2630768D01*
X251000Y2630450D02*
Y2630501D01*
X254400Y2636711D02*
Y2637863D01*
X254500Y2636711D02*
Y2637863D01*
X254600Y2636711D02*
Y2637863D01*
X254700Y2636711D02*
Y2637863D01*
X254800Y2636711D02*
Y2637863D01*
X254900Y2636711D02*
Y2637863D01*
X255000Y2636711D02*
Y2637863D01*
X255100Y2636711D02*
Y2637863D01*
X255200Y2636711D02*
Y2637863D01*
X255300Y2636711D02*
Y2637863D01*
X255400Y2636711D02*
Y2637863D01*
X255500Y2636711D02*
Y2637863D01*
X255600Y2636711D02*
Y2637863D01*
X255700Y2636711D02*
Y2637863D01*
X255800Y2636711D02*
Y2637863D01*
X255900Y2636711D02*
Y2637863D01*
X256000Y2636711D02*
Y2637863D01*
X256100Y2636711D02*
Y2637863D01*
X256200Y2636711D02*
Y2637863D01*
X256300Y2636711D02*
Y2637863D01*
X256400Y2636711D02*
Y2637863D01*
X256500Y2636711D02*
Y2637863D01*
X256600Y2630450D02*
Y2637863D01*
X256700Y2630450D02*
Y2637863D01*
X256800Y2630450D02*
Y2637863D01*
X256900Y2630450D02*
Y2637863D01*
X257000Y2630450D02*
Y2637863D01*
X257100Y2630450D02*
Y2637863D01*
X257200Y2630450D02*
Y2637863D01*
X257300Y2630450D02*
Y2637863D01*
X257400Y2630450D02*
Y2637863D01*
X257500Y2630450D02*
Y2637863D01*
X257600Y2630450D02*
Y2637863D01*
X257700Y2630450D02*
Y2637863D01*
X257800Y2630450D02*
Y2637863D01*
X257900Y2630450D02*
Y2637863D01*
X258000Y2636711D02*
Y2637863D01*
X258100Y2636711D02*
Y2637863D01*
X258200Y2636711D02*
Y2637863D01*
X258300Y2636711D02*
Y2637863D01*
X258400Y2636711D02*
Y2637863D01*
X258500Y2636711D02*
Y2637863D01*
X258600Y2636711D02*
Y2637863D01*
X258700Y2636711D02*
Y2637863D01*
X258800Y2636711D02*
Y2637863D01*
X258900Y2636711D02*
Y2637863D01*
X259000Y2636711D02*
Y2637863D01*
X259100Y2636711D02*
Y2637863D01*
X259200Y2636711D02*
Y2637863D01*
X259300Y2636711D02*
Y2637863D01*
X259400Y2636711D02*
Y2637863D01*
X259500Y2636711D02*
Y2637863D01*
X259600Y2636711D02*
Y2637863D01*
X259700Y2636711D02*
Y2637863D01*
X259800Y2636711D02*
Y2637863D01*
X259900Y2636711D02*
Y2637863D01*
X260000Y2636711D02*
Y2637863D01*
X260100Y2636711D02*
Y2637863D01*
X261200Y2630450D02*
Y2637863D01*
X261300Y2630450D02*
Y2637863D01*
X261400Y2630450D02*
Y2637863D01*
X261500Y2630450D02*
Y2637863D01*
X261600Y2630450D02*
Y2637863D01*
X261700Y2630450D02*
Y2637863D01*
X261800Y2630450D02*
Y2637863D01*
X261900Y2630450D02*
Y2637863D01*
X262000Y2630450D02*
Y2637863D01*
X262100Y2630450D02*
Y2637863D01*
X262200Y2630450D02*
Y2637863D01*
X262300Y2630450D02*
Y2637863D01*
X262400Y2630450D02*
Y2637863D01*
X262500Y2630450D02*
Y2637863D01*
X262600Y2630450D02*
Y2631602D01*
Y2633789D02*
Y2634941D01*
Y2636711D02*
Y2637863D01*
X262700Y2630450D02*
Y2631602D01*
Y2633789D02*
Y2634941D01*
Y2636711D02*
Y2637863D01*
X262800Y2630450D02*
Y2631602D01*
Y2633789D02*
Y2634941D01*
Y2636711D02*
Y2637863D01*
X262900Y2630450D02*
Y2631602D01*
Y2633789D02*
Y2634941D01*
Y2636711D02*
Y2637863D01*
X263000Y2630450D02*
Y2631602D01*
Y2633789D02*
Y2634941D01*
Y2636711D02*
Y2637863D01*
X263100Y2630450D02*
Y2631602D01*
Y2633789D02*
Y2634941D01*
Y2636711D02*
Y2637863D01*
X263200Y2630450D02*
Y2631602D01*
Y2633789D02*
Y2634941D01*
Y2636711D02*
Y2637863D01*
X263300Y2630450D02*
Y2631602D01*
Y2633789D02*
Y2634941D01*
Y2636711D02*
Y2637863D01*
X263400Y2630450D02*
Y2631602D01*
Y2633789D02*
Y2634941D01*
Y2636711D02*
Y2637863D01*
X263500Y2630450D02*
Y2631602D01*
Y2633789D02*
Y2634941D01*
Y2636711D02*
Y2637863D01*
X263600Y2630450D02*
Y2631602D01*
Y2633789D02*
Y2634941D01*
Y2636711D02*
Y2637863D01*
X263700Y2630450D02*
Y2631602D01*
Y2633789D02*
Y2634941D01*
Y2636711D02*
Y2637863D01*
X263800Y2630450D02*
Y2631602D01*
Y2633789D02*
Y2634941D01*
Y2636711D02*
Y2637863D01*
X263900Y2630450D02*
Y2631602D01*
Y2633789D02*
Y2634941D01*
Y2636711D02*
Y2637863D01*
X264000Y2630450D02*
Y2631602D01*
Y2633789D02*
Y2634941D01*
Y2636711D02*
Y2637863D01*
X264100Y2630450D02*
Y2631602D01*
Y2633789D02*
Y2634941D01*
Y2636711D02*
Y2637863D01*
X264200Y2630450D02*
Y2631602D01*
Y2633789D02*
Y2634941D01*
Y2636711D02*
Y2637863D01*
X264300Y2630450D02*
Y2631602D01*
Y2633789D02*
Y2634941D01*
Y2636711D02*
Y2637863D01*
X264400Y2630450D02*
Y2631602D01*
Y2633789D02*
Y2634941D01*
Y2636711D02*
Y2637863D01*
X264500Y2630450D02*
Y2631602D01*
Y2633789D02*
Y2634941D01*
Y2636711D02*
Y2637863D01*
X264600Y2630450D02*
Y2631602D01*
Y2633789D02*
Y2634941D01*
Y2636711D02*
Y2637863D01*
X264700Y2630450D02*
Y2631602D01*
Y2633789D02*
Y2634941D01*
Y2636711D02*
Y2637863D01*
X264800Y2630450D02*
Y2631602D01*
Y2633789D02*
Y2634941D01*
Y2636711D02*
Y2637863D01*
X264900Y2630450D02*
Y2631602D01*
Y2633789D02*
Y2634941D01*
Y2636711D02*
Y2637863D01*
X265000Y2630450D02*
Y2631602D01*
Y2633789D02*
Y2634941D01*
Y2636711D02*
Y2637863D01*
X265100Y2630450D02*
Y2631602D01*
Y2633789D02*
Y2634941D01*
Y2636711D02*
Y2637863D01*
X265200Y2630450D02*
Y2631602D01*
Y2633789D02*
Y2634941D01*
Y2636711D02*
Y2637863D01*
X265300Y2630450D02*
Y2631602D01*
Y2633789D02*
Y2634941D01*
Y2636711D02*
Y2637863D01*
X265400Y2630450D02*
Y2631602D01*
Y2633789D02*
Y2634941D01*
Y2636711D02*
Y2637863D01*
X265500Y2630450D02*
Y2631602D01*
Y2633789D02*
Y2634941D01*
Y2636711D02*
Y2637863D01*
X265600Y2630450D02*
Y2631602D01*
Y2633789D02*
Y2634941D01*
Y2636711D02*
Y2637863D01*
X265700Y2630450D02*
Y2631602D01*
Y2633789D02*
Y2634941D01*
Y2636711D02*
Y2637863D01*
X265800Y2630450D02*
Y2631602D01*
Y2633789D02*
Y2634941D01*
Y2636711D02*
Y2637863D01*
X265900Y2630450D02*
Y2631602D01*
Y2633789D02*
Y2634941D01*
Y2636711D02*
Y2637863D01*
X266000Y2630450D02*
Y2631602D01*
Y2633789D02*
Y2634941D01*
Y2636711D02*
Y2637863D01*
X266100Y2630450D02*
Y2631602D01*
Y2633789D02*
Y2634941D01*
Y2636711D02*
Y2637863D01*
X266200Y2630450D02*
Y2631602D01*
Y2633789D02*
Y2634941D01*
Y2636711D02*
Y2637863D01*
X266300Y2630450D02*
Y2631602D01*
Y2633789D02*
Y2634941D01*
Y2636711D02*
Y2637863D01*
X266400Y2630450D02*
Y2631602D01*
Y2636711D02*
Y2637863D01*
X266500Y2630450D02*
Y2631602D01*
Y2636711D02*
Y2637863D01*
X266600Y2630450D02*
Y2631602D01*
Y2636711D02*
Y2637863D01*
X266700Y2630450D02*
Y2631602D01*
X267900Y2633655D02*
Y2634658D01*
X268000Y2632914D02*
Y2635399D01*
X268100Y2632494D02*
Y2635838D01*
X268200Y2632294D02*
Y2636072D01*
X268300Y2632094D02*
Y2636305D01*
X268400Y2631931D02*
Y2636486D01*
X268500Y2631806D02*
Y2636611D01*
X268600Y2631681D02*
Y2636736D01*
X268700Y2631556D02*
Y2636861D01*
X268800Y2631440D02*
Y2636969D01*
X268900Y2631340D02*
Y2637049D01*
X269000Y2631240D02*
Y2637129D01*
X269100Y2631140D02*
Y2637209D01*
X269200Y2631040D02*
Y2634233D01*
Y2634287D02*
Y2637289D01*
X269300Y2630952D02*
Y2633033D01*
Y2635387D02*
Y2637361D01*
X269400Y2630902D02*
Y2632801D01*
Y2635593D02*
Y2637411D01*
X269500Y2630852D02*
Y2632601D01*
Y2635768D02*
Y2637461D01*
X269600Y2630802D02*
Y2632442D01*
Y2635943D02*
Y2637511D01*
X269700Y2630752D02*
Y2632292D01*
Y2636118D02*
Y2637561D01*
X269800Y2630702D02*
Y2632188D01*
Y2636220D02*
Y2637611D01*
X269900Y2630655D02*
Y2632104D01*
Y2636286D02*
Y2637660D01*
X270000Y2630638D02*
Y2632021D01*
Y2636353D02*
Y2637694D01*
X270100Y2630622D02*
Y2631938D01*
Y2636420D02*
Y2637727D01*
X270200Y2630605D02*
Y2631854D01*
Y2636486D02*
Y2637760D01*
X270300Y2630588D02*
Y2631771D01*
Y2636553D02*
Y2637794D01*
X270400Y2630572D02*
Y2631705D01*
Y2636610D02*
Y2637827D01*
X270500Y2630555D02*
Y2631691D01*
Y2636638D02*
Y2637860D01*
X270600Y2630541D02*
Y2631677D01*
Y2636667D02*
Y2637877D01*
X270700Y2630526D02*
Y2631663D01*
Y2636695D02*
Y2637891D01*
X270800Y2630512D02*
Y2631648D01*
Y2636724D02*
Y2637905D01*
X270900Y2630498D02*
Y2631634D01*
Y2636753D02*
Y2637920D01*
X271000Y2630483D02*
Y2631620D01*
Y2636781D02*
Y2637934D01*
X271100Y2630469D02*
Y2631605D01*
Y2636810D02*
Y2637948D01*
X271200Y2630455D02*
Y2631614D01*
Y2636804D02*
Y2637963D01*
X271300Y2630457D02*
Y2631630D01*
Y2636787D02*
Y2637955D01*
X271400Y2630466D02*
Y2631647D01*
Y2636770D02*
Y2637938D01*
X271500Y2630475D02*
Y2631664D01*
Y2636754D02*
Y2637922D01*
X271600Y2630484D02*
Y2631680D01*
Y2636737D02*
Y2637905D01*
X271700Y2630493D02*
Y2631697D01*
Y2636720D02*
Y2637888D01*
X271800Y2630502D02*
Y2631727D01*
Y2636696D02*
Y2637872D01*
X271900Y2630511D02*
Y2631787D01*
Y2636656D02*
Y2637855D01*
X272000Y2630520D02*
Y2631847D01*
Y2636616D02*
Y2637838D01*
X272100Y2630529D02*
Y2631907D01*
Y2636576D02*
Y2637822D01*
X272200Y2630538D02*
Y2631967D01*
Y2636536D02*
Y2637805D01*
X272300Y2630547D02*
Y2632027D01*
Y2636495D02*
Y2637788D01*
X272400Y2630577D02*
Y2632125D01*
Y2636367D02*
Y2637772D01*
X272500Y2630639D02*
Y2632225D01*
Y2636234D02*
Y2637740D01*
X272600Y2630702D02*
Y2632325D01*
Y2636101D02*
Y2637680D01*
X272700Y2630764D02*
Y2632425D01*
Y2635887D02*
Y2637620D01*
X272800Y2630827D02*
Y2632685D01*
Y2635637D02*
Y2637560D01*
X272900Y2630889D02*
Y2633035D01*
Y2635587D02*
Y2637500D01*
X273000Y2630952D02*
Y2633137D01*
Y2635608D02*
Y2637440D01*
X273100Y2631014D02*
Y2633108D01*
Y2635629D02*
Y2637380D01*
X273200Y2631084D02*
Y2633080D01*
Y2635651D02*
Y2637320D01*
X273300Y2631184D02*
Y2633051D01*
Y2635672D02*
Y2637260D01*
X273400Y2631284D02*
Y2633023D01*
Y2635694D02*
Y2637200D01*
X273500Y2631384D02*
Y2632994D01*
Y2635715D02*
Y2637132D01*
X273600Y2631484D02*
Y2632965D01*
Y2635737D02*
Y2636982D01*
X273700Y2631584D02*
Y2632937D01*
Y2635758D02*
Y2636832D01*
X273800Y2631684D02*
Y2632908D01*
Y2635779D02*
Y2636682D01*
X273900Y2631784D02*
Y2632880D01*
Y2635801D02*
Y2636531D01*
X274000Y2632032D02*
Y2632851D01*
Y2635822D02*
Y2636298D01*
X274100Y2632282D02*
Y2632823D01*
Y2635844D02*
Y2636064D01*
X274200Y2632532D02*
Y2632794D01*
X275700Y2630450D02*
Y2637863D01*
X275800Y2630450D02*
Y2637863D01*
X275900Y2630450D02*
Y2637863D01*
X276000Y2630450D02*
Y2637863D01*
X276100Y2630450D02*
Y2637863D01*
X276200Y2630450D02*
Y2637863D01*
X276300Y2630450D02*
Y2637863D01*
X276400Y2630450D02*
Y2637863D01*
X276500Y2630450D02*
Y2637863D01*
X276600Y2630450D02*
Y2637863D01*
X276700Y2630450D02*
Y2637863D01*
X276800Y2630450D02*
Y2637863D01*
X276900Y2630450D02*
Y2637863D01*
X277000Y2630450D02*
Y2637863D01*
X277100Y2633789D02*
Y2634941D01*
X277200Y2633789D02*
Y2634941D01*
X277300Y2633789D02*
Y2634941D01*
X277400Y2633789D02*
Y2634941D01*
X277500Y2633789D02*
Y2634941D01*
X277600Y2633789D02*
Y2634941D01*
X277700Y2633789D02*
Y2634941D01*
X277800Y2633789D02*
Y2634941D01*
X277900Y2633789D02*
Y2634941D01*
X278000Y2633789D02*
Y2634941D01*
X278100Y2633789D02*
Y2634941D01*
X278200Y2633789D02*
Y2634941D01*
X278300Y2633789D02*
Y2634941D01*
X278400Y2633789D02*
Y2634941D01*
X278500Y2633789D02*
Y2634941D01*
X278600Y2633789D02*
Y2634941D01*
X278700Y2633789D02*
Y2634941D01*
X278800Y2633789D02*
Y2634941D01*
X278900Y2633789D02*
Y2634941D01*
X279000Y2633789D02*
Y2634941D01*
X279100Y2633789D02*
Y2634941D01*
X279200Y2633789D02*
Y2634941D01*
X279300Y2633789D02*
Y2634941D01*
X279400Y2633789D02*
Y2634941D01*
X279500Y2633789D02*
Y2634941D01*
X279600Y2633789D02*
Y2634941D01*
X279700Y2633789D02*
Y2634941D01*
X279800Y2633789D02*
Y2634941D01*
X279900Y2633789D02*
Y2634941D01*
X280000Y2633789D02*
Y2634941D01*
X280100Y2633789D02*
Y2634941D01*
X280200Y2633789D02*
Y2634941D01*
X280300Y2630450D02*
Y2637863D01*
X280400Y2630450D02*
Y2637863D01*
X280500Y2630450D02*
Y2637863D01*
X280600Y2630450D02*
Y2637863D01*
X280700Y2630450D02*
Y2637863D01*
X280800Y2630450D02*
Y2637863D01*
X280900Y2630450D02*
Y2637863D01*
X281000Y2630450D02*
Y2637863D01*
X281100Y2630450D02*
Y2637863D01*
X281200Y2630450D02*
Y2637863D01*
X281300Y2630450D02*
Y2637863D01*
X281400Y2630450D02*
Y2637863D01*
X281500Y2630450D02*
Y2637863D01*
X281600Y2630450D02*
Y2637863D01*
X283200Y2630450D02*
Y2631811D01*
X283300Y2630450D02*
Y2631811D01*
X283400Y2630450D02*
Y2631811D01*
X283500Y2630450D02*
Y2631811D01*
X283600Y2630450D02*
Y2631811D01*
X283700Y2630450D02*
Y2631811D01*
X283800Y2630450D02*
Y2631811D01*
X283900Y2630450D02*
Y2631811D01*
X284000Y2630450D02*
Y2631811D01*
X284100Y2630450D02*
Y2631811D01*
X284200Y2630450D02*
Y2631811D01*
X284300Y2630450D02*
Y2631811D01*
X284400Y2630450D02*
Y2631811D01*
X284500Y2630450D02*
Y2631811D01*
*
G04 PC Custom Flashes*
G04 Layer Name ECE4460_PG_VersionB.pcb - flashes*
%LPD*%
*
*
G04 PC Circuitry*
G04 Layer Name ECE4460_PG_VersionB.pcb - circuitry*
%LPD*%
*
G54D10*
G54D11*
X124500Y2950200D02*
X109500D01*
Y2949200*
X124500*
Y2950200*
X109500Y2949200D02*
Y2950200D01*
X110000Y2949200D02*
Y2950200D01*
X110500Y2949200D02*
Y2950200D01*
X111000Y2949200D02*
Y2950200D01*
X111500Y2949200D02*
Y2950200D01*
X112000Y2949200D02*
Y2950200D01*
X112500Y2949200D02*
Y2950200D01*
X113000Y2949200D02*
Y2950200D01*
X113500Y2949200D02*
Y2950200D01*
X114000Y2949200D02*
Y2950200D01*
X114500Y2949200D02*
Y2950200D01*
X115000Y2949200D02*
Y2950200D01*
X115500Y2949200D02*
Y2950200D01*
X116000Y2949200D02*
Y2950200D01*
X116500Y2949200D02*
Y2950200D01*
X117000Y2949200D02*
Y2950200D01*
X117500Y2949200D02*
Y2950200D01*
X118000Y2949200D02*
Y2950200D01*
X118500Y2949200D02*
Y2950200D01*
X119000Y2949200D02*
Y2950200D01*
X119500Y2949200D02*
Y2950200D01*
X120000Y2949200D02*
Y2950200D01*
X120500Y2949200D02*
Y2950200D01*
X121000Y2949200D02*
Y2950200D01*
X121500Y2949200D02*
Y2950200D01*
X122000Y2949200D02*
Y2950200D01*
X122500Y2949200D02*
Y2950200D01*
X123000Y2949200D02*
Y2950200D01*
X123500Y2949200D02*
Y2950200D01*
X124000Y2949200D02*
Y2950200D01*
X671500Y2949200D02*
X686500D01*
Y2950200*
X671500*
Y2949200*
Y2950200*
X672000Y2949200D02*
Y2950200D01*
X672500Y2949200D02*
Y2950200D01*
X673000Y2949200D02*
Y2950200D01*
X673500Y2949200D02*
Y2950200D01*
X674000Y2949200D02*
Y2950200D01*
X674500Y2949200D02*
Y2950200D01*
X675000Y2949200D02*
Y2950200D01*
X675500Y2949200D02*
Y2950200D01*
X676000Y2949200D02*
Y2950200D01*
X676500Y2949200D02*
Y2950200D01*
X677000Y2949200D02*
Y2950200D01*
X677500Y2949200D02*
Y2950200D01*
X678000Y2949200D02*
Y2950200D01*
X678500Y2949200D02*
Y2950200D01*
X679000Y2949200D02*
Y2950200D01*
X679500Y2949200D02*
Y2950200D01*
X680000Y2949200D02*
Y2950200D01*
X680500Y2949200D02*
Y2950200D01*
X681000Y2949200D02*
Y2950200D01*
X681500Y2949200D02*
Y2950200D01*
X682000Y2949200D02*
Y2950200D01*
X682500Y2949200D02*
Y2950200D01*
X683000Y2949200D02*
Y2950200D01*
X683500Y2949200D02*
Y2950200D01*
X684000Y2949200D02*
Y2950200D01*
X684500Y2949200D02*
Y2950200D01*
X685000Y2949200D02*
Y2950200D01*
X685500Y2949200D02*
Y2950200D01*
X686000Y2949200D02*
Y2950200D01*
X671500Y2799200D02*
X686500D01*
Y2800200*
X671500*
Y2799200*
Y2800200*
X672000Y2799200D02*
Y2800200D01*
X672500Y2799200D02*
Y2800200D01*
X673000Y2799200D02*
Y2800200D01*
X673500Y2799200D02*
Y2800200D01*
X674000Y2799200D02*
Y2800200D01*
X674500Y2799200D02*
Y2800200D01*
X675000Y2799200D02*
Y2800200D01*
X675500Y2799200D02*
Y2800200D01*
X676000Y2799200D02*
Y2800200D01*
X676500Y2799200D02*
Y2800200D01*
X677000Y2799200D02*
Y2800200D01*
X677500Y2799200D02*
Y2800200D01*
X678000Y2799200D02*
Y2800200D01*
X678500Y2799200D02*
Y2800200D01*
X679000Y2799200D02*
Y2800200D01*
X679500Y2799200D02*
Y2800200D01*
X680000Y2799200D02*
Y2800200D01*
X680500Y2799200D02*
Y2800200D01*
X681000Y2799200D02*
Y2800200D01*
X681500Y2799200D02*
Y2800200D01*
X682000Y2799200D02*
Y2800200D01*
X682500Y2799200D02*
Y2800200D01*
X683000Y2799200D02*
Y2800200D01*
X683500Y2799200D02*
Y2800200D01*
X684000Y2799200D02*
Y2800200D01*
X684500Y2799200D02*
Y2800200D01*
X685000Y2799200D02*
Y2800200D01*
X685500Y2799200D02*
Y2800200D01*
X686000Y2799200D02*
Y2800200D01*
X671500Y2699200D02*
X686500D01*
Y2700200*
X671500*
Y2699200*
Y2700200*
X672000Y2699200D02*
Y2700200D01*
X672500Y2699200D02*
Y2700200D01*
X673000Y2699200D02*
Y2700200D01*
X673500Y2699200D02*
Y2700200D01*
X674000Y2699200D02*
Y2700200D01*
X674500Y2699200D02*
Y2700200D01*
X675000Y2699200D02*
Y2700200D01*
X675500Y2699200D02*
Y2700200D01*
X676000Y2699200D02*
Y2700200D01*
X676500Y2699200D02*
Y2700200D01*
X677000Y2699200D02*
Y2700200D01*
X677500Y2699200D02*
Y2700200D01*
X678000Y2699200D02*
Y2700200D01*
X678500Y2699200D02*
Y2700200D01*
X679000Y2699200D02*
Y2700200D01*
X679500Y2699200D02*
Y2700200D01*
X680000Y2699200D02*
Y2700200D01*
X680500Y2699200D02*
Y2700200D01*
X681000Y2699200D02*
Y2700200D01*
X681500Y2699200D02*
Y2700200D01*
X682000Y2699200D02*
Y2700200D01*
X682500Y2699200D02*
Y2700200D01*
X683000Y2699200D02*
Y2700200D01*
X683500Y2699200D02*
Y2700200D01*
X684000Y2699200D02*
Y2700200D01*
X684500Y2699200D02*
Y2700200D01*
X685000Y2699200D02*
Y2700200D01*
X685500Y2699200D02*
Y2700200D01*
X686000Y2699200D02*
Y2700200D01*
X124500D02*
X109500D01*
Y2699200*
X124500*
Y2700200*
X109500Y2699200D02*
Y2700200D01*
X110000Y2699200D02*
Y2700200D01*
X110500Y2699200D02*
Y2700200D01*
X111000Y2699200D02*
Y2700200D01*
X111500Y2699200D02*
Y2700200D01*
X112000Y2699200D02*
Y2700200D01*
X112500Y2699200D02*
Y2700200D01*
X113000Y2699200D02*
Y2700200D01*
X113500Y2699200D02*
Y2700200D01*
X114000Y2699200D02*
Y2700200D01*
X114500Y2699200D02*
Y2700200D01*
X115000Y2699200D02*
Y2700200D01*
X115500Y2699200D02*
Y2700200D01*
X116000Y2699200D02*
Y2700200D01*
X116500Y2699200D02*
Y2700200D01*
X117000Y2699200D02*
Y2700200D01*
X117500Y2699200D02*
Y2700200D01*
X118000Y2699200D02*
Y2700200D01*
X118500Y2699200D02*
Y2700200D01*
X119000Y2699200D02*
Y2700200D01*
X119500Y2699200D02*
Y2700200D01*
X120000Y2699200D02*
Y2700200D01*
X120500Y2699200D02*
Y2700200D01*
X121000Y2699200D02*
Y2700200D01*
X121500Y2699200D02*
Y2700200D01*
X122000Y2699200D02*
Y2700200D01*
X122500Y2699200D02*
Y2700200D01*
X123000Y2699200D02*
Y2700200D01*
X123500Y2699200D02*
Y2700200D01*
X124000Y2699200D02*
Y2700200D01*
X124500Y2900200D02*
X109500D01*
Y2899200*
X124500*
Y2900200*
X109500Y2899200D02*
Y2900200D01*
X110000Y2899200D02*
Y2900200D01*
X110500Y2899200D02*
Y2900200D01*
X111000Y2899200D02*
Y2900200D01*
X111500Y2899200D02*
Y2900200D01*
X112000Y2899200D02*
Y2900200D01*
X112500Y2899200D02*
Y2900200D01*
X113000Y2899200D02*
Y2900200D01*
X113500Y2899200D02*
Y2900200D01*
X114000Y2899200D02*
Y2900200D01*
X114500Y2899200D02*
Y2900200D01*
X115000Y2899200D02*
Y2900200D01*
X115500Y2899200D02*
Y2900200D01*
X116000Y2899200D02*
Y2900200D01*
X116500Y2899200D02*
Y2900200D01*
X117000Y2899200D02*
Y2900200D01*
X117500Y2899200D02*
Y2900200D01*
X118000Y2899200D02*
Y2900200D01*
X118500Y2899200D02*
Y2900200D01*
X119000Y2899200D02*
Y2900200D01*
X119500Y2899200D02*
Y2900200D01*
X120000Y2899200D02*
Y2900200D01*
X120500Y2899200D02*
Y2900200D01*
X121000Y2899200D02*
Y2900200D01*
X121500Y2899200D02*
Y2900200D01*
X122000Y2899200D02*
Y2900200D01*
X122500Y2899200D02*
Y2900200D01*
X123000Y2899200D02*
Y2900200D01*
X123500Y2899200D02*
Y2900200D01*
X124000Y2899200D02*
Y2900200D01*
X124500Y2850200D02*
X109500D01*
Y2849200*
X124500*
Y2850200*
X109500Y2849200D02*
Y2850200D01*
X110000Y2849200D02*
Y2850200D01*
X110500Y2849200D02*
Y2850200D01*
X111000Y2849200D02*
Y2850200D01*
X111500Y2849200D02*
Y2850200D01*
X112000Y2849200D02*
Y2850200D01*
X112500Y2849200D02*
Y2850200D01*
X113000Y2849200D02*
Y2850200D01*
X113500Y2849200D02*
Y2850200D01*
X114000Y2849200D02*
Y2850200D01*
X114500Y2849200D02*
Y2850200D01*
X115000Y2849200D02*
Y2850200D01*
X115500Y2849200D02*
Y2850200D01*
X116000Y2849200D02*
Y2850200D01*
X116500Y2849200D02*
Y2850200D01*
X117000Y2849200D02*
Y2850200D01*
X117500Y2849200D02*
Y2850200D01*
X118000Y2849200D02*
Y2850200D01*
X118500Y2849200D02*
Y2850200D01*
X119000Y2849200D02*
Y2850200D01*
X119500Y2849200D02*
Y2850200D01*
X120000Y2849200D02*
Y2850200D01*
X120500Y2849200D02*
Y2850200D01*
X121000Y2849200D02*
Y2850200D01*
X121500Y2849200D02*
Y2850200D01*
X122000Y2849200D02*
Y2850200D01*
X122500Y2849200D02*
Y2850200D01*
X123000Y2849200D02*
Y2850200D01*
X123500Y2849200D02*
Y2850200D01*
X124000Y2849200D02*
Y2850200D01*
X124500Y2800200D02*
X109500D01*
Y2799200*
X124500*
Y2800200*
X109500Y2799200D02*
Y2800200D01*
X110000Y2799200D02*
Y2800200D01*
X110500Y2799200D02*
Y2800200D01*
X111000Y2799200D02*
Y2800200D01*
X111500Y2799200D02*
Y2800200D01*
X112000Y2799200D02*
Y2800200D01*
X112500Y2799200D02*
Y2800200D01*
X113000Y2799200D02*
Y2800200D01*
X113500Y2799200D02*
Y2800200D01*
X114000Y2799200D02*
Y2800200D01*
X114500Y2799200D02*
Y2800200D01*
X115000Y2799200D02*
Y2800200D01*
X115500Y2799200D02*
Y2800200D01*
X116000Y2799200D02*
Y2800200D01*
X116500Y2799200D02*
Y2800200D01*
X117000Y2799200D02*
Y2800200D01*
X117500Y2799200D02*
Y2800200D01*
X118000Y2799200D02*
Y2800200D01*
X118500Y2799200D02*
Y2800200D01*
X119000Y2799200D02*
Y2800200D01*
X119500Y2799200D02*
Y2800200D01*
X120000Y2799200D02*
Y2800200D01*
X120500Y2799200D02*
Y2800200D01*
X121000Y2799200D02*
Y2800200D01*
X121500Y2799200D02*
Y2800200D01*
X122000Y2799200D02*
Y2800200D01*
X122500Y2799200D02*
Y2800200D01*
X123000Y2799200D02*
Y2800200D01*
X123500Y2799200D02*
Y2800200D01*
X124000Y2799200D02*
Y2800200D01*
X124500Y2750200D02*
X109500D01*
Y2749200*
X124500*
Y2750200*
X109500Y2749200D02*
Y2750200D01*
X110000Y2749200D02*
Y2750200D01*
X110500Y2749200D02*
Y2750200D01*
X111000Y2749200D02*
Y2750200D01*
X111500Y2749200D02*
Y2750200D01*
X112000Y2749200D02*
Y2750200D01*
X112500Y2749200D02*
Y2750200D01*
X113000Y2749200D02*
Y2750200D01*
X113500Y2749200D02*
Y2750200D01*
X114000Y2749200D02*
Y2750200D01*
X114500Y2749200D02*
Y2750200D01*
X115000Y2749200D02*
Y2750200D01*
X115500Y2749200D02*
Y2750200D01*
X116000Y2749200D02*
Y2750200D01*
X116500Y2749200D02*
Y2750200D01*
X117000Y2749200D02*
Y2750200D01*
X117500Y2749200D02*
Y2750200D01*
X118000Y2749200D02*
Y2750200D01*
X118500Y2749200D02*
Y2750200D01*
X119000Y2749200D02*
Y2750200D01*
X119500Y2749200D02*
Y2750200D01*
X120000Y2749200D02*
Y2750200D01*
X120500Y2749200D02*
Y2750200D01*
X121000Y2749200D02*
Y2750200D01*
X121500Y2749200D02*
Y2750200D01*
X122000Y2749200D02*
Y2750200D01*
X122500Y2749200D02*
Y2750200D01*
X123000Y2749200D02*
Y2750200D01*
X123500Y2749200D02*
Y2750200D01*
X124000Y2749200D02*
Y2750200D01*
X671500Y2899200D02*
X686500D01*
Y2900200*
X671500*
Y2899200*
Y2900200*
X672000Y2899200D02*
Y2900200D01*
X672500Y2899200D02*
Y2900200D01*
X673000Y2899200D02*
Y2900200D01*
X673500Y2899200D02*
Y2900200D01*
X674000Y2899200D02*
Y2900200D01*
X674500Y2899200D02*
Y2900200D01*
X675000Y2899200D02*
Y2900200D01*
X675500Y2899200D02*
Y2900200D01*
X676000Y2899200D02*
Y2900200D01*
X676500Y2899200D02*
Y2900200D01*
X677000Y2899200D02*
Y2900200D01*
X677500Y2899200D02*
Y2900200D01*
X678000Y2899200D02*
Y2900200D01*
X678500Y2899200D02*
Y2900200D01*
X679000Y2899200D02*
Y2900200D01*
X679500Y2899200D02*
Y2900200D01*
X680000Y2899200D02*
Y2900200D01*
X680500Y2899200D02*
Y2900200D01*
X681000Y2899200D02*
Y2900200D01*
X681500Y2899200D02*
Y2900200D01*
X682000Y2899200D02*
Y2900200D01*
X682500Y2899200D02*
Y2900200D01*
X683000Y2899200D02*
Y2900200D01*
X683500Y2899200D02*
Y2900200D01*
X684000Y2899200D02*
Y2900200D01*
X684500Y2899200D02*
Y2900200D01*
X685000Y2899200D02*
Y2900200D01*
X685500Y2899200D02*
Y2900200D01*
X686000Y2899200D02*
Y2900200D01*
X671500Y2849200D02*
X686500D01*
Y2850200*
X671500*
Y2849200*
Y2850200*
X672000Y2849200D02*
Y2850200D01*
X672500Y2849200D02*
Y2850200D01*
X673000Y2849200D02*
Y2850200D01*
X673500Y2849200D02*
Y2850200D01*
X674000Y2849200D02*
Y2850200D01*
X674500Y2849200D02*
Y2850200D01*
X675000Y2849200D02*
Y2850200D01*
X675500Y2849200D02*
Y2850200D01*
X676000Y2849200D02*
Y2850200D01*
X676500Y2849200D02*
Y2850200D01*
X677000Y2849200D02*
Y2850200D01*
X677500Y2849200D02*
Y2850200D01*
X678000Y2849200D02*
Y2850200D01*
X678500Y2849200D02*
Y2850200D01*
X679000Y2849200D02*
Y2850200D01*
X679500Y2849200D02*
Y2850200D01*
X680000Y2849200D02*
Y2850200D01*
X680500Y2849200D02*
Y2850200D01*
X681000Y2849200D02*
Y2850200D01*
X681500Y2849200D02*
Y2850200D01*
X682000Y2849200D02*
Y2850200D01*
X682500Y2849200D02*
Y2850200D01*
X683000Y2849200D02*
Y2850200D01*
X683500Y2849200D02*
Y2850200D01*
X684000Y2849200D02*
Y2850200D01*
X684500Y2849200D02*
Y2850200D01*
X685000Y2849200D02*
Y2850200D01*
X685500Y2849200D02*
Y2850200D01*
X686000Y2849200D02*
Y2850200D01*
X671500Y2749200D02*
X686500D01*
Y2750200*
X671500*
Y2749200*
Y2750200*
X672000Y2749200D02*
Y2750200D01*
X672500Y2749200D02*
Y2750200D01*
X673000Y2749200D02*
Y2750200D01*
X673500Y2749200D02*
Y2750200D01*
X674000Y2749200D02*
Y2750200D01*
X674500Y2749200D02*
Y2750200D01*
X675000Y2749200D02*
Y2750200D01*
X675500Y2749200D02*
Y2750200D01*
X676000Y2749200D02*
Y2750200D01*
X676500Y2749200D02*
Y2750200D01*
X677000Y2749200D02*
Y2750200D01*
X677500Y2749200D02*
Y2750200D01*
X678000Y2749200D02*
Y2750200D01*
X678500Y2749200D02*
Y2750200D01*
X679000Y2749200D02*
Y2750200D01*
X679500Y2749200D02*
Y2750200D01*
X680000Y2749200D02*
Y2750200D01*
X680500Y2749200D02*
Y2750200D01*
X681000Y2749200D02*
Y2750200D01*
X681500Y2749200D02*
Y2750200D01*
X682000Y2749200D02*
Y2750200D01*
X682500Y2749200D02*
Y2750200D01*
X683000Y2749200D02*
Y2750200D01*
X683500Y2749200D02*
Y2750200D01*
X684000Y2749200D02*
Y2750200D01*
X684500Y2749200D02*
Y2750200D01*
X685000Y2749200D02*
Y2750200D01*
X685500Y2749200D02*
Y2750200D01*
X686000Y2749200D02*
Y2750200D01*
X100500Y3099500D02*
X695500D01*
Y2616700*
X100500*
Y3099500*
G54D14*
X221900Y2678200D02*
Y2678100D01*
X255100Y2674000D02*
X255300D01*
X245700Y2678400D02*
Y2678600D01*
X260000Y2678400D02*
X260200D01*
X274200Y2674100D02*
X274400D01*
X264700Y2678400D02*
Y2678800D01*
X112862Y2714400D02*
X113450D01*
X113500Y2714450*
X112862Y2714400D02*
X113100D01*
X106900Y2718300D02*
X110800Y2714400D01*
X112862*
X113100D02*
X117000D01*
X117300Y2714100*
X120500Y2717300*
X113100Y2714400D02*
X113450D01*
X113500Y2714450*
X213500Y2725900D02*
X213800D01*
X273300Y2724700D02*
X273400Y2724800D01*
X273500*
X676100Y2719000D02*
X680400Y2714700D01*
X682250*
X682500Y2714450*
X686350*
X686600Y2714200*
X689700Y2717300*
X106900Y2731400D02*
X110450Y2734950D01*
X113500*
X113550Y2735000*
X116800*
X120500Y2731300*
X676100Y2731700D02*
X679350Y2734950D01*
X682500*
X682650Y2735100*
X682900*
X682500Y2734950D02*
X685350D01*
X689700Y2730600*
X675700Y2768000D02*
X679400Y2764300D01*
X679550Y2764450*
X682500*
X682750*
X682900Y2764300*
X682500Y2764450D02*
X682550Y2764400D01*
X687200*
X689700Y2766900*
X106500Y2782100D02*
X109350Y2784950D01*
X113500*
Y2774600D02*
X113400Y2774700D01*
X113500Y2774600*
Y2764579*
X113400Y2774700D02*
Y2784850D01*
X113500Y2784950*
X113550Y2785000*
X115700*
X120100Y2780600*
X675700Y2781000D02*
X679650Y2784950D01*
X682500*
X682850Y2784600*
X682900*
X682500Y2784950D02*
X682650Y2785100D01*
X686600*
X689700Y2782000*
X476900Y2793500D02*
Y2793200D01*
X113300Y2814650D02*
X113350Y2814600D01*
X113500Y2814450*
X113350Y2814600D02*
X113500Y2814450D01*
X106500Y2818900D02*
X110800Y2814600D01*
X113350*
X113500Y2814450D02*
X117650D01*
X117800Y2814300*
X119700Y2816200*
X675700Y2818900D02*
X680000Y2814600D01*
X682350*
X682500Y2814450*
Y2814700D02*
X687800D01*
X689700Y2816600*
X682500Y2814450D02*
Y2814700D01*
X106500Y2831100D02*
X110400Y2835000D01*
X113100*
X113300D02*
X113100D01*
X116800*
X119700Y2832100*
X113100Y2835000D02*
X113450D01*
X113500Y2834950*
X113300Y2835000D02*
X113450D01*
X113500Y2834950*
X215900Y2834400D02*
X216718D01*
X238474Y2829800D02*
X238492Y2829818D01*
X274400Y2833900D02*
X274500Y2833800D01*
Y2832818*
X675700Y2831300D02*
X679350Y2834950D01*
X682500*
X682600Y2834850D02*
X682500Y2834950D01*
X685550*
X689700Y2830800*
X107300Y2868100D02*
X111000Y2864400D01*
X113450*
X113500Y2864450*
X115750Y2866700*
X120100*
X107300Y2881700D02*
X110550Y2884950D01*
X113500*
Y2874700D02*
X113700Y2874900D01*
Y2882400D02*
X120100D01*
X113500Y2884950D02*
X113700Y2884750D01*
Y2882400*
X676100Y2882100D02*
X678950Y2884950D01*
X682500*
X113500Y2914800D02*
X117400D01*
X120100Y2917500*
X107300Y2918000D02*
X110800Y2914500D01*
X113450*
X113500Y2914450*
Y2914800*
X107300Y2932000D02*
X110250Y2934950D01*
X113500*
X113750Y2935200*
X113800*
X113500Y2934950D02*
X115950D01*
X120100Y2930800*
X676100Y2931100D02*
X680000Y2935000D01*
X682450*
X682500Y2934950*
Y2964450D02*
X682550Y2964500D01*
X687000*
X689300Y2966800*
G54D15*
X238492Y2829818D03*
Y2827259D03*
Y2824700D03*
Y2822141D03*
Y2819582D03*
Y2817023D03*
Y2814464D03*
Y2811905D03*
Y2809346D03*
Y2806787D03*
X262508D03*
Y2809346D03*
Y2811905D03*
Y2814464D03*
Y2817023D03*
Y2819582D03*
Y2822141D03*
Y2824700D03*
Y2827259D03*
Y2829818D03*
G54D16*
X255000Y2678400D03*
X260000D03*
X236300D03*
X241300D03*
X216900Y2678200D03*
X221900D03*
X274400Y2678500D03*
X279400D03*
X238700Y2782300D03*
X243700D03*
G54D17*
X523700Y2625600D03*
X529900D03*
G54D19*
X418100D03*
X369300Y2625900D03*
G54D20*
X428100Y2625600D03*
X379300Y2625900D03*
G54D21*
X501300Y2625600D03*
X491300D03*
G54D22*
X111000Y2949700D03*
X685000D03*
Y2799700D03*
Y2699700D03*
X111000D03*
Y2899700D03*
Y2849700D03*
Y2799700D03*
Y2749700D03*
X685000Y2899700D03*
Y2849700D03*
Y2749700D03*
G54D23*
X113500Y2964450D03*
Y2934950D03*
X682500D03*
Y2964450D03*
Y2784950D03*
Y2814450D03*
Y2684950D03*
Y2714450D03*
X113500D03*
Y2684950D03*
Y2914450D03*
Y2884950D03*
Y2864450D03*
Y2834950D03*
Y2814450D03*
Y2784950D03*
Y2764450D03*
Y2734950D03*
X682500Y2884950D03*
Y2914450D03*
Y2834950D03*
Y2864450D03*
Y2734950D03*
Y2764450D03*
G54D27*
X215900Y2834400D03*
Y2839400D03*
X274400Y2833900D03*
Y2838900D03*
G54D32*
X465400Y2893600D03*
Y2899800D03*
X465300Y2693600D03*
Y2699800D03*
Y2793500D03*
Y2799700D03*
G54D80*
X369500Y2635500D03*
X379200Y2635900D03*
X418300Y2636600D03*
X428300Y2636700D03*
X491200Y2633400D03*
X530000Y2633200D03*
X119200Y2673500D03*
X106100Y2673300D03*
X113700Y2673100D03*
X211500Y2678100D03*
X226800Y2678300D03*
X236400Y2674200D03*
X245700Y2678600D03*
X255300Y2674000D03*
X264700Y2678800D03*
X274400Y2674100D03*
X284400Y2678600D03*
X674500Y2670900D03*
X682100D03*
X689700D03*
X474900Y2693700D03*
X106900Y2724500D03*
X120500D03*
X113500Y2724600D03*
X213500Y2725900D03*
X222700Y2725700D03*
X234100Y2725500D03*
X243600Y2725400D03*
X262600Y2725800D03*
X252700Y2725300D03*
X281800Y2725100D03*
X273500Y2724800D03*
X676100Y2724500D03*
X682900D03*
X689700D03*
X106500Y2774900D03*
X120100D03*
X113400Y2774700D03*
X248500Y2782100D03*
X675700Y2774900D03*
X682900D03*
X689700D03*
X270500Y2806900D03*
X476900Y2793200D03*
X106500Y2824900D03*
X119700D03*
X113300D03*
X675700D03*
X682600Y2825000D03*
X689700Y2824900D03*
X222100Y2834500D03*
X215900Y2846000D03*
X268500Y2833700D03*
X274400Y2845000D03*
X107300Y2874500D03*
X120100Y2874900D03*
X113700D03*
X676100D03*
X682500D03*
X688900D03*
X477500Y2893600D03*
X107300Y2924600D03*
X113800D03*
X120100D03*
X676100Y2924900D03*
X682700D03*
X689300D03*
X107300Y2975700D03*
X113300D03*
X119700Y2975800D03*
X675300Y2976900D03*
X682500D03*
X689300D03*
G54D83*
X253500Y2731500D03*
X262500D03*
X273300Y2730900D03*
X282300D03*
X234500Y2731500D03*
X243500D03*
X213800Y2731900D03*
X222800D03*
G54D84*
X576500Y2799700D03*
X581500D03*
X571800Y2699900D03*
X576800D03*
X207200Y2781900D03*
X202200D03*
X585100Y2899500D03*
X590100D03*
G54D86*
X170900Y2928300D03*
Y2923300D03*
G54D87*
X369300Y2625900D02*
Y2635100D01*
X369500Y2635500*
X418100Y2625600D02*
Y2636400D01*
X418300Y2636600*
X428100Y2625600D02*
Y2636500D01*
X428300Y2636700*
X501300Y2625600D02*
X523700D01*
X529900D02*
Y2632800D01*
X530000Y2633200*
X379200Y2635900D02*
X379300Y2635800D01*
Y2625900*
X491200Y2633400D02*
X491300Y2633300D01*
Y2625600*
X106100Y2673300D02*
Y2681900D01*
X109200Y2685000*
X113450*
X113500Y2684950*
X113700Y2684750*
Y2673100*
X113500Y2684950D02*
X113550Y2684900D01*
X115800*
X119200Y2681500*
Y2673500*
X211500Y2678100D02*
X211600Y2678200D01*
X216900*
X221900D02*
X222000Y2678300D01*
X226800*
X241300Y2678400D02*
X245700D01*
X236300D02*
X236400Y2678300D01*
Y2674200*
X260000Y2678400D02*
X264700D01*
X255000D02*
X255100Y2678300D01*
Y2674000*
X274400Y2674100D02*
Y2678500D01*
X279400D02*
X279500Y2678600D01*
X284400*
X674500Y2670900D02*
Y2679900D01*
X679550Y2684950*
X682500*
X682100Y2670900D02*
Y2685300D01*
X682150*
X682500Y2684950*
X686050*
X689700Y2681300*
Y2670900*
X465300Y2693600D02*
X465400Y2693700D01*
X474900*
X120500Y2717300D02*
Y2724500D01*
X106900Y2718300D02*
Y2724500D01*
Y2731400*
X113500Y2714450D02*
Y2724600D01*
X213800Y2725900D02*
Y2731900D01*
X222700Y2725700D02*
Y2731800D01*
X222800Y2731900*
X234100Y2725500D02*
Y2731100D01*
X234500Y2731500*
X252700Y2725300D02*
Y2730700D01*
X253500Y2731500*
X281800Y2725100D02*
Y2730400D01*
X282300Y2730900*
X273300Y2724700D02*
Y2730900D01*
X676100Y2719000D02*
Y2724500D01*
Y2731700*
X682900Y2724500D02*
Y2735100D01*
X682500Y2714450D02*
Y2724100D01*
X682900Y2724500*
X689700Y2717300D02*
Y2724500D01*
Y2730600*
X120500Y2731300D02*
Y2724500D01*
X113500Y2734950D02*
Y2724600D01*
X243500Y2731500D02*
X243600Y2731400D01*
Y2725400*
X262500Y2731500D02*
X262600Y2731400D01*
Y2725800*
X113500Y2764579D02*
X113721Y2764800D01*
X115400*
X120100Y2769500*
Y2774900*
X113500Y2764579D02*
Y2764450D01*
X111000Y2749700D02*
X130400Y2749600D01*
X131200*
X145000Y2735800*
X159300*
X172200Y2748700*
Y2802300*
X186900Y2817000*
X238469*
X238492Y2817023*
X682900Y2764300D02*
Y2774900D01*
X689700Y2766900D02*
Y2774900D01*
X106500D02*
Y2769800D01*
X111500Y2764800*
X113150*
X113500Y2764450*
X106500Y2774900D02*
Y2782100D01*
X120100Y2774900D02*
Y2780600D01*
X207200Y2781900D02*
Y2801000D01*
X213000Y2806800*
X213013Y2806787*
X238492*
X243700Y2782300D02*
X248300D01*
X248500Y2782100*
X675700Y2768000D02*
Y2774900D01*
Y2781000*
X682900Y2774900D02*
Y2784600D01*
X689700Y2774900D02*
Y2782000D01*
X111000Y2799700D02*
X114600D01*
X114700Y2799800*
X142500*
X145000Y2802300*
Y2808882*
X155700Y2819582*
X238492*
Y2806787D02*
X238700Y2806579D01*
Y2782300*
X262508Y2806787D02*
X262621Y2806900D01*
X270500*
X465300Y2799700D02*
X576500D01*
X465300Y2793500D02*
X476900D01*
X119700Y2816200D02*
Y2824900D01*
X106500Y2831100D02*
Y2824900D01*
Y2818900*
X113300Y2824900D02*
Y2814650D01*
X682500Y2814700D02*
Y2824900D01*
X682600Y2825000*
X675700Y2818900D02*
Y2824900D01*
Y2831300*
X689700Y2816600D02*
Y2824900D01*
Y2830800*
X119700Y2832100D02*
Y2824900D01*
X113300Y2835000D02*
Y2824900D01*
X216718Y2834400D02*
X221100Y2830018D01*
Y2829818*
X238492*
X215900Y2846000D02*
Y2839400D01*
Y2834400D02*
X216000Y2834500D01*
X222100*
X262508Y2829818D02*
X270100D01*
X274182Y2833900*
X274400*
X268500Y2833700D02*
X268700Y2833900D01*
X274400*
Y2845000D02*
Y2838900D01*
X682600Y2834850D02*
Y2825000D01*
X120100Y2866700D02*
Y2874900D01*
X107300Y2868100D02*
Y2874500D01*
X113500Y2864450D02*
Y2874700D01*
X111000Y2849700D02*
X151000Y2849100D01*
X178000Y2822100*
X238133Y2822200*
X238492Y2822141*
X682500Y2874900D02*
Y2864450D01*
X685950*
X686200Y2864200*
X688900Y2866900*
Y2874900*
X120100Y2882400D02*
Y2874900D01*
X113700Y2882400D02*
Y2874900D01*
X107300Y2874500D02*
Y2881700D01*
X676100Y2874900D02*
Y2869000D01*
X680000Y2865100*
X681850*
X682500Y2864450*
X676100Y2874900D02*
Y2882100D01*
X682500Y2874900D02*
Y2884950D01*
X682550Y2884900*
X684700*
X688900Y2880700*
Y2874900D02*
Y2880700D01*
X465400Y2899800D02*
X538300D01*
X551500Y2913000*
X552500Y2914000*
X566500*
X566600*
X567600Y2913000*
X581100Y2899500*
X585100*
X465400Y2893600D02*
X477500D01*
X120100Y2917500D02*
Y2924600D01*
X113500Y2914800D02*
Y2924300D01*
X113800Y2924600*
X107300Y2918000D02*
Y2924600D01*
Y2932000*
X676100Y2924900D02*
Y2918400D01*
X680000Y2914500*
X682450*
X682500Y2914450*
X676100Y2924900D02*
Y2931100D01*
X682500Y2914450D02*
X682650Y2914600D01*
X682700*
Y2924900*
X682500Y2914450D02*
X682550Y2914400D01*
X687700*
X689300Y2916000*
Y2924900*
Y2931900*
X120100Y2930800D02*
Y2924600D01*
X113800Y2935200D02*
Y2924600D01*
X682500Y2934950D02*
X682700Y2934750D01*
Y2924900*
X682500Y2934950D02*
X682750Y2935200D01*
X686000*
X689300Y2931900*
X113500Y2964450D02*
X116750D01*
X117000Y2964200*
X119700Y2966900*
Y2975800*
X111000Y2949700D02*
X130300D01*
X151700Y2928300*
X170900*
X682500Y2964450D02*
Y2976900D01*
X689300Y2966800D02*
Y2976900D01*
X107300Y2975700D02*
Y2968400D01*
X111500Y2964200*
X111750Y2964450*
X113500*
X113300Y2975700D02*
X113500Y2975500D01*
Y2964450*
X675300Y2976900D02*
Y2967800D01*
X678400Y2964700*
X682250*
X682500Y2964450*
G54D88*
X111000Y2699700D02*
X135400D01*
X202300Y2766600*
Y2806500*
X210300Y2814500*
X238456*
X238492Y2814464*
X576800Y2699900D02*
X684800D01*
X685000Y2699700*
X581500Y2799700D02*
X685000D01*
X262508Y2827259D02*
X283200D01*
X405600Y2949700*
X685000*
X262508Y2824700D02*
X288200D01*
X378500Y2915000*
X385900*
X401300Y2899600*
X402900*
X465400*
Y2899800*
X262508Y2822141D02*
X293100D01*
X320900Y2850200*
X683400*
X685000Y2849700*
X262508Y2819582D02*
X262726Y2819600D01*
X297400*
X317300Y2799700*
X398500*
X409000Y2810200*
X428700*
X429600Y2809300*
X439000Y2799800*
X465300Y2799700*
X262508Y2817023D02*
X293000Y2817000D01*
X378500Y2731500*
X399600*
Y2731600*
X417700Y2749700*
X685000*
X262508Y2814464D02*
Y2814500D01*
X284400*
X399000Y2699900*
X571800*
X111000Y2899700D02*
X140300D01*
X163900Y2923300*
X170900*
X590100Y2899500D02*
X590300Y2899700D01*
X685000*
X170900Y2923300D02*
X179600D01*
X184500Y2918400*
Y2832300*
X192100Y2824700*
X194000*
X238492*
X170900Y2928300D02*
X171600Y2929000D01*
X183500*
X193000Y2919500*
Y2833900*
X199641Y2827259*
X238492*
G54D89*
X238474Y2829800D02*
X238492Y2829818D01*
X0Y0D02*
M02*
