*
*
G04 PADS VX.2.8 Build Number: 19810023 generated Gerber (RS-274-X) file*
G04 PC Version=2.1*
*
%IN "ECE4460_PG_VersionB.pcb"*%
*
%MOIN*%
*
%FSLAX35Y35*%
*
*
*
*
G04 PC Standard Apertures*
*
*
G04 Thermal Relief Aperture macro.*
%AMTER*
1,1,$1,0,0*
1,0,$1-$2,0,0*
21,0,$3,$4,0,0,45*
21,0,$3,$4,0,0,135*
%
*
*
G04 Annular Aperture macro.*
%AMANN*
1,1,$1,0,0*
1,0,$2,0,0*
%
*
*
G04 Odd Aperture macro.*
%AMODD*
1,1,$1,0,0*
1,0,$1-0.005,0,0*
%
*
*
G04 PC Custom Aperture Macros*
*
*
*
*
*
*
G04 PC Aperture Table*
*
%ADD010C,0.001*%
%ADD011C,0.01*%
%ADD012C,0.005*%
%ADD014C,0.006*%
*
*
*
*
G04 PC Circuitry*
G04 Layer Name ECE4460_PG_VersionB.pcb - circuitry*
%LPD*%
*
*
G04 PC Custom Flashes*
G04 Layer Name ECE4460_PG_VersionB.pcb - flashes*
%LPD*%
*
*
G04 PC Circuitry*
G04 Layer Name ECE4460_PG_VersionB.pcb - circuitry*
%LPD*%
*
G54D10*
G01X258500Y2677150D02*
X261500D01*
Y2679650*
X258500*
Y2677150*
X253500D02*
X256500D01*
Y2679650*
X253500*
Y2677150*
X239800D02*
X242800D01*
Y2679650*
X239800*
Y2677150*
X234800D02*
X237800D01*
Y2679650*
X234800*
Y2677150*
X220400Y2676950D02*
X223400D01*
Y2679450*
X220400*
Y2676950*
X215400D02*
X218400D01*
Y2679450*
X215400*
Y2676950*
X277900Y2677250D02*
X280900D01*
Y2679750*
X277900*
Y2677250*
X272900D02*
X275900D01*
Y2679750*
X272900*
Y2677250*
X242200Y2781050D02*
X245200D01*
Y2783550*
X242200*
Y2781050*
X237200D02*
X240200D01*
Y2783550*
X237200*
Y2781050*
X217150Y2837900D02*
Y2840900D01*
X214650*
Y2837900*
X217150*
Y2832900D02*
Y2835900D01*
X214650*
Y2832900*
X217150*
X275650Y2837400D02*
Y2840400D01*
X273150*
Y2837400*
X275650*
Y2832400D02*
Y2835400D01*
X273150*
Y2832400*
X275650*
G54D11*
X577750Y2802700D02*
X573200D01*
Y2796700*
X577750*
X580250Y2802700D02*
X584800D01*
Y2796700*
X580250*
X525600Y2629100D02*
X519800D01*
Y2622100*
X525600*
X528000Y2629100D02*
X533800D01*
Y2622100*
X528000*
X573050Y2702900D02*
X568500D01*
Y2696900*
X573050*
X575550Y2702900D02*
X580100D01*
Y2696900*
X575550*
X173900Y2927050D02*
Y2931600D01*
X167900*
Y2927050*
X173900Y2924550D02*
Y2920000D01*
X167900*
Y2924550*
X205950Y2778900D02*
X210500D01*
Y2784900*
X205950*
X203450Y2778900D02*
X198900D01*
Y2784900*
X203450*
X413100Y2630600D02*
X433100D01*
Y2620600*
X413100*
Y2630600*
X258000Y2733500D02*
Y2729500D01*
X277800Y2732900D02*
Y2728900D01*
X239000Y2733500D02*
Y2729500D01*
X218300Y2733900D02*
Y2729900D01*
X461900Y2895500D02*
Y2889700D01*
X468900*
Y2895500*
X461900Y2897900D02*
Y2903700D01*
X468900*
Y2897900*
X586350Y2902500D02*
X581800D01*
Y2896500*
X586350*
X588850Y2902500D02*
X593400D01*
Y2896500*
X588850*
X461800Y2695500D02*
Y2689700D01*
X468800*
Y2695500*
X461800Y2697900D02*
Y2703700D01*
X468800*
Y2697900*
X461800Y2795400D02*
Y2789600D01*
X468800*
Y2795400*
X461800Y2797800D02*
Y2803600D01*
X468800*
Y2797800*
X364300Y2630900D02*
X384300D01*
Y2620900*
X364300*
Y2630900*
X232000Y2843106D02*
Y2838888D01*
X232000D02*
X232227Y2838044D01*
X232682Y2837481*
X233364Y2837200*
X233818*
X234500Y2837481*
X234955Y2838044*
X235182Y2838888*
X235182D02*
Y2843106D01*
X237227Y2841981D02*
X237682Y2842263D01*
X237682D02*
X238364Y2843106D01*
Y2837200*
X573200Y2812563D02*
Y2806000D01*
Y2812563D02*
X575245D01*
X575245D02*
X575927Y2812250D01*
X576155Y2811938*
X576155D02*
X576382Y2811313D01*
X576382D02*
Y2810688D01*
X576382D02*
X576155Y2810063D01*
X576155D02*
X575927Y2809750D01*
X575245Y2809438*
X575245D02*
X573200D01*
X574791D02*
X576382Y2806000D01*
X581609Y2812563D02*
X579336Y2806000D01*
X578427Y2812563D02*
X581609D01*
X537200Y2628963D02*
Y2622400D01*
Y2628963D02*
X539245D01*
X539245D02*
X539927Y2628650D01*
X540155Y2628338*
X540155D02*
X540382Y2627713D01*
X540382D02*
Y2627088D01*
X540382D02*
X540155Y2626463D01*
X540155D02*
X539927Y2626150D01*
X539245Y2625838*
X539245D02*
X537200D01*
X538791D02*
X540382Y2622400D01*
X545382Y2626775D02*
X545155Y2625838D01*
X545155D02*
X544700Y2625213D01*
X544700D02*
X544018Y2624900D01*
X543791*
X543109Y2625213*
X543109D02*
X542655Y2625838D01*
X542655D02*
X542427Y2626775D01*
Y2627088*
X542427D02*
X542655Y2628025D01*
X543109Y2628650*
X543791Y2628963*
X543791D02*
X544018D01*
X544018D02*
X544700Y2628650D01*
X545155Y2628025*
X545382Y2626775*
Y2625213*
X545382D02*
X545155Y2623650D01*
X544700Y2622713*
X544700D02*
X544018Y2622400D01*
X543564*
X542882Y2622713*
X542882D02*
X542655Y2623338D01*
X568400Y2712963D02*
Y2706400D01*
Y2712963D02*
X570445D01*
X570445D02*
X571127Y2712650D01*
X571355Y2712338*
X571355D02*
X571582Y2711713D01*
X571582D02*
Y2711088D01*
X571582D02*
X571355Y2710463D01*
X571355D02*
X571127Y2710150D01*
X570445Y2709838*
X570445D02*
X568400D01*
X569991D02*
X571582Y2706400D01*
X574764Y2712963D02*
X574082Y2712650D01*
X573855Y2712025*
Y2711400*
X574082Y2710775*
X574536Y2710463*
X574536D02*
X575445Y2710150D01*
X576127Y2709838*
X576127D02*
X576582Y2709213D01*
X576582D02*
X576809Y2708588D01*
X576809D02*
Y2707650D01*
X576582Y2707025*
X576355Y2706713*
X576355D02*
X575673Y2706400D01*
X574764*
X574082Y2706713*
X574082D02*
X573855Y2707025D01*
X573627Y2707650*
Y2708588*
X573627D02*
X573855Y2709213D01*
X573855D02*
X574309Y2709838D01*
X574309D02*
X574991Y2710150D01*
X575900Y2710463*
X575900D02*
X576355Y2710775D01*
X576582Y2711400*
Y2712025*
X576355Y2712650*
X575673Y2712963*
X575673D02*
X574764D01*
X167700Y2940163D02*
Y2933600D01*
Y2940163D02*
X169745D01*
X169745D02*
X170427Y2939850D01*
X170655Y2939538*
X170655D02*
X170882Y2938913D01*
X170882D02*
Y2938288D01*
X170882D02*
X170655Y2937663D01*
X170655D02*
X170427Y2937350D01*
X169745Y2937038*
X169745D02*
X167700D01*
X169291D02*
X170882Y2933600D01*
X172927Y2938913D02*
X173382Y2939225D01*
X174064Y2940163*
X174064D02*
Y2933600D01*
X186800Y2785363D02*
Y2778800D01*
Y2785363D02*
X188845D01*
X188845D02*
X189527Y2785050D01*
X189755Y2784738*
X189755D02*
X189982Y2784113D01*
X189982D02*
Y2783488D01*
X189982D02*
X189755Y2782863D01*
X189755D02*
X189527Y2782550D01*
X188845Y2782238*
X188845D02*
X186800D01*
X188391D02*
X189982Y2778800D01*
X192255Y2783800D02*
Y2784113D01*
X192255D02*
X192482Y2784738D01*
X192482D02*
X192709Y2785050D01*
X193164Y2785363*
X193164D02*
X194073D01*
X194073D02*
X194527Y2785050D01*
X194755Y2784738*
X194755D02*
X194982Y2784113D01*
X194982D02*
Y2783488D01*
X194982D02*
X194755Y2782863D01*
X194755D02*
X194300Y2781925D01*
X192027Y2778800*
X195209*
X401173Y2628863D02*
Y2623863D01*
X401173D02*
X400945Y2622925D01*
X400718Y2622613*
X400718D02*
X400264Y2622300D01*
X399809*
X399355Y2622613*
X399355D02*
X399127Y2622925D01*
X398900Y2623863*
X398900D02*
Y2624488D01*
X403218Y2627613D02*
X403673Y2627925D01*
X404355Y2628863*
X404355D02*
Y2622300D01*
X408673Y2628863D02*
X406400Y2624488D01*
X406400D02*
X409809D01*
X408673Y2628863D02*
Y2622300D01*
X462000Y2885663D02*
Y2879100D01*
Y2885663D02*
X464045D01*
X464045D02*
X464727Y2885350D01*
X464955Y2885038*
X464955D02*
X465182Y2884413D01*
X465182D02*
Y2883788D01*
X465182D02*
X464955Y2883163D01*
X464955D02*
X464727Y2882850D01*
X464045Y2882538*
X464045D02*
X462000D01*
X463591D02*
X465182Y2879100D01*
X470182Y2885663D02*
X467909D01*
X467909D02*
X467682Y2882850D01*
X467909Y2883163*
X467909D02*
X468591Y2883475D01*
X469273*
X469955Y2883163*
X469955D02*
X470409Y2882538D01*
X470409D02*
X470636Y2881600D01*
X470409Y2880975*
X470182Y2880038*
X470182D02*
X469727Y2879413D01*
X469727D02*
X469045Y2879100D01*
X468364*
X467682Y2879413*
X467682D02*
X467455Y2879725D01*
X467227Y2880350*
X581900Y2912563D02*
Y2906000D01*
Y2912563D02*
X583945D01*
X583945D02*
X584627Y2912250D01*
X584855Y2911938*
X584855D02*
X585082Y2911313D01*
X585082D02*
Y2910688D01*
X585082D02*
X584855Y2910063D01*
X584855D02*
X584627Y2909750D01*
X583945Y2909438*
X583945D02*
X581900D01*
X583491D02*
X585082Y2906000D01*
X589855Y2911625D02*
X589627Y2912250D01*
X588945Y2912563*
X588945D02*
X588491D01*
X588491D02*
X587809Y2912250D01*
X587355Y2911313*
X587355D02*
X587127Y2909750D01*
Y2908188*
X587127D02*
X587355Y2906938D01*
X587355D02*
X587809Y2906313D01*
X587809D02*
X588491Y2906000D01*
X588718*
X589400Y2906313*
X589400D02*
X589855Y2906938D01*
X589855D02*
X590082Y2907875D01*
Y2908188*
X590082D02*
X589855Y2909125D01*
X589400Y2909750*
X588718Y2910063*
X588718D02*
X588491D01*
X588491D02*
X587809Y2909750D01*
X587355Y2909125*
X587127Y2908188*
X461700Y2685363D02*
Y2678800D01*
Y2685363D02*
X463745D01*
X463745D02*
X464427Y2685050D01*
X464655Y2684738*
X464655D02*
X464882Y2684113D01*
X464882D02*
Y2683488D01*
X464882D02*
X464655Y2682863D01*
X464655D02*
X464427Y2682550D01*
X463745Y2682238*
X463745D02*
X461700D01*
X463291D02*
X464882Y2678800D01*
X467382Y2685363D02*
X469882D01*
X469882D02*
X468518Y2682863D01*
X468518D02*
X469200D01*
X469200D02*
X469655Y2682550D01*
X469882Y2682238*
X469882D02*
X470109Y2681300D01*
Y2680675*
X469882Y2679738*
X469882D02*
X469427Y2679113D01*
X469427D02*
X468745Y2678800D01*
X468064*
X467382Y2679113*
X467382D02*
X467155Y2679425D01*
X466927Y2680050*
X462000Y2785863D02*
Y2779300D01*
Y2785863D02*
X464045D01*
X464045D02*
X464727Y2785550D01*
X464955Y2785238*
X464955D02*
X465182Y2784613D01*
X465182D02*
Y2783988D01*
X465182D02*
X464955Y2783363D01*
X464955D02*
X464727Y2783050D01*
X464045Y2782738*
X464045D02*
X462000D01*
X463591D02*
X465182Y2779300D01*
X469500Y2785863D02*
X467227Y2781488D01*
X467227D02*
X470636D01*
X469500Y2785863D02*
Y2779300D01*
X477200Y2628306D02*
Y2622400D01*
Y2628306D02*
X478791D01*
X479473Y2628025*
X479927Y2627463*
X479927D02*
X480155Y2626900D01*
X480382Y2626056*
Y2624650*
X480155Y2623806*
X479927Y2623244*
X479473Y2622681*
X478791Y2622400*
X477200*
X482427Y2627181D02*
X482882Y2627463D01*
X482882D02*
X483564Y2628306D01*
Y2622400*
X351573Y2629363D02*
Y2624363D01*
X351573D02*
X351345Y2623425D01*
X351118Y2623113*
X351118D02*
X350664Y2622800D01*
X350209*
X349755Y2623113*
X349755D02*
X349527Y2623425D01*
X349300Y2624363*
X349300D02*
Y2624988D01*
X353618Y2628113D02*
X354073Y2628425D01*
X354755Y2629363*
X354755D02*
Y2622800D01*
X357255Y2629363D02*
X359755D01*
X359755D02*
X358391Y2626863D01*
X358391D02*
X359073D01*
X359073D02*
X359527Y2626550D01*
X359755Y2626238*
X359755D02*
X359982Y2625300D01*
Y2624675*
X359755Y2623738*
X359755D02*
X359300Y2623113D01*
X359300D02*
X358618Y2622800D01*
X357936*
X357255Y2623113*
X357255D02*
X357027Y2623425D01*
X356800Y2624050*
X100500Y3099500D02*
X695500D01*
Y2616700*
X100500*
Y3099500*
G54D12*
X257500Y2679400D02*
Y2677400D01*
X238800Y2679400D02*
Y2677400D01*
X219400Y2679200D02*
Y2677200D01*
X276900Y2679500D02*
Y2677500D01*
X241200Y2783300D02*
Y2781300D01*
X214900Y2836900D02*
X216900D01*
X273400Y2836400D02*
X275400D01*
X123886Y2955903D02*
Y2953653D01*
X123773Y2953231*
X123659Y2953091*
X123432Y2952950*
X123205*
X122977Y2953091*
X122864Y2953231*
X122750Y2953653*
Y2953934*
X124909Y2955341D02*
X125136Y2955481D01*
X125477Y2955903*
Y2952950*
X672114Y2943497D02*
Y2945747D01*
X672227Y2946169*
X672341Y2946309*
X672568Y2946450*
X672795*
X673023Y2946309*
X673136Y2946169*
X673250Y2945747*
Y2945466*
X669500Y2943497D02*
X670636Y2946450D01*
X671091Y2943497D02*
X669500D01*
X672114Y2793497D02*
Y2795747D01*
X672227Y2796169*
X672341Y2796309*
X672568Y2796450*
X672795*
X673023Y2796309*
X673136Y2796169*
X673250Y2795747*
Y2795466*
X671091Y2794059D02*
X670864Y2793919D01*
X670523Y2793497*
Y2796450*
X669500Y2794059D02*
X669273Y2793919D01*
X668932Y2793497*
Y2796450*
X672114Y2693497D02*
Y2695747D01*
X672227Y2696169*
X672341Y2696309*
X672568Y2696450*
X672795*
X673023Y2696309*
X673136Y2696169*
X673250Y2695747*
Y2695466*
X671091Y2694059D02*
X670864Y2693919D01*
X670523Y2693497*
Y2696450*
X669386Y2694200D02*
Y2694059D01*
X669273Y2693778*
X669159Y2693637*
X669159D02*
X668932Y2693497D01*
X668477*
X668250Y2693637*
X668250D02*
X668136Y2693778D01*
X668023Y2694059*
Y2694341*
X668136Y2694622*
X668364Y2695044*
X669500Y2696450*
X667909*
X123886Y2705903D02*
Y2703653D01*
X123773Y2703231*
X123659Y2703091*
X123432Y2702950*
X123205*
X122977Y2703091*
X122864Y2703231*
X122750Y2703653*
Y2703934*
X126273Y2705481D02*
X126159Y2705763D01*
X126159D02*
X125818Y2705903D01*
X125591*
X125250Y2705763*
X125250D02*
X125023Y2705341D01*
X124909Y2704638*
X124909D02*
Y2703934D01*
X125023Y2703372*
X125250Y2703091*
X125591Y2702950*
X125705*
X126045Y2703091*
X126273Y2703372*
X126386Y2703794*
Y2703934*
X126273Y2704356*
X126045Y2704638*
X126045D02*
X125705Y2704778D01*
X125591*
X125250Y2704638*
X125250D02*
X125023Y2704356D01*
X124909Y2703934*
X123886Y2905903D02*
Y2903653D01*
X123773Y2903231*
X123659Y2903091*
X123432Y2902950*
X123205*
X122977Y2903091*
X122864Y2903231*
X122750Y2903653*
Y2903934*
X125023Y2905200D02*
Y2905341D01*
X125136Y2905622*
X125250Y2905763*
X125250D02*
X125477Y2905903D01*
X125932*
X126159Y2905763*
X126159D02*
X126273Y2905622D01*
X126386Y2905341*
Y2905059*
X126273Y2904778*
X126045Y2904356*
X124909Y2902950*
X126500*
X123886Y2855903D02*
Y2853653D01*
X123773Y2853231*
X123659Y2853091*
X123432Y2852950*
X123205*
X122977Y2853091*
X122864Y2853231*
X122750Y2853653*
Y2853934*
X125136Y2855903D02*
X126386D01*
X125705Y2854778*
X126045*
X126273Y2854638*
X126273D02*
X126386Y2854497D01*
X126500Y2854075*
Y2853794*
X126386Y2853372*
X126159Y2853091*
X125818Y2852950*
X125477*
X125136Y2853091*
X125023Y2853231*
X124909Y2853513*
X123886Y2805903D02*
Y2803653D01*
X123773Y2803231*
X123659Y2803091*
X123432Y2802950*
X123205*
X122977Y2803091*
X122864Y2803231*
X122750Y2803653*
Y2803934*
X126045Y2805903D02*
X124909Y2803934D01*
X126614*
X126045Y2805903D02*
Y2802950D01*
X123886Y2755903D02*
Y2753653D01*
X123773Y2753231*
X123659Y2753091*
X123432Y2752950*
X123205*
X122977Y2753091*
X122864Y2753231*
X122750Y2753653*
Y2753934*
X126386Y2755903D02*
X125250D01*
X125136Y2754638*
X125136D02*
X125250Y2754778D01*
X125591Y2754919*
X125932*
X126273Y2754778*
X126500Y2754497*
X126614Y2754075*
X126500Y2753794*
X126386Y2753372*
X126159Y2753091*
X125818Y2752950*
X125477*
X125136Y2753091*
X125023Y2753231*
X124909Y2753513*
X672114Y2893497D02*
Y2895747D01*
X672227Y2896169*
X672341Y2896309*
X672568Y2896450*
X672795*
X673023Y2896309*
X673136Y2896169*
X673250Y2895747*
Y2895466*
X671091Y2894059D02*
X670864Y2893919D01*
X670523Y2893497*
Y2896450*
X668818Y2893497D02*
X669159Y2893637D01*
X669159D02*
X669386Y2894059D01*
X669500Y2894762*
X669500D02*
Y2895184D01*
X669386Y2895887*
X669386D02*
X669159Y2896309D01*
X668818Y2896450*
X668591*
X668250Y2896309*
X668023Y2895887*
X668023D02*
X667909Y2895184D01*
Y2894762*
X667909D02*
X668023Y2894059D01*
X668250Y2893637*
X668250D02*
X668591Y2893497D01*
X668818*
X672114Y2843497D02*
Y2845747D01*
X672227Y2846169*
X672341Y2846309*
X672568Y2846450*
X672795*
X673023Y2846309*
X673136Y2846169*
X673250Y2845747*
Y2845466*
X670523Y2843497D02*
X670864Y2843637D01*
X670864D02*
X670977Y2843919D01*
Y2844200*
X670864Y2844481*
X670636Y2844622*
X670182Y2844762*
X670182D02*
X669841Y2844903D01*
X669614Y2845184*
X669500Y2845466*
Y2845887*
X669500D02*
X669614Y2846169D01*
X669727Y2846309*
X670068Y2846450*
X670523*
X670864Y2846309*
X670977Y2846169*
X671091Y2845887*
X671091D02*
Y2845466D01*
X670977Y2845184*
X670750Y2844903*
X670409Y2844762*
X670409D02*
X669955Y2844622D01*
X669727Y2844481*
X669614Y2844200*
Y2843919*
X669727Y2843637*
X669727D02*
X670068Y2843497D01*
X670523*
X672114Y2743497D02*
Y2745747D01*
X672227Y2746169*
X672341Y2746309*
X672568Y2746450*
X672795*
X673023Y2746309*
X673136Y2746169*
X673250Y2745747*
Y2745466*
X669614Y2744481D02*
X669727Y2744903D01*
X669955Y2745184*
X670295Y2745325*
X670409*
X670750Y2745184*
X670977Y2744903*
X671091Y2744481*
Y2744341*
X670977Y2743919*
X670750Y2743637*
X670750D02*
X670409Y2743497D01*
X670295*
X669955Y2743637*
X669955D02*
X669727Y2743919D01*
X669614Y2744481*
Y2745184*
X669727Y2745887*
X669727D02*
X669955Y2746309D01*
X670295Y2746450*
X670523*
X670864Y2746309*
X670977Y2746028*
G54D14*
X253845Y2684400D02*
X253709Y2684738D01*
X253709D02*
X253436Y2685075D01*
X253164Y2685244*
X252618*
X252345Y2685075*
X252073Y2684738*
X252073D02*
X251936Y2684400D01*
X251800Y2683894*
Y2683050*
X251936Y2682544*
X252073Y2682206*
X252345Y2681869*
X252618Y2681700*
X253164*
X253436Y2681869*
X253709Y2682206*
X253845Y2682544*
X256845Y2685244D02*
X255482D01*
X255345Y2683725*
X255482Y2683894*
X255891Y2684063*
X255891D02*
X256300D01*
X256300D02*
X256709Y2683894D01*
X256982Y2683556*
X257118Y2683050*
X256982Y2682713*
X256982D02*
X256845Y2682206D01*
X256573Y2681869*
X256164Y2681700*
X255755*
X255345Y2681869*
X255209Y2682038*
X255209D02*
X255073Y2682375D01*
X235145Y2684400D02*
X235009Y2684738D01*
X235009D02*
X234736Y2685075D01*
X234464Y2685244*
X233918*
X233645Y2685075*
X233373Y2684738*
X233373D02*
X233236Y2684400D01*
X233100Y2683894*
Y2683050*
X233236Y2682544*
X233373Y2682206*
X233645Y2681869*
X233918Y2681700*
X234464*
X234736Y2681869*
X235009Y2682206*
X235145Y2682544*
X238009Y2684738D02*
X237873Y2685075D01*
X237464Y2685244*
X237191*
X236782Y2685075*
X236509Y2684569*
X236373Y2683725*
Y2682881*
X236509Y2682206*
X236782Y2681869*
X237191Y2681700*
X237327*
X237736Y2681869*
X238009Y2682206*
X238145Y2682713*
X238145D02*
Y2682881D01*
X238009Y2683388*
X238009D02*
X237736Y2683725D01*
X237327Y2683894*
X237191*
X236782Y2683725*
X236509Y2683388*
X236509D02*
X236373Y2682881D01*
X215745Y2684200D02*
X215609Y2684538D01*
X215609D02*
X215336Y2684875D01*
X215064Y2685044*
X214518*
X214245Y2684875*
X213973Y2684538*
X213973D02*
X213836Y2684200D01*
X213700Y2683694*
Y2682850*
X213836Y2682344*
X213973Y2682006*
X214245Y2681669*
X214518Y2681500*
X215064*
X215336Y2681669*
X215609Y2682006*
X215745Y2682344*
X218882Y2685044D02*
X217518Y2681500D01*
X216973Y2685044D02*
X218882D01*
X273245Y2684500D02*
X273109Y2684838D01*
X273109D02*
X272836Y2685175D01*
X272564Y2685344*
X272018*
X271745Y2685175*
X271473Y2684838*
X271473D02*
X271336Y2684500D01*
X271200Y2683994*
Y2683150*
X271336Y2682644*
X271473Y2682306*
X271745Y2681969*
X272018Y2681800*
X272564*
X272836Y2681969*
X273109Y2682306*
X273245Y2682644*
X275836Y2685344D02*
X274473Y2682981D01*
X276518*
X275836Y2685344D02*
Y2681800D01*
X237545Y2788300D02*
X237409Y2788638D01*
X237409D02*
X237136Y2788975D01*
X236864Y2789144*
X236318*
X236045Y2788975*
X235773Y2788638*
X235773D02*
X235636Y2788300D01*
X235500Y2787794*
Y2786950*
X235636Y2786444*
X235773Y2786106*
X236045Y2785769*
X236318Y2785600*
X236864*
X237136Y2785769*
X237409Y2786106*
X237545Y2786444*
X238909Y2788300D02*
Y2788469D01*
X239045Y2788806*
X239182Y2788975*
X239455Y2789144*
X240000*
X240273Y2788975*
X240409Y2788806*
X240545Y2788469*
Y2788131*
X240409Y2787794*
X240136Y2787288*
X240136D02*
X238773Y2785600D01*
X240682*
X254345Y2738500D02*
X254209Y2738838D01*
X254209D02*
X253936Y2739175D01*
X253664Y2739344*
X253118*
X252845Y2739175*
X252573Y2738838*
X252573D02*
X252436Y2738500D01*
X252300Y2737994*
Y2737150*
X252436Y2736644*
X252573Y2736306*
X252845Y2735969*
X253118Y2735800*
X253664*
X253936Y2735969*
X254209Y2736306*
X254345Y2736644*
X255573Y2738669D02*
X255845Y2738838D01*
X255845D02*
X256255Y2739344D01*
Y2735800*
X258300Y2739344D02*
X257891Y2739175D01*
X257618Y2738669*
X257482Y2737825*
Y2737319*
X257618Y2736475*
X257891Y2735969*
X258300Y2735800*
X258573*
X258982Y2735969*
X259255Y2736475*
X259391Y2737319*
Y2737825*
X259255Y2738669*
X258982Y2739175*
X258573Y2739344*
X258300*
X274145Y2737900D02*
X274009Y2738238D01*
X274009D02*
X273736Y2738575D01*
X273464Y2738744*
X272918*
X272645Y2738575*
X272373Y2738238*
X272373D02*
X272236Y2737900D01*
X272100Y2737394*
Y2736550*
X272236Y2736044*
X272373Y2735706*
X272645Y2735369*
X272918Y2735200*
X273464*
X273736Y2735369*
X274009Y2735706*
X274145Y2736044*
X275373Y2738069D02*
X275645Y2738238D01*
X275645D02*
X276055Y2738744D01*
Y2735200*
X277282Y2738069D02*
X277555Y2738238D01*
X277555D02*
X277964Y2738744D01*
Y2735200*
X235345Y2738500D02*
X235209Y2738838D01*
X235209D02*
X234936Y2739175D01*
X234664Y2739344*
X234118*
X233845Y2739175*
X233573Y2738838*
X233573D02*
X233436Y2738500D01*
X233300Y2737994*
Y2737150*
X233436Y2736644*
X233573Y2736306*
X233845Y2735969*
X234118Y2735800*
X234664*
X234936Y2735969*
X235209Y2736306*
X235345Y2736644*
X238345Y2738163D02*
X238209Y2737656D01*
X237936Y2737319*
X237527Y2737150*
X237391*
X236982Y2737319*
X236709Y2737656*
X236573Y2738163*
X236573D02*
Y2738331D01*
X236709Y2738838*
X236709D02*
X236982Y2739175D01*
X237391Y2739344*
X237527*
X237936Y2739175*
X238209Y2738838*
X238209D02*
X238345Y2738163D01*
X238345D02*
Y2737319D01*
X238209Y2736475*
X237936Y2735969*
X237527Y2735800*
X237255*
X236845Y2735969*
X236709Y2736306*
X214645Y2738900D02*
X214509Y2739238D01*
X214509D02*
X214236Y2739575D01*
X213964Y2739744*
X213418*
X213145Y2739575*
X212873Y2739238*
X212873D02*
X212736Y2738900D01*
X212600Y2738394*
Y2737550*
X212736Y2737044*
X212873Y2736706*
X213145Y2736369*
X213418Y2736200*
X213964*
X214236Y2736369*
X214509Y2736706*
X214645Y2737044*
X216555Y2739744D02*
X216145Y2739575D01*
X216009Y2739238*
X216009D02*
Y2738900D01*
X216145Y2738563*
X216145D02*
X216418Y2738394D01*
X216964Y2738225*
X217373Y2738056*
X217645Y2737719*
X217782Y2737381*
Y2736875*
X217645Y2736538*
X217645D02*
X217509Y2736369D01*
X217100Y2736200*
X216555*
X216145Y2736369*
X216009Y2736538*
X216009D02*
X215873Y2736875D01*
Y2737381*
X216009Y2737719*
X216282Y2738056*
X216691Y2738225*
X217236Y2738394*
X217509Y2738563*
X217509D02*
X217645Y2738900D01*
Y2739238*
X217645D02*
X217509Y2739575D01*
X217100Y2739744*
X216555*
X210045Y2838300D02*
X209909Y2838638D01*
X209909D02*
X209636Y2838975D01*
X209364Y2839144*
X208818*
X208545Y2838975*
X208273Y2838638*
X208273D02*
X208136Y2838300D01*
X208000Y2837794*
Y2836950*
X208136Y2836444*
X208273Y2836106*
X208545Y2835769*
X208818Y2835600*
X209364*
X209636Y2835769*
X209909Y2836106*
X210045Y2836444*
X211273Y2838469D02*
X211545Y2838638D01*
X211545D02*
X211955Y2839144D01*
Y2835600*
X279945Y2837500D02*
X279809Y2837838D01*
X279536Y2838175*
X279264Y2838344*
X278718*
X278445Y2838175*
X278173Y2837838*
X278036Y2837500*
X277900Y2836994*
Y2836150*
X278036Y2835644*
X278173Y2835306*
X278445Y2834969*
X278718Y2834800*
X279264*
X279536Y2834969*
X279809Y2835306*
X279945Y2835644*
X281445Y2838344D02*
X282945D01*
X282127Y2836994*
X282536*
X282809Y2836825*
X282945Y2836656*
X283082Y2836150*
Y2835813*
X282945Y2835306*
X282673Y2834969*
X282264Y2834800*
X281855*
X281445Y2834969*
X281309Y2835138*
X281173Y2835475*
X0Y0D02*
M02*
