*
*
G04 PADS VX.2.8 Build Number: 19810023 generated Gerber (RS-274-X) file*
G04 PC Version=2.1*
*
%IN "ECE4460_PG_VersionB.pcb"*%
*
%MOIN*%
*
%FSLAX35Y35*%
*
*
*
*
G04 PC Standard Apertures*
*
*
G04 Thermal Relief Aperture macro.*
%AMTER*
1,1,$1,0,0*
1,0,$1-$2,0,0*
21,0,$3,$4,0,0,45*
21,0,$3,$4,0,0,135*
%
*
*
G04 Annular Aperture macro.*
%AMANN*
1,1,$1,0,0*
1,0,$2,0,0*
%
*
*
G04 Odd Aperture macro.*
%AMODD*
1,1,$1,0,0*
1,0,$1-0.005,0,0*
%
*
*
G04 PC Custom Aperture Macros*
*
*
*
*
*
*
G04 PC Aperture Table*
*
%ADD010C,0.001*%
%ADD011C,0.01*%
%ADD020C,0.06*%
%ADD074TER,0.06X0.015X0.01X0.06364*%
%ADD080C,0.04*%
%ADD081TER,0.04X0.01X0.00667X0.04242*%
*
*
*
*
G04 PC Circuitry*
G04 Layer Name ECE4460_PG_VersionB.pcb - circuitry*
%LPD*%
*
*
G04 PC Custom Flashes*
G04 Layer Name ECE4460_PG_VersionB.pcb - flashes*
%LPD*%
*
*
G04 PC Circuitry*
G04 Layer Name ECE4460_PG_VersionB.pcb - circuitry*
%LPD*%
*
G54D10*
G54D11*
G01X100500Y3099500D02*
X695500D01*
Y2616700*
X100500*
Y3099500*
G54D20*
X428100Y2625600D03*
X379300Y2625900D03*
G54D74*
X418100Y2625600D03*
X369300Y2625900D03*
G54D80*
X379300Y2639700D03*
X428200Y2639600D03*
X529700Y2637500D03*
X113700Y2672900D03*
X119200Y2673800D03*
X106100Y2673300D03*
X221700Y2674500D03*
X241200Y2674900D03*
X260100Y2674500D03*
X279600Y2673500D03*
X674500Y2670900D03*
X682100D03*
X689700D03*
X486100Y2693300D03*
X106900Y2724500D03*
X120500D03*
X113500Y2724600D03*
X243700Y2723400D03*
X224500Y2723000D03*
X262500Y2721800D03*
X281300Y2722600D03*
X676100Y2724500D03*
X682900D03*
X689700D03*
X106500Y2774900D03*
X120100D03*
X113400Y2774700D03*
X675700Y2774900D03*
X682900D03*
X689700D03*
X262500Y2798700D03*
X476900Y2793200D03*
X106500Y2824900D03*
X119700D03*
X113300D03*
X675700D03*
X682600Y2825000D03*
X689700Y2824900D03*
X215900Y2846000D03*
X274400Y2845000D03*
X120100Y2874900D03*
X113700D03*
X107300Y2874500D03*
X676100Y2874900D03*
X682500D03*
X688900D03*
X477500Y2893600D03*
X107300Y2924600D03*
X113800D03*
X120100D03*
X676100Y2924900D03*
X682700D03*
X689300D03*
X107300Y2975700D03*
X113300D03*
X119700Y2975800D03*
X675300Y2976900D03*
X682500D03*
X689300D03*
G54D81*
X368900Y2639900D03*
X418100Y2639700D03*
X490400Y2637900D03*
X255300Y2668600D03*
X216900Y2669800D03*
X233600Y2671100D03*
X274100Y2671400D03*
X215700Y2725400D03*
X234100Y2722200D03*
X253700D03*
X272900Y2724600D03*
X259700Y2782100D03*
X225200Y2846200D03*
X264400Y2845100D03*
X0Y0D02*
M02*
