M48
;FILE_FORMAT=2:4
INCH,LZ
FMAT,2
ICI,OFF
;TYPE=PLATED
T1C.015
T2C.035
%
M72
G90
G93X0Y0
T1C.015F095S3
X02132Y-00888
X02056Y-00884
X02187Y-00879
X02064Y-00372
X022Y-00372
X0213Y-00371
X02129Y0013
X02196Y00132
X0206Y00132
X0206Y00632
X02192Y00632
X02128Y00632
X02068Y01128
X02132Y01132
X02196Y01132
X02068Y01629
X02133Y01629
X02196Y01629
X02068Y0214
X02128Y0214
X02192Y02141
X03247Y00845
X03154Y00843
X03152Y-00363
X0324Y-00387
X03212Y-00872
X03164Y-00919
X03548Y-00931
X03331Y-00906
X03736Y-00903
X03791Y-00882
X03596Y-00872
X03407Y-00868
X0362Y-00399
X03532Y-00395
X03336Y-00395
X03432Y-00383
X03724Y-00371
X03592Y00204
X0362Y0037
X03739Y00833
X03639Y00834
X03808Y-00391
X04684Y-01218
X04788Y-0122
X05899Y-01238
X05277Y-01221
X05176Y-0122
X05856Y-00684
X05764Y00315
X0577Y01319
X07748Y02152
X07756Y01632
X07756Y01132
X07752Y00632
X07752Y00132
X07756Y-00372
X0774Y-00908
X06292Y-01242
X07816Y-00908
X07892Y-00908
X07824Y-00372
X07892Y-00372
X07824Y00132
X07892Y00132
X07892Y00632
X07821Y00633
X07884Y01132
X0782Y01132
X07822Y01632
X07888Y01632
X0782Y02152
X07888Y02152
T2C.035F197S55
X04688Y-01358
X04788Y-01358
X05176Y-01361
X05276Y-01361
M30
